<mxfile host="app.diagrams.net" modified="2023-09-16T00:18:31.682Z" agent="Mozilla/5.0 (Macintosh; Intel Mac OS X 10_15_7) AppleWebKit/537.36 (KHTML, like Gecko) Chrome/116.0.0.0 Safari/537.36" etag="0t0J45ADzfcOirEre7sg" version="21.7.4" type="github">
  <diagram name="Page-1" id="099fd60b-425b-db50-ffb0-6b813814b670">
    <mxGraphModel dx="4440" dy="1777" grid="1" gridSize="25" guides="1" tooltips="1" connect="0" arrows="1" fold="1" page="1" pageScale="1" pageWidth="1100" pageHeight="850" background="none" math="0" shadow="0">
      <root>
        <mxCell id="0" />
        <mxCell id="1" parent="0" />
        <mxCell id="4654CwZ4dVRWTbgEyjtQ-26" value="Pri CAT6 Master BR TV Cab" style="text;strokeColor=none;align=center;fillColor=none;html=1;verticalAlign=middle;whiteSpace=wrap;rounded=0;" parent="1" vertex="1">
          <mxGeometry x="-1071.25" y="300" width="75" height="50" as="geometry" />
        </mxCell>
        <mxCell id="4654CwZ4dVRWTbgEyjtQ-28" value="Pri CAT8 Bsmt Hub eero GW" style="text;strokeColor=none;align=center;fillColor=none;html=1;verticalAlign=middle;whiteSpace=wrap;rounded=0;" parent="1" vertex="1">
          <mxGeometry x="-1050" y="62" width="75" height="50" as="geometry" />
        </mxCell>
        <mxCell id="4654CwZ4dVRWTbgEyjtQ-29" style="orthogonalLoop=1;jettySize=auto;html=1;elbow=vertical;endArrow=none;endFill=0;strokeColor=#66B2FF;opacity=50;strokeWidth=5;curved=1;" parent="1" edge="1">
          <mxGeometry relative="1" as="geometry">
            <mxPoint x="-1012" y="112" as="sourcePoint" />
            <mxPoint x="-1027.9257692307692" y="177" as="targetPoint" />
            <Array as="points">
              <mxPoint x="-1025.07" y="150" />
            </Array>
          </mxGeometry>
        </mxCell>
        <mxCell id="5O-vmS7WsDglhWfCH8Vm-60" value="" style="group;movable=0;resizable=0;rotatable=0;deletable=0;editable=0;locked=1;connectable=0;" parent="1" vertex="1" connectable="0">
          <mxGeometry x="-800" y="73.5" width="125" height="150" as="geometry" />
        </mxCell>
        <mxCell id="5O-vmS7WsDglhWfCH8Vm-27" value="" style="group" parent="5O-vmS7WsDglhWfCH8Vm-60" vertex="1" connectable="0">
          <mxGeometry y="25" width="125" height="125" as="geometry" />
        </mxCell>
        <mxCell id="5O-vmS7WsDglhWfCH8Vm-24" value="" style="shape=image;verticalLabelPosition=bottom;labelBackgroundColor=default;verticalAlign=top;aspect=fixed;imageAspect=0;image=data:image/png,iVBORw0KGgoAAAANSUhEUgAAAcwAAAHMCAYAAABY25iGAAAAAXNSR0IArs4c6QAAAKZlWElmTU0AKgAAAAgABAEGAAMAAAABAAIAAAESAAMAAAABAAEAAAEoAAMAAAABAAIAAIdpAAQAAAABAAAAPgAAAAAABJKGAAcAAAAyAAAAdKABAAMAAAABAAEAAKACAAQAAAABAAABzKADAAQAAAABAAABzAAAAABBU0NJSQAAADEuNzIuMS0yM0otVklZTzRSUzI1SzcyNUpXQjdQWFY0TVdKTUEuMC4yLY28WAAAAAMPaVRYdFhNTDpjb20uYWRvYmUueG1wAAAAAAA8eDp4bXBtZXRhIHhtbG5zOng9ImFkb2JlOm5zOm1ldGEvIiB4OnhtcHRrPSJYTVAgQ29yZSA2LjAuMCI+CiAgIDxyZGY6UkRGIHhtbG5zOnJkZj0iaHR0cDovL3d3dy53My5vcmcvMTk5OS8wMi8yMi1yZGYtc3ludGF4LW5zIyI+CiAgICAgIDxyZGY6RGVzY3JpcHRpb24gcmRmOmFib3V0PSIiCiAgICAgICAgICAgIHhtbG5zOnRpZmY9Imh0dHA6Ly9ucy5hZG9iZS5jb20vdGlmZi8xLjAvIgogICAgICAgICAgICB4bWxuczpleGlmPSJodHRwOi8vbnMuYWRvYmUuY29tL2V4aWYvMS4wLyI+CiAgICAgICAgIDx0aWZmOkNvbXByZXNzaW9uPjE8L3RpZmY6Q29tcHJlc3Npb24+CiAgICAgICAgIDx0aWZmOlJlc29sdXRpb25Vbml0PjI8L3RpZmY6UmVzb2x1dGlvblVuaXQ+CiAgICAgICAgIDx0aWZmOk9yaWVudGF0aW9uPjE8L3RpZmY6T3JpZW50YXRpb24+CiAgICAgICAgIDx0aWZmOlBob3RvbWV0cmljSW50ZXJwcmV0YXRpb24+MjwvdGlmZjpQaG90b21ldHJpY0ludGVycHJldGF0aW9uPgogICAgICAgICA8ZXhpZjpQaXhlbFhEaW1lbnNpb24+NDYwPC9leGlmOlBpeGVsWERpbWVuc2lvbj4KICAgICAgICAgPGV4aWY6VXNlckNvbW1lbnQ+MS43Mi4xLTIzSi1WSVlPNFJTMjVLNzI1SldCN1BYVjRNV0pNQS4wLjItPC9leGlmOlVzZXJDb21tZW50PgogICAgICAgICA8ZXhpZjpQaXhlbFlEaW1lbnNpb24+NDYwPC9leGlmOlBpeGVsWURpbWVuc2lvbj4KICAgICAgPC9yZGY6RGVzY3JpcHRpb24+CiAgIDwvcmRmOlJERj4KPC94OnhtcG1ldGE+CmhYBO8AAEAASURBVHgB7H0HgFxXdfbZqi3SqssqLnKRXOUu+8fGdijBAUIzvSThT/1J/gRCSYBQHAI2BmNDDIQSwh8gJITgArhQXLCNG9hYLmAbF1myZcuWrLZabZ39v+/cd968uTOzM7Ozfc+VZt97t5x77nfvPef223D06R8alppMYwXf5p6L/MXfkXP6aeFTi+gldq+WbkRmzD7j+GP+4ohi9zh87H+mf8fpj/GJ0x+7x+Fj/+P9Hccf8xfHH7vH4WP/4/0dxx/zF8cfu8fhY/9T/TvmP05fzH/sHoeP/Y/3dxx/zF8cf+weh4/9+3cWgRi9rJu/OwKOgCPgCDgCjkCCgCtMLwqOgCPgCDgCjkAVCLjCrAIk9+IIOAKOgCPgCLjC9DLgCDgCjoAj4AhUgYArzCpAci+OgCPgCDgCjkDz2EMw3quuxpt+OUTGKt6xolOOz6lqP1bpHis6teI0VvGOFR3nPyBQbZt/rHAfLZ1y4aYL/7WWt6nmf2zwrza3plrqnR9HwBFwBBwBR2BCERhFD7NQU+eG422cpoML/VWfqqEKXo1+BW91O09V/kfLlwEy2/EzHCo9R4uzl99KyFbnXi3+sfwx6tWGN//2HKv8qzb+qcq/4RE/q01XHM6+p5r8qQ3/ieLe0PKnI+AIOAKOgCMwLREYRQ+zUjrrbYHUSn+CdH5DmXQN1xp/TKfW8JXwmaLu0x0/5z8pWJNUfg3/ovpWJT8WPq4eRfRiD/F3lfHFwSz+oviqpGfhY7pF9GIP8XeV8cXBpvu34VeEV5V4JOFnibSe7rnt/DsCjoAj4AhMNgKuMCc7Bzx+R8ARcAQcgWmBgCvMaZFNzqQj4Ag4Ao7AZCPQXLzKdbJZ8vgdAUfAEXAEHIGph4D3MKdenjhHjoAj4Ag4AlMQgbpXyTbkyu1jmajUVto3NVZ8NJQhVG/6J4p/Y3+i47N4pzt+zr/lZOGzvvKUKwdrYSQiw+axsL41Fn4iVDl+LHwR4diixu9y8cVkLP4ihiOP5ehZ+Mi7VKIX+4+/y8UX+xur74mOz/g2/ArxKi5/ZfhLyp/3MA1PfzoCjoAj4Ag4AiMg0DxcdFLPCL5LOJneLuHkVo6AI+AIOAKOwIxBwHuYMyYrPSGOgCPgCDgC44lAzXOYxXMG48me03YEHAFHII+Ay588Fv428Qh4D3PiMfcYHQFHwBFwBKYhAjX3MKdhGp1lR8ARmGQEilcjTjJDHv2sQmCsyp/3MGdVsfHEOgKOgCPgCIwWgaJVspXmCAp3sYw2Wg/nCDgCMxmBohZ9lYLD5c9MLhUTl7bxKn/ew5y4PPSYHAFHwBFwBKYxAj6HOY0zz1l3BKYLAkUt/oTxSj3K6ZI+53NqIzBW5c97mFM7n507R8ARcAQcgSmCQM09zIZoLiI94nGKJMjZmKoIxDebG5/Tpc023fk3vCfnWX9PMuAfnyw2LNOl/EwO7h5rQKD+8pfQcUAdAUfAEXAEHAFHoDIC3jyrjJH7cAQcAUfAEXAEfDzDy4Aj4Ag4Ao6AI1ANAs0S3WdZbqYmTyzyEc1p5v2Ve6u3UxvFXy6acbOfbP6nS/zV5lOtBahauuUKQLX4VRtPrfyX46ta+2r5Kkev2vSXC19l/BEs+bUOhfHHayLy1PNv5TgJ9lFEI3seA9dq+SoXVWH6y/kqb+/xl8cm4xIVi3z5y/jBa/nyV+jPvurNPaPjT0fAEXAEHAFHYEYj4ApzRmevJ84RcAQcAUdgrBBwhTlWSDodR8ARcAQcgRmNQM37MGc0Gp648UOgIZl7GZ6mbbTpzv/45WxVlOO5oqoCZT05/lk0/L1GBOouf0l801R61YiWe3cEHAFHwBFwBOpEAD3MeNXVeOvQOL44BeMdfxxfrd8x/xPNbxx/zP948zNZ8VeKN8ah3HclOrXiF9OrNXzMZ0wvdq/3O6ZfL7+18hPHH4evlZ+YXq3h4/hjerF7vd8x/Xr5rZWfOP44/HjzM9nxx+mt7Xu80amNm2npu1IByCaqFr/ZcP7uCIwXArWUyVr8jhe/M41uLZjW4nem4TQ10oP7MONMiL9jRqvVsTEd+64U3vzF8dp3pfDmL6Zj35XCm7v5j+mZu9nzGfvNutX6bvRjmvZt7uXomr9y7pXCW7iYjn1XCm/+jE7yTPdFlXGPvI8eU+Mvjse+zb0owsTC/EXuVfNfJnxEbvw+LX0xH/Zt7lkOzC1rN9p3ox/TtG9zL0ff/EXujn8ESLlPwzfG0b7NvVx481fOvVJ4CxfTse9K4c2f0RnrZ6X4Lb6Yj/Dti34Mn1E/Y2ArEao2wyrRcXdHYCwQ8PI7FiiOnobjP3rsJj6kz2HWjHmtBbzmCCoEqBT/eCvkyYrf4q03fUanHMy10o/p1Ro+5iOmF7uPN/04vrH+Huv0xfTGG5/xpj/WeMf0Yrxi93rTF9OLvyc7/pif2r7HG53auHHfjoAj4Ag4Ao7AFEXAh2SLMqZSC6goQGRhbZDR0hltuIiNKftp+ExZBmtkbKqlp97yY+kZLZ3RhqsR9tS78Zta+IsjMG4IeGkbN2idsCPgCDgCjsBMQsAV5kzKTU+LI+AIOAKOwLgh4Apz3KB1wo6AI+AIOAIzCQHsw2yI0pNueIrs7XPIXmp8xvGUCz7e8cf04zkXa0PE9savudt3/DT6cXqNXiX8jL75j+nH3+bf7C1++46fleKP/dt3nB6zj5/jHf9o6Y8V/3F66/2uNp8tnkr5Z+WhHF1zN3rx0/CN8TJ69cYfxxfzY/HH/sbr29JVLf04/TH/sbvRjfE0+8mO3/iwZyX8y6XPwpd7lkt/7L9S/LH/Wr/r4z/O7Vpjd/+OgCPgCDgCjsCsQMAV5qzIZk+kI+AIOAKOQL0IuMKsF0EP7wg4Ao6AIzArEMAc5niPGU91HOP0Vxrjjv1H6bP7Hu3+vtS5QrjUX6X4U4/JS7V043D+PTUQGOv8q1R+KsQ368pvBTwqFpLpHr5iAt1DBgHvYWbA8FdHwBFwBBwBR6AcAjWc9FNuNddE6dxy8cdJmyh+4niT76KeZRl/E25dDr9JxmvCcfAIR0RgxpbfcuV/RDTG0HGqxl9t/S/H/+wKX21qRyg45YAcIYg7TSEEPP8mLzMc+8nD3mN2BGpHYIQeZi2VuRa/lZg0HT5ampXCGf1KfJRzr5Z+JX/l6I+VfS3x1+J3rPhzOpODQKW8tvpRyd94c19v/PWGrzd90z3+evmfmeFHUJhVFphah3BsUUGV5N3bOCNQa/6NMzuzjrzXh1mX5Z7g6YtA9QpzsgVrtfFPugCqt2U1ToWpWvzGKXonO10QmOLlt6h+x/xaDznCu1z5L6IXhRurz6kSf1F6a8RvlocvU7rGqpQ4HUfAEXAEHAFHYGYgMMI+zGh/0Zjt14zoFuFo7vZMPFQdfxSuLH1zqOTf/E3VZzn+I/uq8Zuq6ZypfEX5NFOTWTZd5dIf2aflN7Ivomvu9kw8pOHjAJG/2Lnid7nwkf2UiT/iqyh95m7PxEPKf2Q/y8J7D7Mow93CEXAEHAFHwBEoRsAVZjEmbuMIOAKOgCPgCBQh4AqzCBK3cAQcAUfAEXAEihHAHGalsyctUOn7zBoqDWlb8PRZKUA5fkrHn5JNX0ZLPyUwoS9F15HWHHs5vGJC1eIXhxv5u/b8H5ne7HOtVF5nOiK1lt9CvIrrTzl6pct/Qzo3N1qcy8UX0ysdv0hheuJQlb9rjb9SfOXoGf+F4WvHvzB8sfyoLf5ifMY3vPcwixF3G0fAEXAEHAFHoAgBV5hFkLiFI+AIOAKOgCNQjIArzGJM3MYRcAQcAUfAEShCoPqTfpKgxWPORTTdYhIRsPwpnlsYG6aM/thQcyqOwMQi4OV3YvGOY5vu+HsPM85R/3YEHAFHwBFwBEogUHMPswQNt5oQBOIzHy1Sb/MYEv6cygjUV37rHzGpL/6pjOxE8FY//hPB5fjH4dJ2/DH2GBwBR8ARcARmAAJFPczpPsY8A/IkSULpFnG1+RP7q7aFGIebOXiOTUqqxbFcbLMH39Lltxwusf1occ7jW1/8MT/573rp1ttHmZj4y+M/cvx5/POIje3b5OJXb+xji4VTcwQcAUfAEXAEpigCRT3MKcqns2X36Y32PjpH0BGYTATqLL85O2gmSkNj4cExkWvms874M5Rm5Wvd+M8Q1LyHOUMy0pPhCDgCjoAjML4IoIcZj0mPrEPjFl25lsf4su3UyyFg+TNe+WL0Lf7xisfo+9MRIAJxuRstKrF0i6XfaOnO9HCOf8jhuPzM9Hz39DkCjoAj4Ag4AqNCwBXmqGDzQI6AI+AIOAKzDQFXmLMtxz29joAj4Ag4AqNCoFlyhcvMhqXcfWKBfpFrYfBRMTG7AkVtlOFqZ1HCMsHhCvfnDVn+xfkSf5cBvZK3WZ//lQAqg6tZ1xncyEy/Z7qxrxICSQmLvKXBo5TH+/6iYHnfCYGhCvVHrP7kQ47xW1ENGmP6lchVGX8EZN34J2xVGfsIiaifwgjEKzpF0ruif/fgCDgCjoAj4AjMSgRcYc7KbPdEOwKOgCPgCNSKgCvMWhFz/46AI+AIOAKzEgE/6WdWZrsn2hGYXgjEc5XTi/vpz63jH/LQe5jTvyx7ChwBR8ARcAQmAAHvYU4AyIVRVLsqtjCUfzkCjoAj4AhMLgLew5xc/D12R8ARcAQcgWmCQPNw0T5A06FxT8i+zb1cCs3d/Js/+zZ3s4+f5m7+zd2+zd3s46e5m39zt29zN/v4ae7m39zt29zNPn6au/k3d/s2d7P3pyPgCDgCjsB0QMCl93TIJefREXAEHAFHYNIR8DnMCc8C62laxN5mMST86Qg4Ao7AVEbApfVUzh3nzRFwBBwBR2DKIIAe5ljrzLgHNdFpne3xTzTeHp8j4Ag4ArMDgbHWlrMDNU+lI+AIOAKOwKxDwBXmrMtyT7Aj4Ag4Ao7AaBBwhTka1DyMI+AIOAKOwKxDAPswq71fLNzHWPm+ONPB5eYSo4vWiiAvx89UiT/mP05npfTHCS6X3tiffzsCjoAj4AhMJgIm3SeTB4/bEXAEHAFHwBGY8gi4wpzyWeQMOgKOgCPgCEwFBFxhToVccB4cAUfAEXAEpjwC43DSTzynN9EYzPb4Jxpvj88RcAQcgdmBgPcwZ0c+eyodAUfAEXAE6kQAPcy4RzbeOjSOL07BeMcfxxd/V+Iv9u/fjoAj4Ag4ArMBgcnWTrMBY0+jI+AIOAKOwAxAAPsw432FlfYFVqtjo55aQ/I9XCl8pfjrRX286dfLn4d3BBwBR8ARmIoIVNJeU5Fn58kRcAQcAUfAEZhwBJrFen4WdcUeoHkc5TOOLyYz3vHH8cXflfiL/U82vzE//u0IOAKOgCMwLgh4D3NcYHWijoAj4Ag4AjMNAVeYMy1HPT2OgCPgCDgC44KAK8xxgdWJOgKOgCPgCMw0BFxhzrQc9fQ4Ao6AI+AIjAsCrjDHBVYn6gg4Ao6AIzDTEGjO5eyeSUtavC/T7O05yn2Mw3E8Ri9+Voo/9j/G31XzafFOLr+NDdXiavwWPnNF+3AL3St9TXb8lfhz95ER8PwbGR93ndoITHT59R7m1C4Pzp0j4Ag4Ao7AFEHAFeYUyQhnwxFwBBwBR2BqI+AKc2rnj3PnCDgCjoAjMEUQcIU5RTLC2XAEHAFHwBGY2gi4wpza+ePcOQKOgCPgCEwRBFxhTpGMcDYcAUfAEXAEpjYCuEDazXRGoN5tIfWmfbLjr5f/2R7e82+2l4Dpnf6JLr8l7sOsDcCGOvcB1hab+3YEHAFHwBFwBCYHAe9hTg7uYxZr8QXgtZGut8Ez2fHXllr3HSPg+Rcj4t/TCYGJLr8+hzmdSofz6gg4Ao6AIzBpCLjCnDToPWJHwBFwBByB6YRADUOyOU1XY3R06nBDU5XpDeGLPVers8crfDFHtdlMNv/VniVbDr9qw5dDpdrw5eKf7uWn3vwvh2u19vXG7/lXHdLlym+9+Hv4+vCvt/xWGz5wWW1uVZcm9+UIOAKOgCPgCMxQBFxhztCM9WQ5Ao6AI+AIjC0CrjDHFk+n5gg4Ao6AIzBDESiaw8zPUZYbsy9EoiEXTWqmztWFF5ns8CnDo3yZXP4bpNwYfJX413kf5vjFXyX/k15+6s3/URa7NFh98Xv+1Yff5Muv2c3/+JXftIIVvHgPswAO/3AEHAFHwBFwBEoj4AqzNC5u6wg4Ao6AI+AIFCDgCrMADv9wBBwBR8ARcARKI9Ccn7Ms7SG1bQhzSg3DhTq23Ah6Gs5ekvAShTfnis/xCm90KzKQeCjiP55rK8QnJWvxFIVPfYz8Ml7hje7Iseddi/if5unPp2zkN8OpKP0jB0tdy4U3+9RjhZei+B3/CogFZ8O5CL+qQot4+ADUTMPP8rXKYlBGulcZ2r05Ao6AI+AIOAKzBAGskq2yhZoAUtyjrC18Ma6THb6Yo4m18fQX4l1rG26y8as3/sLUT/xXvfx7+MI8m23ld7rnf2HuVfoq2lZSKcCMcx/tEMNMAWK2p3+y89Hxn+wc8PhnMwI11r8ihdmQ9DjjnmROQsupcvspbnEkuVE1Y5MRvnKqQirK8FZQ4Mr48fQXoFT+Yzril03NaPif7eWvXvw8fB6B0ZS/fOjiEcfEbUrLr3r5r7b+SaIFs/HNuvfqwZqZcM329E92gXf8JzsHPP7ZjEAt9U+kOV39ZZhVaEnkooNlGuM50ArhLZr0Ga9SmujwKSOT9OLpLwR+ovPf8Z/d+E92/nv8k1v+CmOv+FWbeq1Izj04Ao6AI+AIOAIzE4HmhniystZ01tojiOlPePgp1kbw9MclorbvCccvYq/m+Gd7+asXPw9fgEDN5a8gNI7CrbM8Trvw9aW3vtAR9v7pCDgCjoAj4AjMVARcYc7UnPV0OQKOgCPgCIwpAq4wxxROJ+YIOAKOgCMwUxFozg1Hy17L3C9Ybq6z3inQiQd2aOKjnFIxzvb0T3ZmOP6TnQMe/2xGoL765z3M2Vx2PO2OgCPgCDgCVSPgCrNqqNyjI+AIOAKOwGxGwBXmbM59T7sj4Ag4Ao5A1Qi4wqwaKvfoCDgCjoAjMJsRcIU5m3Pf0+4IOAKOgCNQNQJFt5VUHXK2eYzPfLT013vShdGZ6s/Znv6pnj/OnyPgCIw7At7DHHeIPQJHwBFwBByBmYBA8/BwmfvTZkLq6kpDhMv023BaV+qL7sWbdemvEz4P7gg4AjMOAe9hzrgs9QQ5Ao6AI+AIjAcCPodZLao2h1c0Zxn1RGfqndyzPf3VlhP35wg4AjMWAe9hztis9YQ5Ao6AI+AIjCUCNfQw456UsVGtzp3u4S29/nQEHAFHwBGYjQhUq+1mIzaeZkfAEXAEHAFHIEXAFWYKhb84Ao6AI+AIOALlEXCFWR4bd3EEHAFHwBFwBFIEcB9muQ125eYc07DJy3QPX+X9aOm9oeXSa7hUSc+8T5fnbE//dMkn59MRcATGDQHvYY4btE7YEXAEHAFHYCYh4ApzJuWmp8URcAQcAUdg3BBwhTlu0DphR8ARcAQcgZmEQPUKkye92Gkvo0FguocfTZo9jCPgCDgCjsCMQaB6hTljkuwJcQQcAUfAEXAEakcAJ/3Eq2Fr1aHTPXztoHkIR8ARcAQcgdmHQK3acfYh5Cl2BBwBR8ARcASAQImzZOMeY4JT0S0d5fCb7uHLpcvtHQFHwBFwBGYzAt7DnM2572l3BBwBR8ARqBqB5qKVr1X3JJM44pWz0y181VBNsscYZ2OnVrwtnD8dAUdg4hDw+jtxWI9jTN7DHEdwnbQj4Ag4Ao7AzEGgxBzmyIlrjI5SzUmdOrfeHlLN4WN+y8y5jgzD+LuWa5GOf8x1xWDlI9dQFxkPPEoEHP9RAjdGwQz/4pG7MhFE8rSMr7LWE13P0vQlHE10/GWBmCCHWHtMULQejSPgCDgCjoAjML0QqLmHOb2SN5O4LdUT9vbOTMphT8tMRsDr70zIXZe40z0Xp+nQ7XSH3fl3BMYEAa+/YwLjRBFpHo4GoRvL3o8ZWIqH3Btii4nifNTxTJP7KlNg45Zpto1j4GfSVOOcbpT9FVGN5zDiAMZRyn7ioVw8lejF9Mf8e5IFVq1rACrhNe3wrzNDy5WrOsmWDV4t/iKWE+Nbfy2WsgzX6FB9+gLhuJ7XGN20856VvtOOeWfYEXAEHAFHwBGYKAR8DnOikK47HrZU2b4ZqcVadyROwBFwBMYFAa+/4wLrBBP1HuYEA15fdLGyrI8aQ3MIxn71U3MKjoAjUB6B2utvQ8PI+7MqDaGW58VdRoNAzT3MeMx6eOT8HA1PszpMX1+fsJI0oCbw19rSmtxDmrRtMEc5nMwz88lfLheew8M5hG2WpsZGpZEF0vKtVH6ZW6nWU61zREarVDzkZ6pX8I6ODunvH5De3l5hXjRqXiA/+MSvtRX5MYIZGsql+UNvDNPUVArZEYjU4TTd8a8j6aMKWq481lruLfKmpJyEOizSs7dXmpobpaUF9bKJ4rawLOSGhmVwaEgGBwZkKJeTOa3tWl4aGljPk7IEmuUMVXBTxrFWvk2WZEiM+GrlyzyVq+fmPtOeNSvMmQbAVEuPCtjmZlSwRmlGRdvX2xOxWFjhOjvmyuAgKtzgAH7BKyse6aiwH6Gy0Xe2AvB9tlWACFxVlkNDgyq05syZI+G9GYqyBfnRLPv29cZBCr47OtqRD4PpjwKSQon54WbmI8DywXLS2tqE+tconXM70KBF/YRSHBhg2SmsvwMDQ9rAbWIYNHT37etLG1xsaLEM0lg9ne31U8GYxD8NK9a8pWChVbkWV908lluNWOOqzrr5GC2BCeRfW5yDfRC6/VCc2fZjlvlQ8QbQMmUFbW6eg1+TVrbQ4wwC2hQn+pwaOK5wVhGNcuwet1grlQ+jV45OpfDGR9XPcvliBCqVryi84dnUBIHX2KQKM98gGdKegpEu9RwYGNR8aG6mgm2CkAytGAq/UkpzrFfJTjj+pUCYQLu4fNYadaXyGNMv599wZz6H8oL6OzQgA6jHHPGhQmxGmcqbUH85IjHEHuZgDoo1J3M7O6WRZQ8jRWYaGzG6kUjponplnpJnzG/kXPQZ9zDLpa8o4Cy1yOfKLAWg7mQ3JN26lFC+BclC3kiBzV8qmG0eA0/aaXizEznyyCNl4aL5smL5fngulDVrD00pF7wkimDz5s2yY8cO2bLladnx3A55euvT0r2nW/bs2SNDw6igwxhCzDVjqVDo5aDq5clo/PlPvtF1OOWVacmnh+7TzqRpKc15gwwWDBP39fWg0dGKofAOaWkdloMPXi2LmB8rV8qihYtkzZo1pQkltg8+9KDmw5antuC5SzZu3CR7dneLYOcPFXBWaebQAwk37E1zjEdEBI4V8qBc8AYMSUL9lHMW4teAMl5ro8MIqnLQP/n6F5d3rb8WIHma8gr1tz+pw6zrIu0Y0l+8aLGsWLFMFqK8rNhvqcyfP1+WLsVzwfyIUigTu3btkmef2S58/va3D8nTTz+N31ZpwBDunt19CIPykVTbTO1FjWa5aQQORWRHZeHKsjJszXELI7Ojr2ToqkGNK0lBPzZDOpmPy9iM/BrTHdl3sWulHoeFiOMpyT8VHiqMrlw1oZc8EU9jDkMq0oo5BrZLcmhx9srOndtkwcIumdPWJKv2XyInrl8rx6xbK+uOOUaF6apVq6Sjs0naWowRKLDk1Z55F74dU/C5pzsnGx/bKL+6d4M8+ugzcvMN98vmJ3bK7u49wvk5nZdDi5cmN8yhRwzd6ncQGqx8DVSvWgmRBipcpMUqZS7CJVt+SDVuAWtE+GNCpnQazNconkUE8+koRW0Iw6Vpa394QJ578glZunCetLe3C7E/8cSXyLp1x8qxx66Dv2FZsaoT+QFBGEbGlKRFac/CeNbmP+Fh9y6Rxx7dJffcs0EeQ778/Oc3y5NPbtEGTWvHfOnGkFyuMcyLcuhupDlSYjjp+FdZfwr5zCsk4t+CeeAGzLuzN9/T06PYt0A50K17717Zf/9VsmDBQpnb1ihLF7fKyhVL5ZCDD5H90IicN3eezJs3V7q6uuS7l10pX/v3y1G4An554IvfSsotlOVhYf0dRPkMdaKhwXqB+IadzkE2tWgvkVRZdpqgqKncFoC31YcukMOPPEhOPeVUOWLtWvC+v3R2tAhGYrXitiTKrBad1o321dZtz8rOXfvk/ns2y2Mbn5YN994rGx/fKNu2bYcM2QFMVko/ykNvLxp8GM3IQY6ybnegHJczWgeRZmJh9db44jes8/XUHBJiloMBpXIxzHz7huWHvZk4VW1KFrxSoSPBWsqL2lVZAdPw1dJNA0Qv1cZXVTwoRuUUJqJtgsLMdfdL/94eaWtrlSVLF8ghh+4vL3jhGXL2771IVq7qkI6uiL+Sn7VkkRZ7FP7Ql3zmWRHUMbnuhhvlqh9dI/fdd186rIiRIAippOeZmWOjcgy9TAoNCCNgZgozNA7yTFrFM5vJr1BWtY0jKhm+M69yGBZrkN17dur3grntcsLhh8nv/s5ZcvbZZ8t++82FMIYT2zeRwIDN6AxboKSV/NBeku0YCbjh+hvk+9dcK3fc/4g0tTJSYMz8wK9Jl3EYknF6Cr8nHP9R1R/yHPAfGMCiNgiRYcwTc969ra1NGwmrDzgQvfe1ctRRR2GU5Qg5bt0qLIARmQ/FQ0HPdjV0LJRtwBJtPfm3b1wtHznvS+i8UzuVN9ZYy/pQOcY63jQA61IKEzmC+KhAd+3Yqcp8HgoH5xRPOOEEeclLXiLrTz1aDlnbhp7gEIZRseYAdciKDePkezP+WE5m4y9+RwA1RgFDtAjJsHTBYIXs2Sty662/kB//+Md43irbwVdL52LE3yo8gKa3tx8NO2CheYS5cyWVLy/kCaVMY4nLjX0bVnHD16hUlxaNYkb+qVlhxiiUVaBFCqdKyCtVyCK6MUcVvivRt+BF8QT+rUAVV4OkIGYKaRNqdfPgPlm8YB4q2IvknHNeidboKggIkdY2QQs7EQAW5xg8+wb6tbXJFmcu14IKjnk0CBcqDSzUk7s3PC1XXH6F/PDKK+W5bbvQcobGhlIMc50cwg3KkZU1W2mmqsLksF2xMTtU7+FmJInfAAGNm8HhblmyZIG89OUvkte/+pVy3OEHyBx4Y8cCU06CzsSYmv4+rnRswG9IW/Xt7S2qFDUS5Mdt92ySS79/tfzg+z+S57bvlebGudDXFHrU2jDRkH08vGmCLniegL9l6k++XsQ8UMQCfzYsG/vRQ+uX3Tu3S9eCNjnssEPkxS9+kZx4/Aly/HHrZCFGLNHhFk7bM/UMyTrCkWu25/jDdJ4adKbky1/7jlxw0bdHVJjGV7GcSvhqCorKypEOmaPu0z+Hg5tbwVCuT46EIj/zjDOV37Vru6QDdVhVLfyRguYDNDrnK2mMT/ZX+Us1Kd9LmsDHYD9WZoNGIxb8EYV9hA0E+GPSn9sDfFBGNz25Ve6++x65+pqfym23/lI2P/msHLL6COndB085CBeUH62zUfmhwmTaKB9orI5bOTK8zF494Y/VKPu2Z0itfc38pyvMcnlcjcJU4WFFhkKBQ5kUzCxeOVSUfvmjN75S3nDOK2TdCavQqoaT1h72JPqxjBzDg40QDZiHaUhqGCtsdp6rHHsj2UM0Sz9a7wMDWKaOFjzqoFaeVgwrdu8dlvmdDfL45ufkP779P3LV92+Wp59C8xXiga1pLIDXyjaIShsqTUjL9FGY+aod5p+YP8wbSp5e+eM/faP8PpTluqMPlN7+QZnfmigm+KLu1WnFkcAdhRsGH3X4kVsHOMfV389hQAhStJp29PRjCK9dNm3ulm//x6Xy9X/9LnpU7RCO7RRtYGgQ+ZBP0zAnQyfT1KAwrWY0sDsIZSkN2GLR0iuvfMXvyute/0o5+hjM17dxfl2bM2nHPtGJBansH0CZBn5cjEWlxIVxX//3S+W8C7+Jufq5BX6zH6YASitMsKQVkhww87G6vBG9RZ075UrzXjn9tHXy1re9Uc444yQoReQZ6i9GjlVpgXVVmuz5DmLxDhfttOrWEZBKEs/qrlW+VKKyjKraJRtcBDQoAzmUGW5RkjZg1qrxsaTu2NsnrZgfoLjAYAnSLnLLrXfJZZdeLT/9yc+lvxeafBgKE0qTc5y5xkHU/VB+QiMgvLvCLAC/6o+GlYeWHpLNC0ijFYC2L3uWmhRXt0wlD34tvFUjoxA9y1TI1FcR3dSlupdK9I1KEo9VOK1Q5mZPtOIaclwJOaBzkoPDWDaOIZ5FS7rkFa88W970ulfJ0Yd2iTZiWWHwo/AM4gG1DmY4x8kx0GHzOWPi74zTiK9EOcxGoIdJgVvCWExsY264Z6v8139cJpdd9kPwgrnTOQtk1+5eaZnTKXv37UPlZHW3vKMgYKi8GUpaqmZTOkZzRfjC4GkLN++jtjfrGVioHFYW62rDuRCiED57d+/GIox58pa3niNvfPOr5KDVbRlUIByLmv6VUmAxVfNkYpnPzPOQL/n8oQ3b++gBU1WwXMLxvg3Pyf9894fyvf+5Uhdt5dC12IN5Pc7ZUdEWKUzrypAcTIxvsAX5JNNjd7M3fxWfUf2J6bWg+8NtNQ0oF63oJfXu2yXdu5/DHOQKec05vyevff3vy/IV82XRfDYI0BjAPxo0GZOoVb3g3b4LCwzUmOYfG4VUmB/9+P8rUJgxPwlR7VXZO5+hGAf8+/pQztFOHBzqwXD9Njn00IPkrLNOlbe99bVy2skHpcGsFrBhZbiZXeopebFsIT+MK63elqw4gOIAj9C+7O2xkcRFTWkdTghw0Be+Muhg5TbQw1Qmpls2yn9+6wdyx233yBObt0kr5nt6kBeU5ZQnqcKkhoehPVVy1hh+lj5zK5tO8zBLnq4wy2V0FQqTjYXefWgNYul4e0cT5leG5LiTj5T3/v075ZTjVmmhZqswVZgqILIKE724HCfpx1ZhshKYIMonL9TUwvraIGi46zzL7bdvlk9d8Fn55R33QSl2YAioQ1u4TdhPppI8ITSVFSYFwiB67vug6CkgGrCo51UvfaF84APvkuXLO7V3Tz0ajPXUsoiMpbK0eJjfIS7mCQVPYd5wcRgVZuhpYdABm9gFQu8xueAzl8g99z+GAYg5EKJQ/pgLn6urSSAATSKDHmly6wGNCTz9yPwxARi7m33G68ivFRQmhT3zYQgTsrmhfbJsQbOcdtoJ8td/9RdY8b0fGmBGnoIauHDYhSbVKNUozEaEDD3MoDDzCwHi9JE0+YlNsGuUhYuXYGHWdvReu1GPd8vpZ5wsf/C2N8jvvuRk4YKddlZghie8Rid58kHuizsXiDMpVuSHcaXJS+wRLDKkhl8VCpMBSQbSA//Y6IP8oGViNvzqWfmXL35Nbrj5DukdnqOLytgzb8Fv397uAjzY8MiWAcMva0eyrjADuE3zFq07N7wW/o0By5eWQn/5ae5C++KaywJBk83aYFP4t4K75WhhoBq+KtA3ShoP27PmP/CvhR9+gi2GN7s6sJBkCD2AZvnYee+XD//D/4Zw7pI9g3ukqxGCDn5VDBsZtaFt4qJzVcV79EbbwzTKIVZGWvgL6TE7QS8S208GG2TN6kXyspedDd/N8uBDD0gPtld0YjUih74KDWMIYp9pGCZOilVIYPhbGCL7VeReZJH1Xfmd7W3LE/pugqRqwUrGFfstlws++TH54AdfiyHPVqQF88ZcMJIa5gp/ZMB+qeMYvjAOKgH8OPTOvhSf6Y9bI/hDzoANLHjUueaDDloor3rV2RB282TD3b+WvVg62YUVokwvuWXPmE/WUz75xWdZkzgW+SmyKEshcSgMYF+GJIdL92BF9jwsLT587UHyyfPeK//3b14ny5ajLGEynT1P8h40CkIxAaqEiQ+pGCU8VcswBv5Y7vg3pJ9Nj7s3PCA3/uxuNCbmqA/6yptQRhsTQWZlxKgFf8NYKLNHevt2Yf9jg5z/yX+Q93/gT+XwI1ZiaBVDo4N78UShseIePUlLe2mZiO3VFKTFp0O05phnsvgtJBNJZt1ibhMX9qpDDlMRk0xAivZUm2woQnmjoUW3efPa5ZzXnyEHHnSo3HnPb7Dob7fGo7ijx2lYKPR0yfCVvqYvGlTjCG+FfyNvhY4z8MsVZrlMVSXAysniGEoxCxoNnVhQGjC/9MRTD8mLfvc0+cK/XCinnnqIyoF9qGgLmzukJ7dbWhuwii4JxxcOITag9xoKGodcWkAdlUIrRxCHKhLggcFqKZCFqq0wJL8KbWAB09mCAw9wqtAAan4npj7OPGOdHHPMern33rtk6zNb0XNBE1sDM9HkiFIjbxJ5BItAvVQced/mK2MzYgDGpW14PC1eCA6sPlYFo4KEtMgb3Bvot19e+tIXy0UXf0JOPmlZmOtpxEIKnVuqFVHLecZR2VhSGAtNiI22I/80nGKLDT1IBnSO9obnID/+12lr5ch1p8iGDb/ENoNtcCNVlJBEmRj+FRtYCXPJg+wFU2RhDuWe+QBpuYZXbkWSBpw2hV5lI+bNXnPOy+Szn/0AlOZSnfcb6MH8JYp5Xx+mLaA09Zg4ktLuGV5Mo6SaJh9P4ITf+eYCS8PdG34jP7vxbsSc2fOjnukaTAOZxE/rcfKu5Zh24Le/f4e8/OVnyhc+/yk54cQ1goXTYK8Pw7z7pA0Nr0Y2aA1kI6plknQDTyTLbFFFFKILOY53Bh2idoPBpyo6/Sj6QwT5w/wsh2Ixt8qmBderhViSJz74nZBUKiwz/Vgh24sVP+2d2EM8ByNHWD21ds3+8rJX/D62MO3F1qaH5MlNG6ULByMoAfwhHYPf2KGdmvQlfJL3UibyVsrLjLIrqzCDUA8FjYWtLGBRIbTCWIwSoa0C3nL0zL6YcG02RseeEU9qrZwmlUypsxiH7442VE4MN/Xuw5F1DT3yzve+XT76j++W5fu1oWB2SyfWwrdDyVAVtuG0Dq2oeFeBz8UPFOwEE6U8B8E/1Ngm+9Ay5NAP9yjr/kvARC/80Q1rd9IfaworoaG5B+N3Q1iowJ4L5JFWJLYk+Q4XvLENGgyfFs6ejINVh8vfafoQ32GHLJQXYqvFk5s3yUMPP479m/Nkb083hgR3YxsAhZNxF1rBGjDBM1RDtSn5J4km71ZkQawS+lxABWXHBTsmKqkoKcS0p4aUQfai54jhTAyLN8DvX/7fP5D3vf9PkB9IP5rd7a1IP1dHGM0iBUxWkA40ZPSHId3BgX1Yzcl05gRUdaceYNEn975xyQ524+hwdi9b9vSZpIPfBJwjefmkgTZ66v08m1ZP/IGj8gPPukgM+QQhOUylgUBMEw2nmrqxyvbYtfNl/enr5ZFHfiNbntwMZdOC8teHvOiEYAdGadrY9NJ+RJGMJy95fkg9MSUtzTH/TOsF8DdaLE/bt23DgQ7zUT52yK49T+OwjWZ5/4feIX/zzrdIW/uwtCcbEZuwRJsn2LRgW0YTTkAitkqIRDL8awvHlCZcuPiF2LAcMwD/7cXWlDZgcOud98rNN98D+xbYhvqpkkobTwAPTIf6hycbU7Dv2deN9QZYqQwaC7pa5IPg9X3v/RNZtWwO8hTNV1SEFtTbFuztJJZBniX5hHomXKfQQtp90t+9G2WlSRf6ULH17O3HvC3qIQDSla14sqxk6+sOFOd9IGO/HmRfH8hh+YCaAYShG6dKOBuCtqw2oNiztN4l8wIJSw3tW+B5DmSPxcUTh9jwmg/9ePaLj8cc8oFy9523Y0vTdtQVMIsRjn4eywd/hlPAKiGcoc+IGGUpE3mDl0z9NSZ15IA+8VPmS1Eyu6kdvuwcpgp2SwOeTEYpA7int9HMzCchzU9WusRw1Zy2oIHCMBaVzIGAnj9/npx/wYfllDPWojBh0QDG+7CeTUMETBiePwo0M2g99uIoO+5d0A1l2FuFCoQpKsFuEPnNA8/Iww8/LM9s3SqPb9okzzyzTbY+jY2UKiwCjRwEbwdaiVwEwnnTo445EAcgLMX80Bo5YOUqWTyvQ4dnGDPlLysTuUrqYyCCv5ZvcUVgOPrl8A4PqDn3E1+W//7eldKMysjl7lzQkTVhUYJRA90Iz6xfvqf4Jg6s4IWGHCRGFSbP0gX+Os8HHnIcV4XC5DfMru7nkDf9OIlngXzuEvQSTlqNhkifdM1jfjDXOMdDk6Gr38GWK4mZH8SKhttAWqFke9AjugvDWU9hAdSWrTtk46OPIi9wAgvyhsZGGwaARydWvs6f1yWdnR166MH+yIfDcSLQgSvnYxg1YKnzytxagnLFw7jZ88ku4IGYViGm+QFWqTPQnpK+HHpmyMQBSNS9u4fl4s98GatpLweO7RDu7ZhnxuBkBsPQbELYjJ0yXOZPMf6lPab5luRvAhfOSm3HkOZuzBvvkv0PXCSXfOGTcuy61doA4wK3NqbLTCLobQuDWQdeQ/6okqJgLWEYfE8v1o224RB8vH/+Xy/FsPvXgFtbkrvsmRUGZHlk/aU84+gOz3jdsWM79nkeLRdceC7yawnyn0OaQ1DCPDUomJA+xsjybrZ8wmWYK35Z/tIJWfVGa253efrZnXpIxVPPbpO7HnhQnsNw+jY0LHbv3onGkOYwwgbTjIYET5BasXIFTpRaJEcdeZQccsgh+J6PhrfIIuwwyoEulZ+2whjMSERpDRTjv/SMGoL6/PAj2+Rv3/UhyJlN0t62AGWxRfZh6oWY5UcoQspJJVs2DIGYet63uWR9wjWWBxm5aiEKn1M7vCvMKENTwZDmIodltMjhD0ru8F5ZilWwX/3K5+WY4/dTcYAGoSqZ3eh1zm3HghmG1XLKyoYWqRpWMFZzuKJMsBJAd8r1N23B7za58cYbdbHKE088gSXk3D8ZhkqHMMQV9uKBJCobe0E8XH0Y3Y8cVogMwL0dy8ypQOdi3ugc7C089NBD5X/9r1MEp7lp74f8UAlm65fyCLu47nHPpvbaEjlH97e/40K55ic/hgNbrXSw0Hjqsnz7hkuEJzwXmBjfbKUMHjMVRntfAAqANejQGPJCFSUUThLPABZrLFzcLl/58iVy/AnLtB1CChjNhBpF4wS8srdfwHMBEnCC4VQt2kJy+eU3ya23/ELuuP0X0otl/Y/gyMEmHDrRjj05PKGGw140pjA1T9gVTBZr8JaTuaZAkS9vedPr5bC1B8ppzztBFi8GT2BlCJnf1MymRhiGI29cuJFmBsgxr6gwsb0f3Pdh0LEzlZd/8VeflKuv+il6SzkMwS3UfFGm8Cdsk0DYbGabY4lnMf4lPJGuFZQE95DjUP4tWNwDpb50aZf8y79chBOS9lO0ORqxABPHhctRAm3qryx/MQ/cKsFhRv42P75DdmB/6pNPPS3P4QjIJ598Urbh4Icc8uauDffJlie2If3JnkPwlqcLDvHNBhZ5ZaOqEb+mlgFZf8qx8o8f+5AcekhHWi+YvO7ePkxLcGTBSgttwUTW8JPdRzDZj7ZcC3rQz4GF2267V2655Rb51T336HwzTwLahVOMGlEGOCrBrSI8YzZ7khPLDm8roTGFRcXNM2dXovIehl7hy1/8Qjn5BB7msBANE5Rr9BiDwWpwvDSqTDG74ucgQGxWbYuyh7r95JZB+aePf0auueZ6xa0FW5tySQYEHpKcRfmxfIkQKIgk+M5aZX2HPMi6xh2xAjf9mNrhXWEmAsAyLhUMasEMp8hlDxMVDkOw+++/QD7+iQ/JKTjSDnUBtkEN7sVQHoXonOZQQQM9KsxQsIMIByUoyV/cvlF++INrUck2yD0PbIYADQqSR9dxhaduXGYhV4UBhYunVaienr0quDugmKlUeRxWuB1jALSHpA+3JbBSrlq1Ulf8/Z+/eqMcfOhCFRp5pcnZkWA4aEVj8nUnelTz2tFXhmdWMCRHdoHnT57/b/L/vvktYIBEU3kpBfJIqkYNbxGepJ01hfjmK2XeT7bC4D3pGTCOoKSgZqhJaIDL6oP3k4s/d4Ecc1QXMMIiJsCFPfFpvqDvHvwqj+Q1bxgT5C7yY6v88IdXye1Qkg89+KiuUm3GYo/mRNhxa4dd20S8aUxhUsAxH9hQ4nM3trHwMO2BPmwBgQbmquI2HFZwwIH7yZm/c5L88Z+8SVYeMB9+cLA+h8MSRUnejSbp26jk3v692CSPK5/AP0sTh4I55PepC/5dvvKlf4fHedCzbIiZyedFYc/B3AufJhQLbYu/0nxL8ldjQQMyN7wHBxCskos/+2ksllmsIxpsrLARuRfbNbrmZHphJAv+rZOl+CMteSUnmGvbKg889DDy4nbkBY54/OVvUb4bMVXA23gGcfRbp5Z/bnniAfccrlWT8JWnxfICt6zCRP19wYtOlXe9+y/k2COXapln/WVp7kee8Vq3TpR9sJQp0WBYDW3Rw8W8ybyuOYKRXbn9tl/LVVfdIrf+/E4Mlz+i+d+ORoLeTgLliJ2UWoaotNjIpT1P5Mma9vYuPUWIW4ZsgR3LEc0AGmcd6BF3YE7ylFOPk9e/4RVy0vojZdlS8sjxCaJM7lEM8CMSxDRruMWK85mDqDM4Ah74iTzznMjFF39VvvCFf5V5nUuh9HGjStJaixtcLB8xzSz9BP2MVdY3XGN5MN17mKsOKb0PM5yOkschv/m1GKK8r2n4FmVoKhiSpLS1YAMwhtL27NkqBx24TL7zna/hTMsWzFVyfhFzHpxkgDFUqPA6cZ5jDxY38C7LQWxtaOOYK8x9v31WPnX+JfLbh56QTY8/A4HZjoYqJvet0quv8McUpCpNWNm3FejUa4Z/Fbjs7cBovYRA6+jsRc/rCHn7H71FzjrzeJ0jHYBw4BJzVjgbwjN6bP3zxwo4xD/QMftAkkO7H/7oF+VrX/sW3OZgWGwuhm15PyTFY9YYElm7/HuMb7HAzlY48JHIK00bKtvcjjZ5Dj2MBuTJ/gcsk4svOU9OXr+/9vSpGi328ByS7duflv0Wr4LA7ZU5yMvUIJp77t2D8N+SX/9mozz66MPacWjjbnSt1GEfHA9iN6HEXj0NN31TgWYN17/acBuf5Ft7n/RPVYdN8Dw4YeGCFjnx5KPkD9/+Rjnt1BMFBzFJH+Qe56s42o11JmosHRpWbYJDLya3uIWE/t///ovlW9+6Grx0ID/aEJ4CNISMcTU5beUoxAIeC5Nh1kVPywcOX7PRMAdle9furXLU0Suw4O3TcuTh+0HpgH/wRUOBTk7Yw7S0qExGfDmkYQBz73Pag6J/Bp32DXc/jEYL9p9eemkSEv7QkJTcXMz/ZoZ1dWGXRqF/UoWZWGUbHcRCpz+Qb5zfPvPM9fLlr/y9NkZYntWwbONn2WnPxFX6cOoHRxeYR9zyswcLTq/CkYaXX3qV3HHHBswxoqGG+h3OY05IJrQpMw13DsVb+bBDA7ThmYycWHzmh986MoI5U/aM7eCH5Ti+8S1/8Bp521teh8Pc5ym2RIe1BnpRG7ohLP+yDIYnskENh2bRftOpoM9e9E35+tcv00ZAZxfWKXSjcYbrAmnyfAfaalniD1c9F5ps/UXOZ+ST+tO6VRii8Gtqh2/qWrju3EKGky+rIcmnbh/Ae6VFHSVpTWlLqzmByYIvZO6uXc9gvF+w7LxZvvDFi9GaXgBlE1rQVI7tc7jKlbgEM4fnVsFwhooHSjdjAdBzEAj/ddm18pGPni+/+MV9smMnepHNOEOzDXcnshayEGV/CB8qrlEG6lSq3IqgVYRSiWKIP8YcflyGzguk2eujYiUN9qAef+xxueWmW+XRx56QRdh3dsCqpQiDigDNyDv7zLCoarYjWlJkWediIEwboec2LM8//RT5zW8ew7DYU5i3W4D9a3vQqs4oISXEkOVNkWuRBdNshkOvIa3qDRj1cKgPgmIV0vDlr/yzHHv8Ul0jyZ4CeWea8ylqkK7ksF72pLnlgYs0qZT+7avXyQf+4Ty59/5N8txuLPKBMm3B0CsxYFkPioSU7EcH/JIH7xrNGg6vFhh+ws8w8mGYowW6CqQJAnhAHsUNJjf//HbZtGkrDrnYXw5c0aWxoCRo75F0wpw5d8nRkAe+YaYT3Ut2THshHdcde6w88uCTGGbbhvnTTj3QPVxSnLIKFgJfphjtm1TVRGybdfw0b7yGijQG0CMCXOipfFjWn3yo9nVYlDTZCGx4mLyw8PTA8OyFN6IiXXnDb3Baz1fk0xddIg9igdkgh1ehZvU3jLrFfYRotekWC+LJ9+THhV/EmAvBLGbmXRoXfLajAbT1mU3yvFOPl09feC72sQavCKaKMqCqZNIkG1YsC4YnFqHKD666CXusz5Wrr75J5wEbeYwhRhZ0lAV5zHGoIWjiHIjnWIY0sSxLpKQlC0/aM1aLmfKCZTyfBntXX9TmWFE0DLrDeO/BkP+Pf/JTuez7V+KQhW5ZvXq1NKOx1IZCwXLBEV6jDKJ5k4DChha2juOe3T4548wTZevWXhxe8hvg1IbV8uAlSTwfhgPplTMJ2Yxz1jddIx+spCOarPvUC980b/HR5wZJA0ZZ2AylKGEzVmEynZlfmn5mKpadS8MezDf1yZe//Dl53mkonChwHBKjImmjssQzm63sWbLItuoNAiK/vHer/ON5X8Twx9exLYBL68NRV60YdmmAEB3A0Jx23xIi3F+mFQ2Fn89QcCmJuIqSPNGOlbD4R3EyjCX9w2iFhx+HdXKyYN5S6eneJ3fd9Su56cYbMNHfK8cdfyzSQuXKeEIa+GSDkXCoPSr6PszBzsO85QASvBAC8tiTz8Let1vk2Wd3QGhiQX8yfIQQiSGT5U2Ra5EFIzdDYUiBQvFLxjDkjAu1Oad3wSexbeQU7JcDNDz/ht1i3i3YQuUEo1kK2gNDe+DKHjWHr3EG56Zd8o4/+7B88xvfgfAZlDkLIEGRrgbcTELkFXMVyDyBh4KaOOcx5WpL3SyuDRy86wplNO0p1NSNNPgefkMQcjn8KOwo9HsxKtE5bzEO0+6TX911n9x808/AV06OO/GYoFOVe3Jip+AQIFsjyjOBqIJyCP+MHLBsMRoMZ8nPrr8N59A+h14bb58B3xlMTUGanX1rNPyT8ZvaZV7YSyL2pvh49ypXVnbv3iMf/ejfy+tedwrQ5cYOKAv8C4rSfBvfmWgQX093j85F/g0WoHz681+XBx99AoIeCoctNN27HE4/otLk6AtVjW0PydZVllyNT/desHzwF5jng4PY/f3b5YzTj5cLPvUxOWh/rqYNXpAdavggNsia4IAn46OhWx/K1AO/3Sj/dN5F8u3/vFyefgYHHAzgqLrW+WhktYd8RRngPx2FI2EtG3yyXPQh/wcQR6iTREkXe9FNKxqVJYyGSRRrUnYE4RiedZo6lVgQp7nzl8kz2/bInXduwFz2FbIKV4kdgUV/oJgaSw+TRcNvvnfj8ItOrBJuRHnvQIPl+JOOl0c27pT77r8ftygt1KFvKytZLIlFKWP0825Zn3SNfGia876L36Z2eGwrOebcLNOpwogSNmMVZjbxeE/TT3sU1s7Ofvn0BR+Rl599ki5CYO+SWcrRL47QUT5ni0QDepStXG0Ht6t+dLu8673/hEOSH4JyGQatBdrjo1sfWugc7mmg9sX/0IIm7SCytUepeUDqsNNI8s/ABTnJ/4LwDt9pCxct9mH0Omk7gDmUp55+Ru745V1yyx13ykknnoZj49BChgmx6Cv8J9+In/v+eD0ZdwewOi/vasSVZGfKFZddCqwgTLnitwABxqTMBmLR3yKXIguGTwx71DokSrGI2KG4GpEn537sg/LqV5+EVjLkCJUd5oqGMDnMs3k51EybgBeX5aOBgtWAWPEv3//BjfLOd34A151t0wUzbXNx2jea3DwdqBejBRwxYEMGuYqfCTIIKwhkVdhJ3mgekW/NH/DbxZD4AABAAElEQVSLZ0gG32FPtGHHPNDpVvVHezjqKAFb8q0oE0OydctTcucv7tThvZPXPw+9Z85PkYiJP/LB9NOOKFAdY64cQq8Z6VqySJCPL5BL/wf5AZ7Zu4GETXo4CJkAYUKwVoXJeh9i5l+Ue7Q6hgd7cRbs7+MEpdfq9gcOd2KJGha3QGGymwljKjO8q5WWQebuZZdfJ+95z4fkkcefxZFuczAMuABD7V3aqMnhEI2CQx2CSkwIkHbCjRbSRGEm+A5jvk57nYkf7C7GiNAS3WO59uB52mBigzekJMNTIJnyR3xpxednP/d1LBC6EAvB7sYQ8kL8FiCNHP4Gda6Qg+IJypDPkP+hkcXv0GjS8hCiU7rEIBikxyqbKUzOh2hZx1PtEAc4C00Prt7GdhaMD7e0dGLKp112PbdTrrnqR+glPiinnX4WFgCibIF5zQU8mY5QPkOKBof6oBQh13CrCY/T47aT55+xXh575EmMQD2MqFi6yZaGZGg1eZ7NJjwLfdEu65OukY+0LoTwxX+ndvgihUlw9RelhBUgWwki52n4yYLJzMn+IJBQYHlTOodL+7C37E//9znyl3/2es32fmhJ7qPj+D7XulA29GFobACTfXOg+Fg0ODfCIY/PfeE72J/5GexdxIASBNsczPXx1gpeIswD11swB8RFCyrgWDgZWH98h3hGPqiwIkGVEyFftBxbHsVPpgbe+aNRJYzwOOYdm6FR6bC3sGnOXKzUbJOHNz4rl176Yzl09Xo5HIuCOP/ExgCV0jBXAyMclTarKtvEXDJANvhbgUUHuf5urAr8GSw64J8nGgWeQ9SFmCIImNFE0Jd+pn8SXu2bcyK00h+VPRZtULE0Y1Xpzh1bsGDjz+Sv3/EK6cPql7nYXkAVQr8twLUVecNYBrBqsxWY05WxcUj8os99T8674POYd6YYRR5AYAwCTC6IoIxqYngc4pDGrXQBSoKxxgNHFSd8Ek+mGu/5PCFezKeQAOLH14AbeaPYQ6+Vc2rw1oL8nwcBPAwlunHjE3LF96/A4RfPkwNWLEQZGkQaB5GmMP/NdPAXVCfUAtIXvtGIWY4tJ90N8rObb0G5wqITxDGE06dUFoM55p4xpbziKzVksMAU1gulwViRf4yb+X7gAQvl/I+9WxYvxSlXGKTgCl+GojLm4iT6MzOI/GxRHpAvsH7v312COc//xJ7NZmnrWA7Fg0KH+pLDaMUw5jabkedNiCv80GDCdpom4NOE+Ux9YsSBbsSRfy0qzWnYD2DImKMkTRgVaWkeks9e9BGsMN0fxQ97jVlnLUPwZD2GjsW0CVnIoffFS9cbcWBBk2zeMix//ucfQp7cgJXR2OPYthCLwZq1vnNxDut/k+4xZfljisPPcNYn4wKfoQQgLewx81unTTi6wx/TAI/0qz8wb1YsY3AL6xZAn7xhAVgr6nELWoq8q3ZO4wJQ7MKioy1YX3GpHL3ueMztY5oCNPAfacQ+VpR4XpTOplYLKrnKHdRqNqYaAAJ0vpyEnuZNP7teePE5+WLDX7eMJTIgzyBLXd5oEvOfeMu6W6IyHljwRzRZ96kXvlhhjpiYmeSYzRhLFxYjYENk51xsCMcKx+OPP1w++HfvwEKNsNKPqxrZwmfIIFagTFDg5rY26GbjPlR8Lv3+4D/8s3zjm9+FUOCKVfbgOJ+YiJGkhFlL35SbcaBPKyd4stCHQshYKaQLv7Nu4T3xgQd7OFy4Q+HOg5x1cRGGvBoxLMyzYvuwLeHuX96N1uZ+mA/DwhgoIR6YzYpF5a7tdUgGE4Gs+jQ5NBwOX7Ma87F3ypNPY8iTpxlppTf+gr/wN/ATKhz/RribcxKk0B2bq7GrewE2Mzbg9JXjsHjpwx99D3rq8IxD7vtxWHZYMh8UJ0lwo3tbYyd4x+XE/Y24DaRB3vf3X5H/+s7l6JHyuiYMo6kQYDqzJiAd8iVgra6s4PgV8hXCMe+SXE0IMVw2QSwr9h2eHMHgG388tq0FeUHhxP14PVgVee11P5Ely5bL6tUHYV6pPcn/hHxEXSlCO/RhfvmwNUfL7Xf8SrZiD2AOyiGnQ8SMh4I6b5hNBSb+jlBhGpl2Pb6PQ5w9O+X97/tLbFs6Aj3D/L5FkgkpK6COhksDBtCxneGZPnn3e89HPlwJJdWOsMuwPqAXSizwx7DhH78z/9BFD5gRaf4LiAeelDnYBcMVyUPo9TWhzO7DavK/fdc75LWvPg2KM+Qfsl2BN/+0RZXWXjKV+lxuHYKyvBNXrv3Fn78Xw5SPoFyz/uJAACwryzc8QEZpIb+Z5WVNQCXUYgbAD0ov/53nJBAiseyPhAONMPKF9CeJ0MYCGhK8lYQ93iYoUK4kvu6G62Ru13w58dg1kEngmtFpTTZa+SelmY5mw2rxUm5NWyo/vvY6TNlgCBm8zmnD6lm2KApMYYItBXkvWXdLf96VdWlkk3WfeuGbOhcfda71ZkKruRiCkRM4XV2ZTsucoP4459A1fy4mwp/Es13OP+/DcvzRy/VUH+6NpEl8JiFxnBx6lj2w7ETZ5Skv73vfpzFc+UOtUXMx5DeEoRsWelOQVrvtmxzw3X6MI2sKBbJSyjqXeE/yDw/SjgW22sCNKy25gKRn5y656eafoZItxHVLa7D6kaIoDOmxcGvFBB1STShDWMAWv+UrDpQfXYsrhdgR04pJgUYT0qwhVEBYSNoY5uoxTzT9zLpDiGGVxnPbt2Kf31y58KJ/kiPXtEs3FH0XFMwcKH8eTBBSGeLkUYS0QZ8E22Ia5K/feYH88KprdStCJ2hxsUkweZ6y35YviSflN/BsfGXSxtTiP5VK+mOIzHc+gbCkgaO27JnnwJD7aokdr5XiAQXcVH/lVVdii8aRcsQRB5O8mvhJS9qRVrPmmciyFQfJT667jh02oMx0MvcKSxC8F5r4O8ofDisy/Rxn4FFypz/vOPngB96B+yxD88nEaZYMkbJ6QrSegrL8xCculO9+F/NtKw+GkpyDBUpYTY49Djnus9KhR4ZiPSB7fA/fpZ/mhyESZZg0ahrZUMDpR+vWHSEXXfiXegtJE8sx8SbVDKMMyW06XI8ALnAogsj1N/5C/u69H8ahIbvReEZe2ZRDBFxaTsjmBBiWjTROxBdSw7KmqcKTvV7M7vf3Yl7zSoyetMqZp58Af2wYshFiUyfMkcA0Q7LsNVLxQhYceOAB8sQTz+KquS0YNcNBDjxJiqsGC0xhgjNwJr6y7hpDQehprzDnctFPxoSMyFjM6NdQ2LQAsdKimu/r3Y3i1Cd/+Edvlje84UytSbz1ogX3//COSRVy8GlFjmKDcwFcdv637/oErma6ApvJ56MA46gtrihEgQ2CICla9kgqYLZ4wWORKRR3VlGKvGUsLILAoylMbaEmTuaZnC3AiUW7dz6HcznvxtDeCjniyNVolZoYYuhQIqyfMoj9hY1ohbNHdMgh+8vP7/i1PLppMwQSfCBNw+gRDENJcpiRz0jOgFqU4gxPofGZcUee7NmDW+WxOf7P/vwP5M2vPVZZb4OC2IuLuVsx7BYUpuGCIS4YLu7hFo13v+dc+e//uUbmzceJATBc2cn8C618tcr8CYxkhVJwBD/KGN3JW4ZhfhV+Frnn/SceIbEtDn2ih0ghr40TsNaFA+/ZqL/l57eiQXKQHHnEQaBZRCWx4w0mezCKgW0+GLk9dO0SufGWezFHuwlSkLnL0QGGzTNZxG/eSWlayU4+UI5RBqg0ObSH4+A+8qF3y9FoRHIYmz3iJjQkYxKME86p0nzPe85HPlyBAz9W6fFxbZgW6MYKzzb0oHn4RipENS7GbBSJN/GnFd9pEju+ap1N7LiIBjHOaUOamwblMxedj+PgMDIBW+gCNRyCpTFKxKW7e1DmYvwS+hv7KjfIO//mvViUxL2LWBSDBi/rsDKQAGfbPnTLEPLO8lIJj+MfKvysCXlKO9Q15o86DusivE4c0n/zjbdA2bXgLOJjVV2GRCNnjA4VLCw1HEfOAA6n75/3/NMwynErVvLvggLGCIIerJCN29AL3GRdgk3Wna6RjzQfg+/iv1M7fFOtCjN78HUQwtkEFid/6tuEDA1zVAM4au1ZOWbdGsx5nat1dB52TbRiooapbOD4DQzfQ6o5MwBBDAH9SRzR9Y1v/BeOzFuMaouVKFAYDZxHQxMuW6l4LVP2m0KNStV+LGD2Hp6F+IaKQi7KmaSA4sGQ5Fh7GXhB1PjhC5XGWtw5KBFuhRlCxfjZ9T+TtYcdJQfi7kL2PtlabdEWNrhK2LBl9mBSzdEnnCb/8V+49Bg0hzjHy00enHvUFi2bE2EQm8GVnyRcCM3U5n+0a6QQMjsIAp7ks2bNKtwk8V7tM2HaT+k0Y86Rw65mdEUrQlJl7tw1LOd9/CL53veulvZ5S+APiVflTX6MASLD9yRhiX1h3sBZ3eFPAQh5Rz/2y4enX3hL8tvcNQ/Vf3Bje59huPCLQpffOSyWYc+X580OYk6VvQH2bn7y4xtwzNwpEPxLFE3Kbgp/CjosVdJnq96XxdIbODn6uJPk29/5b+jLOWggYDZTF0FhaBj8q/JjIaCiYXqSNJFvM2H4k6UspJkLRFoxrtfT8yy2FZ0gf/d3f0QXLUvchsB3pohohpSxRGMbEqY0BjH/eN7H/01+cMX1SB9m2uYuQvo4b4yhfyh5rhdoQGOBK2ABkf6UCokm/Kk9uVF3ewa/hnEzJyHhfyi3Dxjukze96dXyp390lp6kxX2u5C1WlrCCoZLgbKjIT6/9lfz9+z4i/fvY0GsFX7jXk70rbQgmuYb8IjV9aMot9aQVDHkayXD/rtU/VYL4tnRY2Ox3+p6hr3Y6cpOPiYP/7G3qIQmoFtzjfdcvNwCWdhyycqTuIeV8MxUj85+YNyruoaHB9LJMIluwz/wQufon12JOdy/2bUMAIgxTpT+Gsfd89Jk3YmTGfNo3ngg/ssm6T73wLEtuFAFWDi7LH5I/f8cfokeJFWTRISWlgII3+e/vXIsNwN9CKx+9A1WWFNv4QXGE6loq5ETaUZyOZFAMICRyOJPz0xd+AceR7dR5HQ67coGKbdgvRWHJkjb5o7e/CcIl3EGpLW8IymEs0uCF1KV7c6UolbLL4ZzNdnnX3/4fXbDBCl9oVBQmVvmifNn3rpJvfeNShOGmu7x9YdjJ+IrzgY0JCqzE6CInLnTCbwjzZljw9MnzPot9lsE9L4tJBwuztLkWaFKkU7wsWzZP3vaHb8DZodjwnjTwQmj7G/Ng9sVPzlvOxUZ23vfa07tL3v7Hb1ZPFGmlqGhuQJvQrR1HRP385l/K9y//CebKGzAfuwDz0XDQOkEy9JWlkv2298SdCl6N2SefeHBvbWcn9kNiXHXnc8/KAQfthwP4/1gp84AFYmLG+DZqtOdA5SOb98qFn74EZwXjVALUgQaeDsSTcRAglu/Ws0xpIr20mzxjmAB9YgveKYNYlyXXIV/76n/KD7+/QRs4yiNZTZUtw7KHz2Y/yhPA4ozFi154uLzgBc8HDWzYQtpMkYfwU6k+KUcT+md2p55QW+HRSpmTk04+Ts7+vRcIrrfUylRYY7JVDUER/Kc/+4186sKL0aLHylccRhDoJYW3BmEdV8RypcD81frk6SLhh/1i6NHwZzSGMEyoJw4NzcFxZJvlPMw37cWEThvTkxhr6abNy8R+MXTSG954DhZxYFVxP8a1FM8k/bU0GJJ8IE95g/2Jxx8hv/eykzF0DOEYppET59JF98fX3iv//Lkv47SlhRhOQiaSB8vjPOHRv5GW/UZPBSELyxJHJLRvxn2nvFRcf23ywAOPyLkf/TiOmUPrP5X+FHD2IxPEjN9Dsgzbfl7/hlfhhKd2PeqNrvUYDp1y2PS0562Xl7xwPbKfipkjCewd0xSmg4t8aLNl+7Py5a/+K24z2YNDP5ZglKYLw8dU8km+aS+XPgvDwyIyibv5T+ppCAc3NOj6evahBzWgJ9/86Z/8AbbaYGsXqHBRUr7+lo5rK5ZQv/Od79Zj+BZ07YeGClZ8o7HH81W58M3qSGG5jFjMfGb9j+Y9Q6rka0oTeVDQ2FLfxJZKk8qSq/LbsHpa5PxPXIzjH59GfTCSSR4o9laOuNAHQ7qAjNj9+V/8MbY4dWnDK3tZuVLQ+lQaT4thpj4NuZmavorpCq0nZj72+GE7xXv/9q9QaLSfiDZXuGw1EKEfVlP+o4gK0uuSz39Vtj27CysVIUQwrKECoWoBXQ381fghZ3mDel6lCWlSz+CZK2m5efyK7/9ErvnRLdKjI56MvzwPvJro+NWd8tKXnIVhIHjV1irp4pcKN42hzJ/EL12JW1bJgtbb//itqLTcwl6Oi2wasG/u4i/hyLZezClj27pugizPexmGqrfWfK6efrHPDO+IlV+mhkJqMfAKBXrp96/GKTO3qEoMIUipNCJUSScetljOftHpmOPltWgUiOVMMUexz7m4/YbK6C1vfp0K0qCYrXfL4ePCfCFFFoPLvneN3HLzXZqfvI6M9SwV2Gm5yKafIcvxQ395vyil8Bl+7P1ueeoJNNb24saeg+Scc35X5qEaoumGxTxsLJFDCx+e/MsBbSJz7j9+Gvtg78fc8SLsw0W6tB6EYPRXfV2C5ylnGmX+wgXy0COPykc+9gncuhN293LlPHVn0J9Wjog91gzgbrEeOJx89CL507e/Re10GxSGpkOZo38zhqt9l3hqXpewr9ZqioXH0RFEL//LocU20i+caZH/O5Lf6eCmS9GxUg93r+Oy2wNk/bq1sljnZrCAAEOK3KekRjMO++JUHHBmSuS8878m9274LeZ4OnHA9nytwuZXT9zRU3cw7AYSupUBCikIBc6DhNar7jtErypcQwR3xpf5BQwhbJIeYqAVKnLpdyvEQaAoP4wV80VFP9gzKqXD1YVI4z7ML3UuWIkzVr+NI8UQDixxiiiYbO8v2OBcaNnRPSBvxcHQi9EtxzIKBMI1Dvzx/FTQ5NCW/dLemSob8Mo9n6pkSY8CjkORLXqI+fpTT8A5uIfjeLtw8HiI0f4ynQhKwYdFWVwo85EPfUkefXgr8rJTFU0Tju1j2gL7/JsmBO+GE6nQhG+eG1z4C0NuPDRbf8iHtJWP9wbUF5aR/M/skifo8dxb5jPDoQujPxP4Fi/Lof2w0RBaB6MAnEdGz7MJB3Sfd9Fn5JndpvyYDm530P01eCKRGA/hbBybbBRpL33BcbgsGMPkvL+RZdd+ikEeC12TwK0bya8wfzA/j31S87AQ6fnPP0O3hwR+yUdQmuxpUpRqWwlPmkc3DciXv/g/uIhgKa6FQy+ndw8aPT2oI+As26AK3vHX+Mk+U0d9CeUnlGE9MIPzn/h1oid9EObcW7EwjOerYh2Rzmxrckk5LbIhf4eARz/qO1CRH/70Trnyypswh499r1i114gx/xxP1SnZyAh1lswUDFHSAsbKRDYFpd6D7/zf2A97zKV+JkstpNV9DurzF8os5BjqAhctDmOB1hB+T29/ShpwPOBvNz0hn/uXr+vdmzj8C/mFk68QMoejB2WIIxrsV3IrCWUeKMLPW1/3cux1btYTpHqxuZxTLKEOUHaFHm48asU50vwv0SXwa6NaeTfzF+sbs+ezVPjYf/w9vuGZX7PasKDPn9eJG8u75Y1vOAcHdXeh9KO0YEuCylBWOPxYOWm4/ZdF64GHt+N0lSux6g+nnLR25nuX6ot+7acWxX+0NzWV4A8HRbfgcPMGTPQ/9vg2+dSnvpTMO2XZTyWQWlJQLprbIoetxnVEhx4AoKgAMX6I3o0K6WzQUu+UbMRKn8GDXgiNfZevf/1rZNmiMCwc+vWGKZ/BsNq2NHTKr+/fIpddeg1WOFIh4YYZzKHxHNepa/JpKOSxMI2tbfOgAdvlERxs8MlPfTpZ5pRVT1FoLPQhhReedaocufZAiMBy8RSGK/dFwXj2S14s++H6roBmPidCGS8MyS1GX/+3/8LKa1ym3MI5ZBrwoBqsMG3BLakDVh/sqUo0+NC/SXibUzRFk8OpQzu2PyOroTTf9JaX5kOxzrIdkTHkvKUBN7804uB4tOsu+fzXUHo4jRKURSiD9eGViW5CXtOGdDJEy2Fa/SHf+K8DR/l0YmiVV9V953uXyw03PyhzkZFYHoVV/0irTlmwiRXmbLkFR0eKsGhr/xXtOj3F+2XbcaEEb1QpNtMLr2L+a7OZShK7Ns7HyDf3Ge3F+YqHHHqoCug0+3U1YdI9YTMVtY+bwNmH4mHkn77gn/U8xxY2aXUlYn0MWcGvRMX8Vfu0lm+pJ1twFIj2j+88G5ZzFnzecMON8ptfb9cGQ+CLEiiSQgnDy5d2yhnPf34l9ovdtadp1kAfPZDtzz0lRx59mJzzqhPVIYho85N9NqJHhQMYMHR8wScvxmHwvAwXFR/KUuddKGRTAZwNN5bvJrrtOZa0cV4xDsVuxNDinNZ5cv21t8pDD2wukwMhXvZ+2JFdCEF5+mmn18kM6kb3Dnn5y8+WhdArIYXcqsKV3ezL8keDCBPz7LMiV+LWkT2YPOPoRW0mxpDfkYkUL0/l6uhokd9/2e9JJ/QelTrrsFIythgmseVlfeyXf+mLX8dQ7L2hfODbTFxPtJ5pPTFi5rP0M+0VWe+oxmdpqnnbmH7epfDNsOcpQa24vovrK3bt3IszlP9TdgIOxQjrLsyk6Qa/rDs8MxhXeGI719vR68TBLFj0xb3CeVMib/KOM/ZtdqY6ys7Ozg5529vepvuQKGxKG62CejjB1VffIdf+9BYsLtgfwgxDGvWaAqVRL7H6wnN/JS/nbcJeSx7ofcXlV+q2mTxVVrW86eelmTCc/jnjzDMLhDk35ddidJgSe+ha23LyJ3/2Zu3Ja8UuSwTbHXBG75U/uF5uuO423efXjLNji65AKwg/vYo87zblcHNTYzsW0OzFtVLXYFN5QYIKPlqxR5VbT/bu40XJ61M33cKAr2oFrgVctf9yOfSwA9CoCkoo2FPQ2s98huePfvQj2dO9B8O44bqoQtcyX1r+s/mC96rqBAcjB3DISIe8+jWvUCVp5UVnPwoUdqi/PajfDz21T37ww+tQVtHY1XQkfBXFWS0fZdI16daNqiTZi2zGiVJUnDdcf7Nc99Nfan626IlYGGrO4ESUOM3AjW68m+HYI+bJemxLaW3l5deooWhUp4111coMMXvM7EptqXzFOmrejr5+/XoV0BQ2OpbDp6JjQp8fvMhW5Nvf/B4OoW7DYp9uFc46p8EeaeZHu1K/IhbSShroh0jtvch3zRYY0UfRz/wgMDisZUNbMcFBHC3G47D4bMPRWFdcfrVgwSOGrPFT5Ug8gpJk2FYoWHYwWvE4+YSDZN0xx2DPXg9GtdEvLN/6SKLlMJD9At1B7LvkAevrTz5SZ8nYY4AP/NMdjclffvEfemBYOvrtb/8A+19XYd8YVylxrsnmdCDmtXfB6LKY2jvp5l1Kvqf8JXxG/km5OsP0ZX/Vheru7oaww7nD6Bc1yjxs0/gp8iOHvMABDRzqyBjyb6YNh7Mfg7w48pgj0TvgjB2yiQIu7aEFn/khvDDHmmLAdIPfQw49UI5c3aFY8yp0liT242xx0hArRJLPDPvDq67SVM7BxdGt8eXRIcqx+4u0cLHP8884RVaumqeckTsWSNZjVkcqzlBWQq+Yw7Sf++xX5PFHt0lHG06uhzLBzCie5J7GnuGr8l/6z/5GDpH1WWtMpSmHMpUtWXw3w8uhe7B6bx+OI2tu7tTf5y/5CjhuwNgM/gIkk1NaqxK5xfDEbjsOdnjrW1+N3ibmofv3QG7gAAtehI3GcK0NYuNpOj/HJs+mMQJswZ9w3PFy+GHLtNWVJiXUvPTTXu785YO4y/AumTtvmd5Wnq9o5mMsn1a9xpJmLbQa5YnNT+NW+Z/qPkjOLQZDhUnllFVIweXww49ASxRLozCkw43RQUkEt9J/M0UQArCtvRF3Fx4rh65ZAbUcVmGWDhdsr/nR3fLEpm1QBs0yiLNjw5xMhuZIgaeNG9OF8UZsE3hi8zb50dXX6ywAh8rKGSqMxYtbcbzeERB8QbHyGDoTdHp92EgNGm1o5LDY59SMIuJ2EmKbx1dvq9HuHHpuDz8rj+OuTz2EAYLYerXleCy0z4p5vGv8hT5Kfc2dO0de99pXUSuiRDKdOIlKm1rmO0tX5JmtA3LtT25GQ68LDTpcIpBJi4XgAr1S9uY+bZ7aCLCyw4YtB6RbZONjW7AK/uawiCvbvYwThvrb2dGAA90PxoHuS9DA4BIv7s3MY2rlKQ46U7/zJX+8U8gKUOo33vFWoL9792550YteJAux6JDqIIiWRBDxwSYpfyo2BEff4RDvnkFcD4XJ8TnzMJxROKRRIbrJd47ygJ2O7K+AQVS4+V2L5cYbb9XWenBjZeGPSjPf01SYUJqe97zn6fwnD9XmzSxqojjTchBc8RcCihCD7h7Omb3iJdKFoEHwMUf4s3hDDtE3DXvAW57cgRYwFCbY4Rxm3iCMCY28ZX1vpJf91UetutAaH0on9tZ1zl0qN9x4W8Vpc6LFPDnl1FORD1gMj14BRw6sOOuJRPklpGX4yMlZZ56m6ofZE5QlvWpmaZjGzPz9bXfcjhWyj2M7DxpSXF6NgxNGksckoKs9uUI7WaWtV2LpO92YipFMTpYvW4J7atfqQhWugMU9LSxNydPKTZ7GT669AQdBbJc9u3DcJS4gYHlRHpAke4ayyLKUD5cvf1YOyz2zYTLvSR3gnZnZX8bHyK/l6lAZ+xAHSEJJ6o/SjQoTC562PPm0/OAHVycLyAqjLRx9wk4BNHyOWAWMTz9Jtm1/Gp4D/wxlowyFFCp9xbhV8j9F3BOcs9JlinA2/mww0eGHQ7wXtMrJ64+S3egwFdQPY4OW2hIPrrffcTeuJZovC5csxG0kO+HEoSwutAg/o1z0zApZvicc5J8WYZlnHH68vjN8UZhwv9r9D/wWy9OxWF0XyRnv5JPvGQOIjj7qUCxQgaxsQRtd9eVIQo9DfNnWfE6WLlsoJ5y4TrpxRVebzjFl6Be8hvz41V3369xMH4cGs0YxZhMIPBpW6m78hyFWcyte7p4sT0f+pnM2Re9UQpll7dn5HfMLqZulnW5Pgb0OkWbwzpcF4zHYMKWNieAbxOrtB379qGzHWqz+KMnZ5POd4Y44/EDoLfYsOYwGBWICFsgXGNqnJhFqsFu8ECsse0NE7J8EjlKPBZXmwQc2YgsCFBD2I3OFMhXQyCaJxzylvNEiy495KH6evP4EHFiPE30QF+8HLcQw659lQeTS712pJ3IdtPpANHr3qh0VY/hZw42xM621mXLTHLVRGUvflo9J4zbJ4/b2eXL7rRvk3ns2UuuVNWxPEQVW+7Nf8js4kxn4JlvARghWlt5McAilaDxSUlABxzCCiG52eGCkWNLGNM94NY/YJzinrU9OOnW5XpBcuLAh9YStc7jVA9NA3730Z/L0FhyfhYUl23Y+mQgLzAGgttnwE2VS1uQXoEQVMPZo31H6igRUlnjJ9zie6LtkGFhavKmU44IKLB7BKS9DWMSx4cHfyovPXAs7rhMmzQxdAMov+l+8rEX2P2ie3H/fZgjMduzFQ9e9AJMUfRWoepkLwjVjHyBbxTzL8oSjV6OXYhur6Z9t2SBAuUKT1Z/XqH3j61fKrh045YXSDv/DrR3W60XRZhBOZCG05n+GD1WCcOF8HE1aPvQLfwwP/Q5xF9rRga1t9ZD8SfylVkQFfKjyTiyjfM6PblnYPEHyxC9uyzQMsShUnsNqx3t+/YS84Azc85iQzYcKFvxm7EcfsVDWHLpENj2OVau8fcMCJE+eKZoavLegtbN79061OhnXqa1Y1iVdYWcP7JjzGf+w6evDXk/s6WvFmazXXf9LWbzgIBnA6ss+HDbBuHh2sc7xU6PBhNs18E58gUuYiS6kqR415XiDP4bE2s0kD1EWQIs/3l/5gheeLvO6cGUd/GBpC3IkFmnhm7rxV/dslvvueRRTBm2yu/sZwZWoaLRwEQtDm7H3wB97vlmThUvtC8IGzGnPspw1Vq2Kwmc9Zd+j8Fmnqt+VhrZyQ0FCQBY/PfweYuyKS6+VU9f9CebCsTWuHZdio0XMqRQzxFxrEzJg3bGHYXEVysaucK8mU8ehft03kM2+SnxHeFlcU+5ZJh1WOqYcv+PFkCWYBZfF4bTnHy/tKBBsm2bz3eLv6cbtJXDnbRA/v+lOVEjOJYEKW1rYcxha7qx0/MUULDZ7GtXoycyxnzqxOGZ/kf+yn1E8RYWT7tlfhlBJv6z4aGFiKO/hxzE3lXqP4lF78gscW4dxhRMPPO/HkBeEW14jqHv8h4jxF0JjSPe09UH4IV5aGrcWTtdFghFMXckdt98NgY1DC4B7EybtdNm75ospzXyofAzBToV5JrvSZfWgpe9IeDiUAGKDS+3ZQ8Mz/eEKKTbWdJM3nmEuJwgkFgP9Bo38Ru+ErvkFplwYVdYkFTb0v7P9cFySjIPyH924WfMjk4QiUoSQx8muXIFDz7lqKzUWrz3NgYuJeoOCg9Xy5Utx+IG58Wmx8Rl+PK+2ESdbPP74II5TRF5o/QiNBO2lFZWrDD1NY8xDxj15tVjNZQi48d7alatW6KIkyvhk8N+8pM+hoV49YYh3qN5+66/AdqIQCg7MSL3PvBerD8mT8orHeOZwGP499zwIZSk6hcKE9+zj+UgZg7xrRYMHEg9nCrfKkUetyThWzreM5xnzWkryjVPiCHAJkE1R2HOcYi9H9qyzzlKhXK7Cdczt0uGeTZv2yb33Yt8WDJWIpoYSiWKLVwsp/1SicEl/FNz0aU8NFeyK/JhbCb8htoSW+Sv1jMJqJYG/UnGN5Mb4Encebt2P3egb7tmgXICJMib0FTpwssuaNWu0N6B3iDLuEfkP5IgpBeMZOFGGT3YMUVdTY4qDFsO4xJCnEN155y9AeQDKknNzVOc4ypBYk3d7pmnP4lD63eIITwxGUyGCjq4ypqDR+bHkiZEKvUeQT5yAYj89ExZ2whNUtGQx/Zl8UVzJY8KDuhW6a5wWtz3JB94b0QgZgJS7d8NdmfxgM6LwR55piOPBBx+EhgWGLan40VJkj4+3ZvDO0DhveB5wI1oTXCB08CGrSSIxsdoK1rqCF2Tu/fX98tyuHWrJBibzsxqjdQlYZOf1su8xDTZmuIGe6TnssMNwxRxu1oEnRkcO+cxG3YTtFDToCMtNN92k7/EfO4XL1iOQf/vl/RLPgGneDm+Wj/YscMx+hPBG1561ho/zq/J3lgf4Bn7N2C9CHO+951557LHNWkioSFuxsloLDAsNfigiqVnY0YnFeKem36N+MZzsOWpCEx0w5F++/z3R8U9ifFz80JRI4xUrcEE0KgK2h6ccWcUzi0G06O+//34IaUhpbW+ZC0BkV1UDWHh+ZEw6BmPu5mb+rBLG3+av1mcUT9zCT7WQxZvQZwGmSWsJv7nsHD0azGFtfGwjXVVkQD6GNBvLmSjZ2t9/xUqtkLxaapA39NZgFi9ZrGfYdrLuJuGynHIQj3OjzI+duGy5mUO+qiDhS9OKUFrRk2eKf8RExp7xoC+YhMNDWWYjiA752E1+FKQotVRUokgYnsowa6LvLB/GgtFkMLqn6eKA9BD2Au+TjRt/mxIlP9kgqUPysnzZfuhhYrhtTgHnsTf9HhwYSHscy/fbL/FTPpwOt8LXJoxAdHfvlbkLcUo+DOsYIeXcvtaP8KeIUQrukU0+ZaqE8ZnDMCq3Pa1atQr5H0Lncyl850OhEQUF8cz2AbnrLpxt2xL4GznOme1KzG0h2IMPPiSHr1mu95pyG1mcH328Ig4jCDwe8+DVB89sYKpIHSakoqIWC9gqiEwnL0PaYscSdBxjsXjRAjnmqKMhbMJYPSuZoZEXfzhOC/cBbtmyBZUUvRmcmJGjxNa5DS704RwBh9eIAlfc5auqKhwV+xTJhaZgOA55UFhQjYvCMJW/oniK8jJyT1MLypRb5CMrehG+ERvmebBDDyZx6UV/qHB6FyrZNNA4xokPNFRl9erVeGIvJ2/VTtUeXksY9hRoeFD2AQetwD7OddLOLkPGBK7zvON4S9mw4R6cQtONeSjEi8uNU6WCcLryMXlqizlDy16peM2QS85sWwyaEv4xfDJ1RK0Tn9orTjEOodOcM/s0bOKCXl4w4buRrXk1LAN8yXwjApaLnPZgw8IbKuA+7IcTnhkK/6pEkCvGe+jnB4r8y+gOX7tWlSBPDeJG/6yxcGbX1bVAz/HlkPJyNCarNY8+9ijaWg3a+xtCXg7jui3lD39YNKxahHKONIUKU5Bv2bjSNQFmmfgnOlx93YCzdg8/Cvc8AkaMLqbpj9ODgXBF9LbbbpMWzKtwJbUhbKRn8/O6666T17zmRQpBby/O+4XSTA2AakaD2YrssdjX24p7D3mi9u6e3Zh+wfaxWQbmrOthchl8jpf1oiIvWrwISpNDNmFAi5WNMotlgINxNAMQ6HNwSe89GJLkJvL2+XN17onrO4VHRelQXbbXkFe1SkCHvfBmAjRYIh7GRAM6eE0VZipgg2vNf6N48qIkoWTuRfEEPlJxou5c4NMOIYNeDTa/owMhOFRFmrQGJTWFUpFJyUiqtjYcRs8VFVUYbpxma3cQw76LcbPCkoWxyC8ksrd3Lypqp9x33716T2NHI/LDFmYkkFI4IzVICvMozo9AL7P0SztxHKI0o7o/UAg0zCF52oKOUF4gUPJBU/jy+Z0BBjQLF9nw2wLnF8mEaFBCUL44B6rKI8kvKjyeuNKzbwdWyeIkVBzckI2BYY2iPgFBB45v5FA5G4uVDI+KpELi0WidGIarxhB2Hv7B4XszVLgsJsMobywi4Q+exhw9mpthTbvE6Pwn3k1xmr3e0QoaVP4rli9Ph+2TrM/WKg1iDaONGx/L1zEj5k95FmcZ9uJ6tDZcz1fq/lQWT9YHNioXLVqMOrpItuDEqbDPOpuZswPMWacwuT+wn7ekwqxauUqfoRVamPlW9XliCU/qb8Kwzhq01Pux2XkQk+aDFNJYONA0vBcyIK8w86tilTTcTGDbM9hToAQTnlNCYYKhVIBTQGOzfEvzAtmL1iQ3iHO7CDtEqR8mwCRVSIz+nTu3E/7n4oQZbqkgHYYJiFo6jQYVCOc6+xDHypUrVJ6SZGFu5IlTYPZ090o7ltMeg95oHxZ/BFqgr42BoMCGEJ+OBqY9uDwNvhUrzGQlbeKNi3zUJIoqUcFKM/GiijK7V5CKs0B5kh/OZXKhSUKHi4SCCU87VID0KZi4qtQUdn7hELjlwQUwOWy3acSJLTy2rBPK0hpeVl4V7BAB/qJ3hfR3dWGlK347docLgekctrQQaf7yhvSIcUdHB+6XrGb4Eiociabg1RWWkLAhPwrpWgxhYRzcymWweSzzVIUJDTyvax7mLw9JezgWG5+FpMMiqQ0bNiDNSB3ylX1OU+IjN8/KMDHNrbOLEzdh3+y2bdtk5f4rUK6K1QHbQBSXOUxLLZvfICtQRzdv+Q1WRSfDQAb8NMekWvaLEao25DT1ZxWOgnsJWkyUFxxWYCWj0CmsbBRqjXot0Qf+/m9xiS8OMsZ4od6GlnhW4aYLTgIgKixUcCff9FeiUGmFDV70rykS/UiFdMYDXzN0I5fMZ2EKMg4VXgOTpshUwCM+jLpgiE5kyRIsXcFWgQZMZlBJpA0BSxt5S6LmNU5t7a1QtFyZSQDKG/ZKmpEB7MUuWLCwFFQFgZuwKnMBthF84IPvgWDGOauacfij2IS4yB2VJXMvnbItoAJ7uAfFFBzioaV0apH0C4wpPETJOCL3rALVtOudnHkC7HVl4435S5tVoMsyQiHPbTMWZgiCiyf8NLXycqYA+cgIY9YdedHaPkdyu7DwB2HIM9nisYQ0Rpv8cqyFZxHwmqcOnmZewXA+kYdG7Nq5R3uYWCuOEHmMKgSvytnygtw2Yn8nryJrx4Hry5cH8cU0WTEsJgiFiXn0Rx97AlgS3TjNxSFmj00j1mXslB24LH4pRhbmoOFaZAAulSbLLQfzF6GHOQgN2o7jGvmcbaY539OxpFco7FwBmDUZZZG1Ll+CK9CvVNnK14yC6OMPE2y8PX4Ivz3Yw7X/ASsF1+hpgaAATZWFBjY+8YRgWb4KQ7eIG/JKDYUljXZgUInNhOpoX6Gg5b+K3/IdoISgesnTKw4xXjbZ+BlHSAlRWL7Avix19BtwUQCICX+w5o3tbKhylSV7l2yg0Fg5y/Y0SbsRh7x37w0byFevPkj9lv5DOrhaDZcRs3O+cuVcFfzMhyznpJk1WbesPd8DRU1J7DTCN3qAiavFlRSJhA9zLU+inA+jVxgyTkH4xs2FGh9VXCECsf8wfLlnzx7kAfziP+PRKQUU+iaAOax1Oigfzqk28OJpHHbQgLshuU0kxFHIlX2xzuzb14fTr+CfBwfoKmAONTMcB0StDxdQMuUcBlgQt7UYErmS1sHgPQmdDNCiHnbvwrVhGF5eunQuFCGPTgx1xXgsjA2XAqCR9+wz3Tj3uQcjJPOlh/tGEXkzQNCGAyiEAUdLUeZJ2ZbwYbZsUIxkQoMBPqJw+e/C8LG3tDQWO4wUbUW3/9/eewBYdlRnwqfjhJ6enDQjjWZGGSGBhDTKIAkhgcBgMhi8613WxjYYRLIJIhvwYoyB3yzJJovfXtsYbIMRyoiggIRGEkIBSTMKI40mz3SO+32n7rnp3dfvdffrN/Nen+q+795Kp6q+qjqnchnudMg6yKLAY/IGhufKb+7dJsccdzTuysRwP/JN3ehv+CFv7EC54DjaKiwEG8VEsOY7zoyeX+XUS4pc7jOLR87y4GnL4D/repg2HMHrq7ow7MSC1KrSD6WCILH+8MmryBw7GEpVGtyc33LMsZSImaSJmRnfOcJpq6q+y9Gd2HNp/FN0tCccuUD0+EXbsHUBQ6NolkbycsJAKFSZH/Mxj1KV0i5HYKJk/IFpBpZp8TW0TF+OLrOTLJfxDllblMH0HSil6aW/6YLKwg26yf1m45H3GwmNyJjhZMK3bCmJQJKeUXBJ8zOKD2Wi6g8a25+I/aWKhAq+ZKohH5usnlRJg28QLDdCkvU0CR1p0zkEMLj36Mgwhvznai+YpmFKhdiXJF4bbHrtG3rBHJ7WOOoISZR++LfGNGnFqlxHIHbQ2B9BgPJy6HbZtacHHYEWmYvFWoUqBeuSRYsUU91pUDCEW+i/iQzLINREKcwlRTMaDJrMmfM6bD2Fn5RDVs5UIVEbrbApN7P2MwUMPyvgwiFFOrKeQ76nyZ4oF5h0YlVldXNmWeDJoi1GFA0VopP1nNOR1lSUhT8Vv0V+ysWjqnDYdTAFD+kFQxRktOaUAucwuVI1zOsBudDlM59TfjOftU6VoRDyPxHiZZyVNdZ9wRCYS5YuQR0u6yy24JqvHbt2QjAMg9FzsR/6gMChVU+WAhhVgRqTa4oP5oElexjbc5544knggKF4NEiYM7RjKTI3lmiWy5UrV6KudsgYepkdvKlo6llpZBvqXa5uNlQiJhNZzrmwpcnl0bxF3EaEJkPD3dYOAfb42SPlIh72+KejWJjzlXw69KrxW6/w8uFkKm5KRpaNswrLvENSyVAq631GLfLTPBMENs6hQQzFLsB9m5hmVcYe8j2PUCDCXjsvWOAdr7oALUMb3L7Je5KZ5BZoRrG9bs+e3WhIhLJB+ceZyXxJMa+L0MPkOgKupu7A4sdi1M11871nXQ9zJJpX6x3ol8VLlkw+R/MlJN2iV2o5B+VKXrmQbYVD3t4mTfPmpi8XjkWnHF3zP5U3w9T0g2Xh24a2WPnYYdG32hdFDr0beA8nzrTotgRuFaAqz8JDYsLWDH6zelsC6bN5VRrBwhSnHRCGyBFf6fmr6hDK5UC0OKjEL4RwUPbOuyCdfMSybjLDwrAqHVZFChCOla1B7IXmebftOA+WO3gpEO1UI1I2/yHUMN+8e/c+rFvgfCkXLBTgMYuFJlf/c8vY3A4imeQW8WOu2o4t4saqzKkTbjviUYu8xm1OB0+0mj0qVzOaP+HWkmJKKYMyVT1iMs2PQr1SyOJVfRHjgFBxFtA0TyeTc/VK0CERjjGz2kSGOKafSVAtJ0g1r/L5VYlu9flJ4WkCdLKhVIrFrLLXBo8u/4qbNSxb8cOPnJp84ytHoMG1k+9hNllrrFLHLc5fKzzFHD125h8JAjZvmZhM9FU9w5yICu0myqJ8KJatRrOc37w7c1/tu1r/NQvfAoyYYuVyHiHDCHB4IPJXbfqm5c54CuOcnwDN66cQkAlX9Rr1VsNsnYtbw4RvlgA+RIXv0OfEBxXyxgapKDT1u1xhDT6a8nfyArPBYdBFCVwtx4F6U/mMN2Zj9qm3rmGBPmFAWc8ZHejoiGTKf/5T3ac9lW2153xOEMecy6Ctlm6h5/KGxnJYwbjlhvxtbBxbPrDtIRw6Xt5vbAMmZnRis5IPgsQqHFVppIeMMANDRhMIpJklfeZVqZdk20jabZFf2lfV4iYmaWIVvktoqv8sQtSxCJNxxe4tMYQKimEyT8bGMTes92nSJICWOR+IwtH80uPBUio4s+lM2DbMtQyHhTtBoFcX0YAP0850gk4kNJnkpB5XR2s2uCJS+VyYDemuJo2lAtMm4K3VF1MhjFSNDSW3MHAfEhcN9GL/HxlqxF9C8phCNWA6Q9Hh4Sz33vuEbN/Zj/qGW9px596onvTDL1Y7w4Z+M+0yLDTIU4+D0Q/eDJFVCa2seTW6fN7kaeXtUzTLCVQy01T6Uj6yn2DIPMOVihcb9w8AB+zLC/ONSTzyvc7+3j4cjhCOYePh3ZUUd94xOg/evx/3QvZJGzfkW35pGiDwUpAmJ+mQcogHhYwxShuiT2cTV1BmFcpMiibtzH/WHXVJWtN2+VKQIxelIfhIx99olPOfN6d7o8007d27H/N3rThEAvuPscCjrQOnBMENV0RqXFVY4lvzmb6pmIbidKh1LX4s3AnDieLIuEbbXhYvWSB79x/QvYCMBhuwtgdTo5UGhEDg6cYZsi0483kcp3S16l5RHGEfTc7l81VpzKIfzknyggScTAkgcVZ2vAoyy8cMEi7S4ypb3njSiTs0R4fTPQ9z1bzvUoHZvGnVlPEsWWb4MG5v6M/f/xalPWEVobcxMDAkH/7oJ+Wmm++FwOzWC3KDwBxRgZm+8zF/NF44gqw8qFmGTndJ6OV9TcWGzCetcvqKArM4XnlhRfbFE4FGBoGNLiSYeC9fJ44S4l7NMax85AW2cazI7NLML4o6j7TrHRiX977nI/Lzm++W1nlYgMBKHsXfTq+xlNoJPrqVgDShsgIzpCsRmHEM1K0Jz5YcPonAzPnPCB6gkQpTCUY/if9gkISfdjUF/1E8jR7LnzYKIFnmdXXr6kbmkQmK8C7O22xMZkAXC81ytBkvY9whX3j9GOtIb18P0lXOXzAn9hxdXoTtY7xxg4WLVx5TiMbnAeO7oJhNTLiJbLlrYMlCrnwlLDzpB9tvNH2GezaxPDOYC6h47iwX/cw2NQWBma9cAd5GAS7c74gbH8Ccudycqly9CxVpXI8Im8ttKDjEes+BQexjA3PXHiZa7eA4xhRJqyV3ndNsFZgUbHqqTzlwCRYUt/aguyCjQyO6Wi+YRr/0i0xIl7gRcMCu+TiyD70GbkM5MNyneWC5aAdTGB1uajeVpmNmONjNPqN34p4GrcaV7Z1zPRYvIzSLbCjpsmEu0m8TbGmz9Pdk/afTSzrtWMWoPQI0TNg46cNB2zzpRhVHkbLJDebpX9qXc1MLSWMNjFyDRHu8asa4JjyGKzq5SpMnF/HmEd07n/abm/OEPMCxjkv1vGKOBw1zH2ZCLp3SWfnNk89WrFihEyisCdqgiBBXKHN5zzODR9G45U0lAzjHuQMnb80mNQWB2djwcEiQLW5eK9XT11uWFySphHvUWQ5d7Nm9G0OAS8HE0frScVucMQOBGTMgeOL9kWllvCltlv6OR0DShhkRkbGYoiYbJyWSZjJqUOBGzZF4Y2oF8VIYlBb948H3OLkU9mlVUhQGbIgM4T0EP0MDgxFrhAFra66ykh434rNiMz92YkP63EVdcErOHbg3+k50Fiu1inWlHxn3JZiQakSvDKH8bRoWDwspGxszTd5h+D/R578m5z/M66ZpcCSF5X0UYNvwc9r+kP5GudPbTjgnElUk1tt583kcX7+Wg4IikkkST5viASV6RCMr2yTvZ80Qa0INr+Hj3kqWM/YpS8aDUgCzzRh6mNhOgh7m2CDypbgj2oRIhSRhCm6WpRjpJoMlo9u27QlFIc3a82JjdBTDhDhf8VjcVNLScqP641xd4J9hPB+1OikgaWIwrcikSroYOQIJ5Wl8kWY+ZdWGA3eavIncp+ww1tiByqTXaUDApoVZUQLIAJWho7uwdesWODkzcRZJi3TMyQDbIGUOW7lahSY3Uet5pJGwa8nhyZspgkrFMQkBaUtTp0Ven3Zczfd0/VcTxgRuLD1RI8fO8mUmDg/j8PX0HDvKraEzAcWZtbL45kOBOXvGHF8Il1CH/Ote0K0Hz+/ds099sOqlszzPzTpwUP3q1cv1YIy9GB0KXdKDnEf5tB4EPTEjCiwfxx59tFZxlgVrIPJbUYrqvjZcYMYeZgdO+hnGflg+vg8ToDSzInPm+DuPY+PVNpUUh3/YseLt7ryGyuZ+Kvlz++oQGIGg5DAqr4basrVyfvBCW6rDD1+rpzVVF4q7mhiBQ1eAsL6mH9ZdXuTOIdlduJexogLDx/n+sm7duqjxVtHHrHKwbNkyWb5seWYwJ1MaeM1dnAci27dvV3yYJ2yszjY161LMCWvOrVH4PfrooyX5HVpZYWCN4LBFjrIhxx1zjF7CS78cSszOLdGlPSUkZ6lBmR5dDg0eVzaOpwMCc+uWR3K2xVqujDz+hBNwhVg4GajYVd7U8if/zrtrdn3otWVnhpFm9vS0t3ew8CkfLkcp7GE5GUYjaxemRx577LEos1J+uZrKHtqirPDWqhNPPDElMIFBnN6IxCx9Hb5mjRx5xIpYYOraA/QziWiRemr7U3q0KAVmGD0qctW8ZuVwad4UI2W8xJcFo7M9HOtEIZko1LC4+CSma9asxHFccKm3OPBmuFEVmt7jTDBSJlyyHSltX/w9inklDru14Y69AD1wnkjewvrwI5bjmidj/sV0Z52pCrwo1envQxWIauPI4eXo9pRWLHsexR6I3n39smsHhmXZeEV5IAMvUjTmZdtHrl+DpQeYoYvn44tczzazMVm2vFvQySw7NK/D4jr/RJADPjywPzRgZp/4wH2YJdO8ESr5wgPAClRmD1SB/UwbTcRX02Fb1rawwiDDOYe55bePyKNbx2XdkTZyn/Bpc9/X0yPzFyzAubOd6NUcKbdufgAFh2ulyl2uaz6j0MtUZItb6f16xTib+6m/cwwlYlZJbHP2cUBmXhwvW56f1Ca6H0FjIlAe1xaF0YiJxh/aSgXHYyXcuuVx2YERnxWrg/U4NnS2dOJmhNh1ZA5y649aKOs2LJa997CXwfwIKp7PyjPjMoyytdKqBS4UmUDZfYyJk1xsi2GLnVewLuBk2fhk/EPTZunW9GIssiTdGR9xPCb8mMCLDZfqSAHKOou73oCCcDkSoHpmf1QP4IIa/JMoGS/iWEbpKmudw+SRiYFP7XhytyzATUMjyOgH7tkicy/dpDZk7HN4xmlEyxqyvLFqFO3b856zST73hf8jw9julNRdhs0lZFNXTOvBVHplWRURsHrBxXL7sY+VI2TtbQNywXPP0HVQuCxIVWFWc+h1SOSOX2Ev+pM71V0YksXo20FOf7Y2VAHENJ3UO7xpRnf63m0oNbxbP43FwQAAQABJREFU5b57tyhRVp2iqkthScVyccIJx2CoghUOTNEYkjEodeU/GQQUo5wAyTgIGhva6e3tR37gqqFIBYZpuvAOjBkMFFc1HXf8kTA0FkmejExyNXkEGqEMRz3MDmwYbMOik3ZshLjrrntlX19o5LKsFIo+FD/ufGBPauGi9G04RbV98tA1mg/e2rJsKbbZYGh7BNu5lKdFUrKoprZwDQfsuf7q/vsewoEkA5pk1lmfw2y03J9CfPP79G6++WZswA0NeZYbbjPgk29psWVx9lln6VAEv60Fq1Egw7FHDfyntGczMSZ2ue+tt9waOCBB5m7qnOJGawpGLv7YdMamnC3yxea70GvNtL4tf/LvEgrNbkC2mH4INBXfUTmO32pRnx+u1tcV+xafJFjmKUeE+LCHxKv5mLd3bt4sO57ag9O00FuCfniCLSNrDpsvZ5xxBogy7bNXcVU66w754MaNGyEwT4jBKBmMoE3U9STGN99yc1z3rJEbe54lH6Wlc5Yk3JJ5//3322iRGmEJCt5h4MjcDPUO6kq7I444woz8HSNQwyIEpnfvA/cR/qAKSFNY6p2maNIcd+xxcSxmR++yAJAYAXywMdAUiukoTgs3zKcV9wWOoMVL16X3XQYyHJJlC/iCCy5Ie1W8OHeuQ8gYQkq/sw6bR8eDH/bs3qMnnZ166ql6vV4x0pbm0HXgCNv9992HLV1Y9Ki9hajRVShlzW/zvSfGqiC99JB+Cpw0lNHd99yL8zZFetHL5P161gJVYMi4cXp1J1q1XDhwwgmrZNPpp8P9vtDSyh1SoN6tpRy92RKe6Il7plHPh3N/Ov+X7wnVSG/0LQ81zhP+mMviN4e2A02+WTZ4kPpkWvGKdByDzZvvlO1P4GzLHnK5oNIhz0Hvgg/NnnHSUfLMU05B5R/WjezsfeRVCyax9CmTD9nSnA7JvvMUK+nN30y8EfZE5UCjxnCLVMTgiqwmMssPtUzkdqp22rMs8sz9zslDF9wXPTCIcVioPai4P/3Fz2QBjmBkNOd3hje/0RnVh+7sMJrzzj1dVq5cgW0pI9KHc6SHR4a1p1XU2DLhSf+TUZbrk/GTdjtd/2laRd/dOEObQhPjNHLx8y7GSVtJeSmcrh/BECxmPe79zcNy/wMPxKM29JUZZSsKbAbMDB97z0AQE5JM0JrQWfNa9vf3yR13Jr0atDf1j+ylaErszE1nyMKuBbrFZH504XHzolOnlJkQQHDcGP3Qww9J54IOGR1EZWWjZQJ1zjln4/g3HN6OuWZuFXJFBFCtielMKwglW0wytaAYz9Jh92po2ZDg3XfdLbv7B2QXjvwbjMoKBaatVUi33bgalMP4IxC6C7oX6VGBFJZFTzVxaEQ33L/ajnqyfsMGeeYzjwEGE6diFHOeo9jGc8utt6KjgJ7FLFd1qFWHNsIH0NK8/vrrq47ki1/8Yjli7eHy1JPb44Oss72Uqkk1ucOp9WhYoa+79roEG3K/CdQrX/kKLGJYJvtQmXkIgvVItAuaHgHI9fyVUU+RWU8QnQawsnzhu7JSGcQ8KHoqe5+EC7IiCtDKLCk9p/mTG38iDz20VeZj5Sx7lSWpIjkmAg+T8NrXvla6urr0iLchrJglLRO+sG5CZfkdksZGJc/Q/j3gcNThnPuNkqwZXZr8tjnzweeG5b9++MODviK2NHb1NzG46h/yQQpRV7MjbLaMOXjYj9bp5rvuivShcHEJO4Fhb1NaR7ACno8ayPojMRdy4Xk4A7VdBvt7opaswQj/3IfYguFEew5SOmsZLBlK8fLxEvY0pWCJreYH3uPtnfLTm27D1WsYSpsz8cEEHBI6eq3I+edukkVd86V3f58OD4cGzJSicmh7ioUJy1u5ZzJJSDPT2uTlZEIv61bTaXUq68p6tKH+tsu2J/bKL265E+dCY3g17TSqrypCWb5gh5opp568TM4981k4C3VU+g/sydZfzsfpgzHIaFVu8Jkm3DjfvEWp3R4krR3PYtSTE44+Ui7GdhJiklEZoRk0/cD1wS1Pyf0PPSrdWF1b4idDoPk1JaWyXDU080aFhBltDxl0/KAXcvvtd8gvf7lZcFseXHGbAjYdCYYDWzGr2YL5kjbc8NCOPYGw5irr519yPg4snivDEJhkXHYFVKhs8NtKv/DHd2rbAzRaQcO8X/StFPAdvemGyvT2DqaVf819uXdlClkX83CajrbcMXTV1wc8YqZdo6oT02Oe4MjCeQvlgUd2y6137pZ+ZsUEimmkevXvPE/mI2PaR9pkbAim4xxnCrYU9m0Fj+VBw/QwYpyYvvDoTTh6MTQm2CMzBWRSP8hHExSsIbqII/UGLeZ0uWdSQU3DMQXkOEcMMBdtjatRzE+3dq6SK398i7TP4VYTKqu/jDG/WUdxKxEEIEtEFy7Hec1LL5E5I73YSY2rrCgXgF0oB9gXijsh+ST1l3QSZeUmfsOKdO0xl6a3dzlzs7d3OXdmPpk347igAz3vATT4+4ZkHhDq379bLnnuabLxyLAOgDsEuAJW8zduWOD2IGDDVQTz5nfIt/7xOnlq37jMXYAj9GyiU8sjYw2lZSZ8TvfXcCj3ni796fqPUjxdMo3lXwsHosyKxyuieGvJVdfcoEM2TEkAJbjiwQK43VEfOuAlHOedc6Rc+vwLccg4ygo3KBmTCcWOlLWC5oUlaTeSIhMZHBzWuVxb0p8skKh90WGPvxU9zH29Q3LtDbdir1ioyBNiBqbwnOccKy98/kW6ei8ctRdax/Q9uQVIE4Z06FiivOH+kVy5y0cP+aNMLW9epGdZh8qVY+35B5sJf9OLP1QATeh6+pYq40CG13V1zlsit+MwkZ//7G7pwT2sVLQPX/yN6q42gpFEwEaB8YKLz0dDF4fRRy7pLyj4aYLepaWGe+aWYb62a06n7HnqCVmzcrG84Q9ejYbDqGzfhcsn2BABYPEDj0SNXI84PoVpyxt/sVk65i3CNXqhTFmDJQ5jFn3Unus1GHgtYNA8ueffvvsf8uReXk7LYUC2VQM0uHsD39GDwsUxf24PfNtlb5ZFi7viyqWrQ1HCQsuTvU60fqNb4kHgkFGhMlilKI0WmZ89PARqFHdvjY+g59faIXNwijXT34ILBVuQvpaxpCdXSmmyJiFmQ7iOihfT/uAHPxAeKgLIJ1Z0gPx462V/jI3pnWgB92PlY7hk2DzGvYE4f0LuNkThj3qOZOzhQaaMk9EP6RNGMziigZENMnpld5ZyexPbqSsyzqInTZFYmuBMf6fd1Oo7XnWOBl07Rhae2PqY/Ot3f4CV7Dx3jHWXT1AUqpn6jLIyv1vkz97yJ9K9EL0vHIDRhsdWd8eryA/R+mvpqvbNFcUjYwO4bAI9RJzb8L/+6PVy9DGr0Nhvk8W41ktH2pBhNuIW6AYcWWr+68c3y+Y77tAeOA+9p7AsVGxsaYOr0LZpDBuCZ8wk2gMD/RheXSIPP/iE/NP//z0wIUJCIco3qxErXCIYwM8xdyly1FEd8vrXvQqFhMO3EaNiyx8lT2+5H+OxUaidkeDFxyGnKmV+6GEOYsgGw1k4h3MOrkoa4+YbMudCxjz9JHJf3YLuBbhJ5hH5/veur0wQURnH2NFRx3bK637/ZdhCwK0CA8gH5gnsMAKQXgVZmeCh7IKtfk4TINHxsH809E8zfULDw8rvTKdmej1KMlnOLOZU3NPNmRdouUViyYpVcu01P5NHtnD4lSrU3fDGDYax0EQDEGVlCO2LE5++Rl7z2lfAJcsyyoo2NtQzCg3qPIf1tcFbqZZEfg7RFy8M37lzB4Rmr2w8ao284pUv1C1yjO6cdkjQnABk6THc+PX5v/sCOgg4FQjCkttwZruaRGkIFZFDkOmnegCjiqyMNv1dPYWZcNmBA9hHR1ulu2u5fP1r/yz7deU0YOEhlCOMZ7aFilO5cAg7hCbKzjvf9Vo58YSjZKAft78P9+kFyKF3xgoXHt7P2IJdv/aUT4Phi6DZnK9SJazBhh/T2GJgBcwn/cQt6SgfrDdp70yw8LtgAXrcYMT//X++XP7zR9+Rc857ugwM7VTG3dNDsBgelb2DLvwWmaXtw3c6vdwntg/7XCmsr/jOdzBcnrjnTe8ZFfUuaUb5+Pr/9jLZsHGVCpNxXEvE1YB5ZcIzNueObOYPXul4xPYVP7J4BxzSZpUImNvgzuKhb/bk0XDjowpMvQ0NF/ai//TNfyC/uPkqOfW046W3fzfK5CiKK3vWoaHQeMNmEQ4qLENyi35tFbS952NKZS5WcvYeGJFP/tXntWnLZuq4nvrDusvGLkYetB4jj1F/27Bdl/X4wx99E86RXoPy9hQuYsA5tJCkOHgPf7jGDw45upTZY1xYLy3/wtt4Y0k5YLo0bVn3eXcV/RsdexeBlDJra23HrT6d2Lu6Rz7ysT+X5SuQPm3lsC6NIo3g56hH+sCEY2lUtL32utvliW3b9XQlng6UVjZqkzarx3emfhTmx8zGIovCzIZ16FEnM+Lhz6wcbfPlicd3y7VX3ySjYNLjA2h5ts9DC5SVLoEJaw50SJYVjguA3vaON+nEOAv+HCw8CL1LOIp7mIdesquPEXs0AxCSp8ifvfV1svaIdvn8Fz8m//1//C6Y8z5UROJCBpBWNEvwSttU8817StswXMSh2Ycffhhbfm7EPjAsQUALt40XG+YVgmIWsu4csXau/Pm73qy94RF0JeZiDIr5wXlNe/LeG0cfGO3o+BDy41ny5re8VtauFPnCl/5WXvt7vyu9fTsF5zkAB7A6ZcxIWTRKUjmNU88v0k73MtmGmbQq6mVWSYQ9nzCq0yH3/PohuW3zfkGnChcjW0xYf/mEMsI3hQNmGPTarw988N24+WY1Gs0DKCMsRcACuHFKRcZNfNBXYyreM9uPxYlveesfy3nPPhWJoChkr9oENxtYpscSKUzBYHeWcAv0l7/0Ne1VthfVO/iajaqta/EJH0on3IpZ2ix8B3FeYs/SV5Uq1xyo1n9xIOWoFrsuMEWTha1VzjdSOO54Yps857xzZeFKHtScxI1f9sRUYHDcxuVyoLdNbr35VlnQ1Q3mzh44hmNBC33LUDvZLIpUi35TT2ppFdyoHxrnrBMKaT9pZ8UuODeRVjZXwTet4vAiR2R+wRxvMLIlS+fJ177xGelehIqGlb+LwJVfgG01o1ixeMcdd6NzRtdkuAzffJIY9WZGfbEC+iUWvAWeanSkTw7se1x4QsvixYtL3MUGcM71CKz6JxyzVvb2j8tPfnKTLF0KRjiEvXaxQ6YprWMMcwI/a53yWe6TaZxIVSJo/oO7rGvq2Ejg7TpYvYme/pIl8+UbX/8i5p9YvtB3mtuKBSznodffIr+6fbNOA7BnhOt9NVLMw9JGjVpFP8QalHT4ERMSuD4LLBPzXe3yqle9RJYtxirptPPUt5pjxGlwYEy+8+1/lwP7h8L2VvURblaMqMOXpZN42zfzgy6oojet1Nrc5d/mgAeMgNXj1J5WjAaNj7bIzu27cOrToJxz9umoi0g1GkrjyG9SsDToO6U5ZsMy2HfL9dddj/lQnOiFHhnrL/tarBtaPlP1FxaRsniZPryNdBxgZG31MLbPeot1sX38EazMf+ww+kjwy9sAUR7KgAbFCy99rlz+wct0DlPERiFCzoxhLSxTGVSbzEX+7+8dke9//wfyD//wTZzbuxBW4GdxfOIP9WI+IwJ4Ze0T8+q+KvkusS8xqC6cqbqatMAkHhbHAKLpKkWhFNrgo1r/xfTLUS12XWAaVQbtSaJy7d2zR4448nCcgrExTmg6DIstzfhw68Ozn3OSPPDAY3LbbbehgGHdOgtY1FLlMnhVGg6EqUok+LQhFSWuP8GZoWsBBd9xkY608StxltCILfGRFPTE1IQiTfICM6EHS8xVfuObn5cTj1uiiyN40dbeoV04V3eenHHmqbJ2zXq56uqrA2H1GCphMGB8+GQoBqvUb5HApDWFJoen9u/dJes3rpeTTjxWqRnVmHKaPL4H0Es4++xTce7lw3Lvr3+NxQ3sXcCC+ONJGiyBEn8zKk0vY1FOU0Ih57ASQfPPd1FuEFMMnXFfL7Y7fO3rX0J+LNc+E/s/T+7eiZGN+XLOWc/CsW9r0SP/CYQm/FAQMdnajLAwclFTLeOHJzrEgaMm42Cic+e3TUpgXgGBuf9AJDBRj4LADisCAgIWh6ygSRg+05lSUb0MZQjmsT5x04LCPdDfj9XUncADpROLxbZueVjOPfscOWwtFrTAPqRHU6geQ1wCDcYIV2vKSScfK089tQ/by26XOZ2h/oaGCha/qEBnGWL84DuOh6Un0LLfmH78EWysHuaMzVv8ju3jj6z/2GH0keCXt2GMR+UkTBl9/OPvldVr56Bx0YfRGDY0mD+c2yW61qBkI6FN+lHMdu8ckHe/+0PghVwsRDyIg9GPP9SgFIWsvfmq9l3RNxyYmyRO1VKfvjtty7Mo2JOQZMFOP4kNI8pH50lyrmIfEAjpuTObUyl5l/NfxjwbpzBvl56Xs+9YIEWCabwVrU0+UdzTb00Z3UG47UGJ+eLXvytbnwqDF0wPCx7XjfGxCmx4zUFd4rraT/zv98hZ5zxDhkb24+xZtm6xSAZnm+pqUp3PpA/QghDgFWGtGOrkw1V67PXYo+NbkGhk7OEJdm3Qh8f2FQZ9iTsUJ6UFGuMZOoEe2/3ph8PIjOsYJvQ7ME9BvwcO9Mg8JOJrf/8V2XTaWk11OypYK1K6sHMl0ABLhZ+Xvvxc+Zd//RoWQK2WAWzNWbgAyw8nqSy/it5tWJSwa2+bfOnv/xMrmANh9iIxCKd7xFC3U4osely6APMi1P3P/e93yaZnHi69PTvAOIexh3S/vrNlknmOPE09lg/l35Yv9k7yrtiPubO3uQ/6dF4w/lQ865TDgjyRZnR4CHc49kt3d5f8ny98Ts7adKS6okvUMFm3dLF0I80LUQ7f8HvPkyu+9RU5csMq2d/zFIYZ2ZtgCT50FGMTeAD5A+oYekH6oE5gFlbGUB/0Uf4S3Kh7lD7WHOISP6DVxa4kbFrahnHaTwewG5VP/+2XdViWjdlwgckQXLDkYP4XX2FUIeDCrWHYaiwf+cvL5LkXnQl/uzFvvgfD/y2gh6v9RjDOPTIXPVjMg+rK2baoDgfek89zbSCDj+TNLZ/z5nl9Zf+ghDkIe4wj2XvO3C4ZxvnXe/cdkOWrlskHP/I22YC7Y4eBCy76gSK34gMcgYViB0TaMM9LkTkPrbArvvVv8uADO2Ru51JgzcZCDZV1FKJ3vt5bnCZ6j8Mvn3xdroe+bUFuSDaBJlTeRB++WHhN2AQTGBSpuCVWZJk2K+M/7ST1nQwfpAwLPhnHjIr18UewZjxpBA9McQvG/B965DGZ27VKnnX60TIX5SXYWJFUV+qXXwNYkTkCIbMYDk86ZZM8+NuH5MEHt8jSxUsUp5HhyD2HxpDJetK/flPP1h4KLvwzlGJl5qRDldcHU/s1Sry42XyYHd+oykrB3HV0zMV5knNQmUZwXNhumd81B3u0OuWzn/truejidVFwURoQV8aXly63o+UNli+Hr16ES2hfpD26uzb/Rg+qD+HRj/kLJpP/pQCfJ1se2SbzF86RU898OtHSas6wmYZsdca5l8M8XGEUAmaBnHzS0+W3Dz4C/1tkxcqloNUC5kzcGRP+kFoeJbWkgzIq776Ms7LGRj/QMV1o4AFddInmYM8cRyJ6DuyDfhyXl3fJZz7zSbnwgmN0/jyQZk6ERRshDUHcHnb4EvSwL5HfPvCgPLl9O9wwjRMpxEB7l8HdVHqYQ/1jcsUVoYfJDtkYcCYLJsakGtIY0qvCSnkD9bSJEcA3dFoX+BUEGr/SKuuarkAH9FqijYQ8+u2hh7ZI18J1csozj9S1e604rYv+QplhuCFszvf2DvdK7wBOiMKk5ktecil6mnvloQe3Yph5QBYuXIb5P5QXCmnGGfW2FXVY46ZpCDTT8Zvpbw4xpxWHj4myjpwgbn1YgMgV4ieddJx89aufxclGy0OZ4fAsktDGFYtxmSCPQGMDtShsnxO55rrfyEc//CnwAy4UGsG8eKhhCT/Nhk8ksyprn7WDLsLNzCu4Nmfxu1T+xFZ1+Zi0wEyAs/iVSXIOGHNd+i7jv9ShmsyIwARlDu9Q9WGbyZzOTrn11l9iaOciWb+uC8WL1T79qFOtdoPD6ClikQp2c8kRyxdgqPJC+fXd98j9v30AlW4QBZQSF8UKLWdWryAw6Z/hUegExhL0NM8rw8eKZl6fdR/bIkzzkXahPVLaaP5wxdxc9L6w4AHDWfMXtGPhzHL51N98WC65+Che1KINXqNJOvzmQ9qoppg7E1myqFWOPnqTXHXVdZhDioZ4lD5dpX1DOynVglslBlFp2zBcdgt68OfJEWuWgEKgyRzJCkzccoI5LC4aGkcPePVhq+TM886Re+6/Sx7e8hB6XIgbVz9rj583mxB7MkO89KeauDJN01EWBt8U+hE9xQutZjA7Dp3xaMXu7nmyYsUS+exnPyUXX3C4sO2l+2DVJ32T2RnGQWB2guzSZe2ybv2z5N///T/RdqgUX8bDkATrRe9I5zDncQ7zdzGHiVGSMsnVFGCe0OYwbUg2YElGjj84Cv5DPCoJTE2OOi2Ot8KUio/xI40LzHWvIOJ0x52bMff9XFm1CnstMSzPRl4osfRM1ypqUVbaZXFnlxzoH8Txih04xets2frwTrnz7rvQ+GKPlAlgIws9VDyt/GYko4ioPUnWSTF34gflOAg71ETChSmUOZ3jcuJJ6+Uf/+/fybrVHKgOShuLqOPKj9Qo4MsmF0eOmFe3/PIB+Yu/+JBsexyrhud0YZ/qQr1kms4NZyQ8EIx+S3Mpa59xTE0uAyu4LvGexKPEqi4GrCmuUgi0owItREHpwy0m733v5bg7LmUZf6azuVXmc9k6Sg4HfZat6JS//NjlcvHzz0UBRsu1BcvNsFiD83Gh1QzIdVgpYtxGU1uuppnZN1tpQWHKf2QQ12ltg+DbL8ccu14+87lPyPkXHis9A2hNV1E62CPBNJJ84Qtf0JWttm3D3hbSVN/sMXQvWCQ9uO7r8vd+VPbijNk4+jFRVtukR9LaziEnqnHMZS2Wj33iA3LJC54DwQt3ZHyxqiKBsduZ/kD8EbcRLHR66omHsEVpL+77XCuf/sxH5bnPPkyHoKPGfhyRothj3Y3i8+1vf1vzI3Zc+EEKRVQKHc+AIdOc5FstAujA8VCsv7t37ZbLL/8AFiKhZLCTGBPPpncuRAp27WKUJTS99h8Q+ejHLpP3Xn5ZVH/ZeMHUidZjlp1snLl9ycp6+h0HNwMf8QwCmuk6xcNpnhbc2YsV1M977pny7W98XpZhNNmEZfkokAdhuBklhjvovvbVK2TbtichKBfjCjBsk8O1ea6yCEyih8mCjV5LbkggVM8sUdXlWhIFLiKjUvZX3i1DS4r+RO7yLRGGog8s4m+aUZ9yzAtSeZ3NXMw/9mMub3RwTM4//2S0XFF/2EhNKbaW29s68ct5xWDB7UorV86Ts859Nno0w3IXrh+iVU9vD/Y0dqFyQUeBqYwKPczIn/pWzNIGNDW9pTurZ+WhSQsYj2JDGng0GJhxHpN6PrTnPYAc8mMM+rDcfHiwF63wxfK/3vAa+fSn3ydr16GmgeAcnAzCJkAIzcLEvaFDfVhJhyFD/JHFsL39zW/8h3znO/+KIUQsEuAmN/pSRkgaiV9oEM+snmblFNsY7AFw/oX7ZXfj4tt+9ATOP/9UXWylpy7Bc6DIsNADg4BlOW3RzEIPFVc5cZ7vmWeeLYNY4bF5890Ydl6gdHTrgfYY1GuVPyGc2DHTGeFb+M6l32Jr/jnnNn/uHN3iMDDQI/v2b5ejNh4uf4QTWT76l5fLWixe0STBQx7NwPoxb4fTXPoGWEA7MYcu8vdfu1L+8Z/+BXsz5+rIATEvfLQUED0+oXCzkaSLfubZop85GVfmmm8NH5nEHma5RT8T9zBBhGEX4UerAsVw08rqTxwvgMSTojp4FNzu3So4L3ruJsEgheJHDENNID9Djx7hcwSJ+zCpiDWyQ048+QQ5/oQT5M7Nd+AigL3Ilz1YeYuFM9juxO0ntk1JuaIKLPoO1NNvXTNUlL5JmoUJEAwigze1YwRFyy6E9dBQLxpZvbJ4YYf80R++Tv7qY2+WBThgJLhn6gIyzH9u2aKOfesRzI1zQRz5FvPxi1/8nnzxC/+A+gYBynqHodsxfCgfYcq0kR/KEbSxUvMojHzZjh2lP5julGJ8JqMsvyfjp5ZuJyEwQ0IbVWAmoE2cRRmGjopx809/Lt3zDpMzzjpaG5daNpQYCyNVGCDRT/z0YBPYOOYV5oHhXHrh6bJw8Vq595779LSNA9iF34lVeG3cBMY9XjoPCFwzhSgfP9NbQcvqTZelAfIUlrSMHYRv9py1wqAFMATht2nTSfKlL31aXv+ac/Si3TDkRzbAwRqGyeqUEKGwHNRj2dq013PDDbfJe96DljxWSHKosy26rZcT8BwUzq/iy+ALyhMqTQCqvjYwyNBa5Gc//6ksWLRcnrPpeKQjDMmG2Bk+aYoQmCNgcIjTIqxmOO/Zp2Eu80i55ZabZcfOJ7WRodsIlKul/U30nQsnk3dF/hLsgm2iZ1tmCHNlAA5DX/3K/HhG8V//zUflZS9/HvJjXLo5xgrFtCY+aRKYIv22ItNYrph31914p7zj7e+RfoyVUzAEhkn3RYoU7SkVmK9+5UtkeYUhWXLXaQvMoqiVMctiwHIeHOor9U1zPndu3oxDDcbkogtOEbYpIGsiZSMN2fLNRe1sCGJEWtasWyMXPfci9FL3yeOPPwKhuR8LsRag/uKQfwzTjOFg6ZaopRwFbcTjhuGkynvsu/TD6C/C9qpxNAg4vdCGOrZ39za56MIz5JOf/JC85lXnaW1liriYJmyoyaZvBMPVFLrc09yKcj+Ianvlf90tH/rgx+CJfKkdc9BsyDNEPPpmfEIM8ulhGZuUytWXSfqO83tSYdbQMQTmcR9ipUseS0KOMagbFkKzt1jk9ZF5DhhzXfKmu/RTIQMCEy+hUmJgFanEIh1Wme+QRDAiRK0Te7Ouu+Z62XDkyXLEEYfheDijSHwoFMLckRVLLtbowvBOJw2gTsX2lLPPeyEOMR+SO++6BxUNlRbzhm2gy9ynYMsOS+XxNL3lR1ZvulKBGXqZBicZLim048QFXgR74sknyTve8Wb520+9WY5Y3SW9HJPB2FV7dKJHYLSh6jEdpmgezkIRuX/LVvmTP34LGCawwlaTBV2L0XIlI2LYDK0WAhNUbAgbIc9Fz+GGn1wtRz3taKzOPVw6AABb00WK6xjnQ1jSlrEirzz96evl1LPOxUb/PXLfffdq44YLPvKMQDvmcF9ajnJhaTrhsKyKc0hdtIIgTcyU2xj2YuvMSejRvP3tfybv/+AbZe1hS9BTHJRu5BVDYykz96GcGQ2aguOBxY9iOehdv94ib/zTt6DHgTxCj3zevAVRfsBJobKY8J0VmPO4DxMCs9Ic5sEWmJYCSx71SZ5Bh7KzefNd6HwvkZOxfYTtOboJYyP8tpqrhiosgz3qPoQmF8Q9+zlnybNO2ySPb3sCC4oeQo+TQ7SoBbo+IfjLlx/T2zu4mvov08RnGMKO9ZeN0aXLu+XjH367vOtt/xPTKTjFIqOYimzayAOGMOrViniPQOj29IzKL2/ZKq973RswGjEfzxyYo8SxvkFo0n0S/4BKog+BJSUz6Mv+Kp/L1R3SL+uh2CLJ22L7mTaFwDz+Q9lALAn5xAV9zQVmNnDoLPwSCzWYtsAsJltiqgUDBacdpwB1gnHd/qvb5OjjjseewBUoRChT0R+ZMuMcYj0uHdj4PAz2jPYbT/1ES1Bk9cp2uRD3zz39hFPlN/fcJTtxa0A79kNx1HAM81YmzIgw8bXKEd5B+IRvsE4EpBiwAPKLcWGLkH7VhrZoWzJCYOY4M0fnN7iPj5vfj9p4BCb23yEfeP+bsHdvg2D0RnajBT0P41BMF1udITVMFx9TSlDZKtN1/8NPyNvf9h6sjt0iczq6waTb0CjgoprgpyYCU1OFdDGRDBnpmTe/E3td28EEb5enHX+cHH74KmVyFsv0m8ywF/izDUBxwAVKuOVIjlrbLS+49AJZd/h6eej+LRi226vztVyQFRbSANuoIROVevgOCKfp63daYJLRgEL8wI45g7W5Md0odyL9CA7CXid/8Z63yuXvf6Oce8YGbWj1o+cyH2Vuz8AuDI1ziNvCJi3SDyrowNUR7lM7+3D6zzuxKngbTjjqRs9hXA709GLYjb0GuI+eDMNj3Gmu+RzizSHZsTFcBdU1OYH5bayS3cdRBgCtZRgfXC1riEQBIThiaxFi2El6qKukKrnO23O0ZxHm5G6//TYsAjtcjjvuCC0PBkg6hswbK/1hkwuGZ9HD5+mQR69fLi980fNl1fLDdG9wX89+TLPshwDG+gVWnFy9Nb2+kShLcfYdSgfzsejhVBFdhHlKxg3zpaODciT2if/+778Gdfid8rwLTkTdRRlg1zijqOfDEENfk9adYDq87m5/T4tseXi7vPGNb8eoGM5fRraw10y35CfQqjI+qKRoy7SmFONdlUrXk5SHKn3HPpQVxLr6f7SsOvLFRHTqSplEFd6VwVfhrpKTKYbHIcKgWIUTlS8AiQ3KIMLizRxafHDYdUfnsHz1G5+T8888QZ1RaHIWJFF0G4qAFQS1xY/2WGC4dcsunELzU/nWt66Qzb9+QPrG0QsYn6PbIDp4thnUCIZLB7H3jpPu83HhK6/W4gksjCvnUEgrKKQFQyitPJ2Egg72OlSDuQnS6O/bgcqEudOuNjnjjE04Qu335OKLzw11CARiZoZ4WX3LxBtuwG6lF7d/jI2i1wwmzhg+sQe3PfzZ+3E6yk8wH4qNzcCJPRyevxkaEHCkeHMxAkVVoibCO3GVfOmdj0TV0owGBnvxHRiunDdvWL7y5Y/LeWeciiYKxtugeABFksOBUZhX2nNxVqzw/fijYzgz8+fy9a9/Xe688061YqXkwpEOpO0AthVog0SX5QfPTAMxN2WXawfBzjAidxiunD8HcUXeMT94EDbfpH3mmWfKq179u/I7LznFyOTeEQ1leInVCG4qmYetNix7+7nLHMv/9+wZl7dc9na5/oafQdBhLyzKxDhwZzo4GkA1Me4UukHwjuDKq7b2IVmB1aXf/7dvyZGHYQohCb7ki3t49+8dkee/4A3y6OPY0oACw2ugRrWk6HEgUXkN9YQrcNlnDg+xshJXQnr6Bqy/LH+Y6+toH8GpSMPyoY+8U17+8otQSpAvqKtsroaZTAbHtbRBWCRlKNSTdGT27RmVK390pXz/B1fL3Q/ulPvRSOE2Jo7ecG6TWBvexEcpax3FFEEfFhFFimWIayboljiMwi+HeXXxEHkGRnzmoLwP9R3AyFabnIUTjC594SVy9jmb5GknLNbFdvN4rkBZRf6EhUFILWPBEtuDGQDuO73zzn754z9+E86K3aZDsEpCeSt5CjCIsiVkT4KGpcvKeMhV5mMor3FUYn4bmxR+JLwsstY4FDqdnGFJ+BbTJC2FBCuE7wIThbWsAngUmmT+2ECBEoy9WYtb5ZN//WF58YXnKCuLFp5HJEJ7lRpSzVBmeWKeRdxnGF2da2+8Ra75+b143ypPPPkE9kHugwBijyIUwFDxuEUCjB8Vb4wVKBKqwVErBAeGUTBMY9di8SBxLgpYu3YttnocJpdcdDLmKZ8mT3/6SdHcRcLolUb0YwJTE8Xwo8izeGHLMyocjlnAaliuiH3XOz8uP/rh9ajcGPLsmquLLHQfGNxy/iOoUEBrIzCJpRX4QF0bILjYe/GSEfnUpz4gz7/w/JSLUHlDTJCQXF0mBWUIMNd0441FlXLjjTfLzbfcIjfccIPs2LVTdu7Foq8WLJDCcHMnthpxARJXYXLVpTI3fkBxkJqKTEMXg6g9epU4MGFsGHnaNobezWrZsH6DXHLJJXLa6adhjyhWvsId2xsTqUwZQgpxHDj2/g7JIPK8q2O+bH1M5M/f8WH50VU/1jh2Yl8t1TgSxjy0g9vZ6KIyhqea+AdI6aXbaKyhB9PSNiirVs/HbTHflCNXY84udlf6wXK5d98I7ocNAnOMAhNCAOIJjjG3SowV/5B/9RaYQUyg4YbL4FtwLFzn3CG5/APvlDe89iW6OpZCk9HTni/ia3iz7FhJjlNNh6k63IPLUe647ymtv9dce438GidLEWcOd2p9xDTHYu7HRkawjrJ8pPG3xgKFJvffUoDywgCe3cryxmmd9dhWtOnUZ8iLfuf5csqpx6O+oczw1E5GBeWHo1TlFKM6ODKA+di5sm9oTBsDjP+Pr7xP3vWuD2CIeRsOY48OG1FBwXKQCEvSDScdJSFY/E1AhlyFu9kjMF+kxTmBpKSYJFZFXwp0kUXOrETim71BbvoK4U8xvKSHaeGEtxUAa+lYyyrYoiDzEOZYYA5hM+9eLLvukL/51MfkwgufLd0cDkkpVjimgG+rfLE1kYYhhSVX8ZGhDcHxEzsF11k9Krf+8pc6dLR3z17Zjk3ne7GHYrAfi2tQ2Nk7GRwc1IoU00Prc9lS7JfCfr1ly5biWqxuOfaoo+VZzzpNTjvtWbJieYe2JofBBFkB56IyY6SuUBUJTDol22ObmKncvntMLnvL+9Cz/LmsXLEO57z2yKDubWRKLR8t/4J+2gIzqohxDxMhUWl+If19fU/J8mVd8jef/oSc++xN2ILC/X+MOXrimhO8cUK9ZH5MYJI8193wrkCmgg+HN7c+9qjccusdcv31t2KocVB27t6LhU0HkBdDWFAzgN77oObH3Lk2qR3SzbCYF2vWHCHLMMd0yqkbMI/9NMyfPQPmC9Dg4QgC2k1gdFzPwxnIIsV5S6qEhQdXDMWS8/h2DMP+yeVyw3U3y/qjNmr8GC+qqgUm66X2LkM5Zg+zBcJl9Zou+d53vyXrITCL8NNAEH8TmM+HwHxsG3qYIDMMAcCGBoX1wReYIV/CtpAh7T0PD++Xy972p/Knb/pDXdxDmUNM0yWYvoJPTWn4oSMWECoIq35svRrCUUE8C4BLALZuOaANrke2bpV7fnOPPILWzP59A5jjH0YZwxv11/iN0gD2bISxkdyFkSS+V68+TDZsWCcnP+MZcsyGI+S0k47V03fmUUhGEaKg5HaWcBmBlQaLmFLWH6bH0sAeJrzJt791o/zlRz8pPfu58AejMR00pYpSjDwLQjKFBnluxL/D2niGH+yNr1YWmCl6IcAQqkXfzKrl7+a+3DuKb2JdHH5iH31VCB89TBeYhMqYQonAVADZw0SRw35KzItjbmgPhnjGcN7iu+RNb3xNBnMWWxY9vkuKcLrCwX6AZ3dhZQFGW2QP+BxkGobbMGwC473o3fRg/ITDXf2YiGPLsx/dO7ZcTTFOJz/jGNwa0oFjvOZje8JcCE9UDPjn8niyQLoeM6EDgZkXPEarnMDc3zcmS+a3yrU//4381Sc+LXf86h5s6G7DMO8SbPcAW4895gtk0M+swOTw1ziE1369q/Py910mb/jDl0ZzVByKokLLPV8pYWr5PIpFDhwypWKMgx/kMXDuQIYARp37xHSg9rA5hNWLYTWOBvT29mOrELbhmEJZWb58OQ6sXyKHrZ6HAx3gB0S5PJ+LqUy0GlIMlewqHT37Licw6Zf5+sOrbpJPfPxv5dd3PYz0zpdFSxajbGDmLboCbXICE6m2HuZkBCbiwYMW9oD5vuCSIDBH2cPkkOwhJTCj+ouN/e2ot8Mj/egJDskrX/lybKf6H9jvulJ70cSeD/OF5cDKAj6DIvjhrD1kAlzBwX4seJuLhQCWj/RjdPhx/33YCoUG8n7cG8j6y7KTEGPjajF6jV04TL9bp1/WrQ3dRwpxi0fkQfdMc3sVp2uodDokLj10nVUWXa7jwRkq8tnPfBP3W35FFnYvl107cYRnZ4e0z7FU8q0zpvrO1AbyQBeYCu7kBWYFCZzNsgJdieQvcDORUbXhl4RjbCpLPNPiy1hZQQqGYUiQQpPDO6wemG/AfNRZZ52Fgwo+Ksdv7KRI1ULOAjqEQj2KmwIWd+O0f9YgK8/8por0jJUZ0di+LbbmjXZU2VjFZIJlgX05+rGH3AeirC1aM2ZK//PHd8v73/8h2fro46ikGBNK9UhKY2Q+w9uGAs20PN7movhdLOiBBsoDMRkbx3aZ0R4curAJQ27vkuNxq3zoMwV6XMnLK8IWLGCfGe4jYMkiNC/VNP8TVkBbphTHIeXHMg9GOqTNMDQcir8QoPUYo+CNtBLJ51WgzCvMQyxJnv7+8Z+vl7/5zP+HI9yYHyhf6ZRG9SNOXzQUG2jBf04fzIlgKFm8Fi3dw9y4Cg2CVLqMjr4RmakLzECppGeSCWAamhyf0PqLEQnmNc9v1lEjdNVOfsZJ8ta3vhkL4I7FaFFoYLJ9yd6/5VEcizwOcKCLSjMOg6NQf2FBrfnLuIup6kc+W+g05Arn5o0bWD6FvCqIYYYop7jnogFz6+07cVbux3G70J2IL0RxNF9Nx4qF+gq0ubTIyoIa536s/Fi+WcxMHzsvy38t7sFlSWM2l28xvcl+VBl+CdkK4WOV7LEfynqaIFfVYSX7LLUSXUWuU+IjZ1Bl+CXhWKnNkrMCkDWlLhuOHm6gpRpMFIWOTys26T+65Qnc9n6DrFl7nJxw9PIw5Img5mCuaz6GXUNZz9LSsCIjRpPnU4a2HYtreDisaN9kslaM2fK0b77pn6TsyUVb62pB6BqFoh8mkZ1GDuxt24FbC973WXnfez6CZGBBBLfCsC2uhcqo2ruIGuKV4wR5fbGvUtPiUGgatl5wdW8rhrd+c9/98stf/krWrTtGjlqfLLVvR4+gcw7iHhFSgQbfQcslNEUKPXL8KeY5nOmv5IEBk0tzYsj8oYZ5GShFBsGYmoyiv3w8RjEP2oaFK5D3smXrDnn/Bz4tn/vsVzDEh/lr3OE6VlLBSQV0wqtK/Ok4eGBvmFeCLejulNe8+mWyJGpgKNH8D7yMouwO4nAPrpI9gIMrxnHghZZcxNmwC5QJYGho5snMjD6EarQZl5BGlt/oQS94B64E+5d//h6G2ttk1Zr1snJZWC0+hP27HRhaNlyUTpakGvEKLQrjpK5G9RcVU+stMiJdX8t+g3bajmUuBMcxIuJGRRdmUxAZdRN+tPEFJ9/81vW4I/aD8tjj2/X6suQOdlgi75LqCT1xidcgpIilPvP1N19eY6dl+W823lkdfZeaxDQn81Fl+KUkJw7fBWZSYnLYsSjYE6pbKKxWaLHODi011CvZsWMX9gbeIA8/ukOe9vSTZSnmOKl0O0FGuKhx9kdLHDMp+wQGa7+JbRwli1qamtKCQcqOjNOM007tWytWygtb1jswd3rV1dfKX7z7A5ivvE3mzVmMFakLdUGLrcYlG2DlCaKGITD+pSpfwfL6Uh/FJmWow3FIbJi3hFDE9WoP3L9VrrryRtm5qx+rCZ+GYeqQH0o5AiMWKBrvwO7SLIsskOiHNZPskcC3tk5AQCtjcYw0jJRVwD/kYxojc5LHX/3jJ4omBN8Y8mMXVmVeK3/+7vfLj6+6UZn70GCrLFq8IgzRZ5hDoBynL1e+i/Gnn+BvsgKTK0z7Mcd+xRXf020lQcZw4UhaYEb9EI2npcxSOkPvXF5p6igQTOjYKAlWwQ8ODmP9wK1y862/kEXLVmDr2DrpwsKbUcz9x6uhLdr2tmhDb7VU3xA4uh0EGcDeUxCCBUIztgtuNAdIK3qi7EAoEXY6isAxk5BPcQGJtBYdvtnb+68f/Qjblf4SJzD9AAfK9+CMWQz1YoXQGLvEpIFyRZUUDxJCbBMDtc//5MsPqRWqTJmkC3OZjXBWR3elJjSdtKoy/FK6E4fvQ7IVCkgAlJWAXyz+UOlWPZaBt2Piv7cPyyxx3uTK1Qtx8s1lcgE2O69Yjq0JrKNQ0Sto+Gv5QrpWlhLb8l90a36LXNHO6EXRtSpH59F0pvokU8Wi2oy66aZfy7e/c4VcefXVuLIL+zhbV+D4PASJHvMCnHLShyXuaWXzozE2aUt8z+yQLAMLibShHW7F4QKKPhxryKvWNm5YLO/68zdjH+z5sgK9hzQW9F2SLzSEortAGS2iaIGDmagD/qTLgRpGgMcOoMe/0bJ3bI0PmvExZdlh76uvuxFM75/k6mtuxOIR3CnR1o3DGxaCyXNVJYhzmDFifkojitP0hmSHsap3ERb9fFM2rsaogkXGImlvlB/2f/bsE7n0Ba/DaTj79HYQzmFyIJmJb0d8uMnEFBerpFXJUF7asobfulo4k18hr0aGBjCX1459qwewoX8I14W14XSfs+VlL71ULr4Ip1/l45DHgnqrVMZLTJ/3m9GzokIZPUbHvmlOvTqxIVniidhoeHQQKbhLl5/f3PsIznX+ovzgRz9EtHA93g7cpLRoNeYqOzGH2quN3NiH9jCjeDBA4JNfFWvB2NsEpuWbhW16c5cpk2poLpmwRFm9jU0yeRSbTv4jXSfUd3H4JYQrhD/9bSUlIc4CA4BqxSyklv0RZgi2X2AOqB3DUscedzSON3uRvPQVz0Ul7MA9kknVI5Oh4iIQpZOvBGo7wU9JYaDbqECw0pKeugGrwsKcVuyPRINfAxtjlxhueUA5FwfhMhAsJsDy+DseER7Yfe0118EeLpQMKxHPyg2zgTTjtom0KinwacsZ/C5pQCKsuNLGrQDmxwEMxbbK0552rLzsFS/G3scXQaBinjYVN6xbUb+tPDaoRGEJrWGrXCztIFv5iwVo1s2Y7ldFX4TGePZjQUgbGPYcnGtHlA9geJN7aX+FPaFf+/vvyHXX34bIoaSgzI1qtxEjGyoNjS4iD2U9StVkfsxdxjDWhO1AUWRgOgQBMjjUL8cee4z8x/e/LLwcJixpib2kPlCo8L8TbagLnvN6efDhLbr4iA5YI3QfM8qjbs2KfCUNrFCObHFTiujMfaaZYVxGEBzrCpee4q2rT7ENaMWKZTgO81Tsk71QLrrodD1CjjMsPI98EQYsWMUOYJx8IU/+SKts9UjbVPedI6ctdYyjcv8uzx2ei/2eqhAOV3djZ5HuQP7VHTvly1/+ilz146uTcNCLHuM+H/amI5UvJ3GdiR1E5cV4jGEW6U1gxs6tZWYG5s/0TfZ2gTnFDM0z7LTgGEGPhJfitncMy4ZjlsvLX3GpvOhFL8Ih54uwJy+wX9YLDhSGJSipSLAmFqkJC2K6lqZrHL5Z4EkzzTfBGyj3nty+X777/Z9h4/5NctNNN2nrk5uvqUhRe6DRnAYZoJpbByGKTzrd6qBOP3n8GaxVfr5pH18yO4b9kNi7iC2rcvgRq+XVODCAp7asXbVUOHqOe8WDAEtDR4Kqp0AKQikLIh3kVRpk2kV6Yzo0Yl6QbhQWF12ywYIdB7rq+Lv/9l255upr5IYbfwLB2YltQWuQGTgQG+5N2Fg6SS7kFBh9RC+YpX/zcUrbIRoKJN0Ed9rgw56Xbiy3vupHOLhgNazK0UbceT7rHtwI8sIX/QF6mE/i5JuEOZMmjwIIKtC3NIR485eAHASVFpgMPqUnlqy/rTjsYN78Edl05ilYUftKOffcTVhhGhq6jPUA8o2r2tuJIRuqxGm6ySGNiRTrXwTp7t0j8sNr75AfXX2j7h3mKtx2ve8yIdAyyoFiqKgMJj3IwDNC4wv2xl+srJbRu8Cc7kk/Sd7Mqq8ihp0GQCsdjhgbGuGxa7iRAsOEZ5xxBirdeTht52J52vpO2Y4TcxahhagnWxlfSROJezYZw5RmYmYYO0QlJj9gI3r7k6Py85/dLP/83e/J3XfdKw9veQzMcRH2kqEnCQdhqToZGQUO3jmBma9gLSlGE4dXh48i/E2Q2Jup0H1iWvlx8AMX0ICfMz8WdHfJeWeeLpecf74878LzcS0bTmkB89c5OMafXMaYl71priowG9NVfpfmEykwPx59pE9+efvdcuWVV2IP7h2Yf30A2xTQo0SPcxhnwnZ3rQQPDkIIZw5pUHayEDVh9XbtBCaHJ/vAeJcvWy5f/crfyeqlc8CfcYC9CX+NQfhhvHrQIx7B5t5X4xSpvXv36X7fgA7T3DgCMykzIW1hf+GYrESj6rcP3i/zcaTOYYet0YMnnvGMk3FS07NkCRYoL8JoRQcWM7VglReFSV6gpOCa2ieznE9UhPbtHseZ1HdpefnZTbfLzXc8IB1YX8Br8FguOrjvLaUoMIOyMmjvYBqXpTIC0gStCdR8+mJ+YGEaHdM32dt7mFPM0CKGnSYVWvxj0oW16iOYBOQ+Sh6Jtmv3Ltm4cSMOFjhdnn3eJjn+qFU4a3YxrgRbgh4pGo8sz1bG0wSr/M573fb4mPz2gS1yG5gx3zyWb/9+3HXH4R2ckcX5V1YaDgOOoLvDU0ZMWLKW2oiLMcy4gkQV45AXmK3oBmiKCOAY0oztP9hecqBnH/ZJdksvrgw7euN65MdpcvbZ58iJTz9RVq1cgdEAOCeY9tD7dFSQdbJte4/89re/ldtvuw358Yhcd+1tEDgt6GEO6rYX9uwoGIeRHzxukKcMWT4YU4+ZHGxqJzCZuFasdN2P02kWq+DrPYBTijBHynN7rOFEV1QmFHWOGj3SAwd6ZQn8DeHaqGDPgtzIAlOTgUYNDvlDY5LHMVLxUJElS5fK2jVr5JRTjpdLn3cGTtRai4sA1monE9WnpvWXh1xseagXZyffKVu2PIzTqH4q99xzD6662yXzFy2WQeyJbsEB/h1gHq1gHrwKL61cYKbRmP63C8zpY6gU8gI0CExaBdaSb5mxRcpDlTmCddiaVXLMMcfqcXYbN2zAcVVLcaj44dgEv0CWLM9GkPMoaYVGPRbiBIHcj6u7tuFGhUe2PqqV6pGtT8m2R7FZGodi9/QeQKXH6SAqkLmcHAyAQk+HYDAnyyElKD17E+/Qu+RHIjRpTyZIZUw7zN1CjyGsQ0HZkF/gb+hhZgQm4m5DTsrMeVxYhEMUefbu1oAZHnPMMciPVXLkhsOQH4uRH2vCoQRLoiHHqGWSzw8ecNCPDXC6Ub1vVLY9thf5sS3kxyOP4Ozax3AgxQE9lYeNjw5OQjEuEf6GoR0Iwc0JtLeGSx7n/CIa81/t2/I9cR/yl3peem75a+XY8j+4D2Xb4pbQ4FegU35I1ihkGXyWxszrsuUF4UXlw9KUyRfUF6sfxIONlUEsglu8ZAGOElyFBsMSXCH3bJSTJVp/ly1bJIuXzsWwLtYwLMQ2MzSI2XxLKw7H8yyD/bi5urcXl4c/tV1P+XoY88Hbn9wp9/z6Idnx1H5cD7hTj2VM+2WN04ZMXKZL9XFuxukKJkn9DRRNH9Mv7Cmm0x/5O0TqfRzvGf5wgVkjgCsJzImC4QEH7GEM4N2FE3t4CTKvferoHJNVhy0G5xqKK6pV4MDoWmXXrl3Bb3T0lt2SztZm6/g8ML1FYMZ4Q1gG5sfDyzmEpNUN0aI7CspEYMbCErbWs0zin69wgWnmGXnivr5fWQZIgYkejzYMIOhsKwGZuTEZ2LHhQkUmyR72MLgY82NouA/babAYB3tteGwZz5FdtYqTemQcAS+9yBcmpg9HoPXrsOYQhit795M2D8jnMeiRlIWJ4oXVRvTfhrwy/7BSZfqDKTAtLuEdMOJ3pqwXMtbE50QCk+VsugI/CWlqX9nyAhqxYAn0rL6pTstRJIKidPM0qHGUF167xVEBlhuO2mh5Qbnpxn5WHpw+D/W6k/Ua5SitenChO/3wYne+d+zYgbKA8sAhXpSYthbwA5zuw14uy2b6pK80HfvO11eNrUxanGAAABPQSURBVJV1OLKRAhOQUWriBrDRsSHYWI8yT5U0GILNoVLvQ2xm/jdqLs98QM0eQtKjTKcUhSw6XcRMreVqLXAOpbRg4mwchwK0YCXtoqW8U5ICdEB60FM50IcuS6SskHOvHFXYrM8iD8Ewhn1jYziTEvORdMeCzMOdx3E49vhYj06DsDGoBR770dpYibTSh3k+6+CgnjaFSnBOJ4f7LVnk7cEnsOQfFZsQ7djHyY37La3DaLDgyLnF88AMwzm+vb0j6B0+GdzmWtbEmwup9PB1YD6KoTzqFy0Mh29TMIwhX8j4OFfMPNLlGGgM8Yo3E5BKHD+BUSOPxuA+yhO+c8GmRLD5nO47YGFhFlFLep2RbUqQWPEhllQJHcPYXAT7Q+U3jmckCON4WcWIysgYV4il1AFc8dXBQ/kx99vRDuE2B9f74S7Tnv4DMoLGUk8vyxNOYG0PWzooFNOKIxosM6G8YAqna21Ud1F/o0i14L5WNpzYG7UV6/yqRqkAVchNNFbjy92UQ8AFZjlkZtjcWmaDQ6ECcd6KrUpWKN6ITuZK1dGeOqsU+iHYa9FHxVYmC6HI/XhtPMkG1xt04EDlUWxtYUt0BC1eq1gUrmGFHGsPKeBhEKCjwh7GdrNFzDxg3fgqSicbCKmWdjpd6cYOe4iWN2xccFP7CPba8nozYsaDERLFTe8h/4gqh7spkluQF8yTwCh51doQmN2o5iv3w/HkdZ7uRBXEpnI01ed/LC/snbevv54NrBBqNK1XFtd03MzPzAv8dKjT+TaBVD5vWLc60JukTB1BI6kFeRwORMd8IurbKK6g68SQOxuuem0XosNeZrpxxLYvG0ftaCzTnOWPC3jmQZDyzQP/edD5CE93VxXi04KbTaxuJ+/ISfxCgXRVUwR8SLamcBYRs4JeZFdqZkNEKtBgnTDvbMW1oaLEfaAVzJMws/Zk56ZYmSB0Y66HEGGZH3JJKne28lm8rLImeqN/qLwTLBRTFZrZtJSPKfxGgi3BIe06oWO9/7QtvxV/0LD8MvssvSSObDTFKoqrCZvYHB8WnvX2pop/Nh7pEKr7zgzPprxYI8TmYom9lr2oIWhOsdzMPvWdKo4Z8/prLE+SPC6Ng7lJbLL1LTEv92XlIsmHEJ7pQ74mcbDbQkhvDFMrQZXGI7LAK/GbdmvlxfA2feKv+MviZbbV+jP3jf72HuaM52C+wE4cYJpfqks2XydQVuGyTpIw8/QS5qvdS3hLRCjtLDirSFm6jahLsNDYqwCciMFMJo0pOuUkRwrfIsphzomrSSNlkibSJvllDg61t8U8hUVBFJNSVmDZsEZM+8TprmhvFc7eBlSsZ/1nGIZzAlYrpmGC0KwmHok//5o6Ai4wp45dk/gsrYhMmDHq/PZQE6TWUcjx9ybBpP7JMLZrfLL+Mah9iNoAs55lRL6kvJiAqH3w06RYXC+mSXQGvVt8rSTNYFCzmLShPIsh8KQ7Ao7ATCFwyMrDmUqw021qBLyH2dTZW0XiShbC5IaAoy6P9SzzFOORyIgzlvQg8h4aVG9zNfk5HEtOOfN8i7ScO6PTuO98SpESlAnrMZvgjMtLlFAzb9x0Z2NeOkWSH6PJurcRe1sMFeNlQzj5ddB6RVqORkZbkA8Z++lq8vRtHnW6dBvDfz71jRFrj6Uj4Ag4Ao6AI1BnBLyHWWfAD/XgrCdl8bQeQNzgjSwSd+bCfDT3O0n31NKZ9x/uE03RqnIKyuiU+E+RqubT6FTjttCNdY1yljTW0YYoPfHIQ959bkAjR2bWaUvzI6pfhluui2PGVQMVdfEtnMn6t9XZcXizLP9y8Mcw+Icj4Ag4AlNCYHY1oaYEkXtqUATaJ7tvqEHT6dE2BEq4WXYOIj8HYy3QEm+5lmVcjkocWsDN8c7jUylVMS6Rw7x/20cZ06kSvxz8Yb9nTKT6j3x8qvcZXPIKtXKKrfHY1tJVGvGM99h9xvRQ1uQTlI/r5FLUqhfX5mlAH+E8Ppbt47RMgH8BlXgXWT7W+XJa6BeGduCG2Vfrz9w3+juLfqOnxuPvCDgCjoAj4AjMEAI+hzlDwDYq2dnWYpxsPk0Xn+n6n2x8K7mf6fjYCEW5eOR7OuXczRbzivlRAqh13euDUMX41ScaBy0U72EeNOg9YEfAEXAEHIFGQsB7mI2UWx5XR6DBEPAeZI37JJOds2yw8nKoR7fGuXmoJ9fj5wg4Ao6AI+AITA0BF5hTw819OQKOgCPgCMwyBFxgzrIM9+Q6Ao6AI+AITA0BF5hTw819OQKOgCPgCMwyBFxgzrIM9+Q6Ao6AI+AITA0BF5hTw819OQKOgCPgCMwyBFxgzrIM9+Q6Ao6AI+AITA0BF5hTw819OQKOgCPgCMwyBFxgzrIM9+Q6Ao6AI+AITA0BF5hTw819OQKOgCPgCMwyBFxgzrIM9+Q6Ao6AI+AITA0BP0t2ari5L0fAETgoCEzufsnSKHofoRQTN6kWAS891SLl7hwBR8ARcARmNQIuMGd19nviHQFHwBFwBKpFwAVmtUi5O0fAEXAEHIFZjYALzFmd/Z54R8ARcAQcgWoRcIFZLVLuzhFwBBwBR2BWIzCJVbLVrk472DK42nhavlcb32rpVkvPws+/qw3H/FUbXrV0q6Vn4eff1YaT92d6D9+QmNp7svhXi3e1dKulVy511YZTzv/BNp9s/KvFq1q61dIrh1O14Zj/asOrlm619Cz8/LvacMxfteEFutW6Nur+dgQcAUfAEXAEZiUCE/QwJyupDb+p+jP/h8p7qumYqr9ap3uq8Ziqv1rF38OvFZLTozPVfJiqv+nFNvFdqQ9wsOOXxHTir6nGc6r+Jo7N5G2nGo+p+pt8DCf2URyPSqVrYppu6wg4Ao6AI+AIzBIEJuhh5hEolrh5VyIHWwZXimc+fnn3eXtLYd6dmeff5fzn3ZXTVwonTz/vPm9v4eTdmXn+Xc5/3l05fbXhlPPv4ZdDpjrzSvjn8c27z9tbqHl3Zp5/l/Ofd1dOXymc6dIvF26tzCcb/7z7cunLuysX33L+y7nPm1cKJ08/7z5vb/Tz7sw8/y7nP++unL5SOHn6efd5ewsnuCtna6787Qg4Ao6AI+AIOAJAwAWmFwNHwBFwBBwBR6AKBFxgVgGSO3EEHAFHwBFwBFxgehlwBBwBR8ARcASqQMAFZhUguRNHwBFwBBwBRwCrZPOrhMqB0iiydbrxLIfHdOmWwzVvPt1wGj3+eTwmq58ufpMNL+++0cNv9PJTLv75fJop/XTzv1z8p0u32vRON5zmjv900ak2F9ydI+AIOAKOgCPQ0Ai4wGzo7PPIOwKOgCPgCNQLAReY9ULaw3EEHAFHwBFoaARcYDZ09nnkHQFHwBFwBOqFgAvMeiHt4TgCjoAj4Ag0NAIuMBs6+zzyjoAj4Ag4AvVCwAVmvZD2cBwBR8ARcAQaGgEXmA2dfR55R8ARcAQcgXoh4AKzXkh7OI6AI+AIOAINjYALzIbOPo+8I+AIOAKOQL0QcIFZL6Q9HEfAEXAEHIGGRsAFZkNnn0feEXAEHAFHoF4IuMCsF9IejiPgCDgCjkBDI+ACs6GzzyPvCDgCjoAjUC8EXGDWC2kPxxFwBBwBR6ChEWgfHx9v6AR45B0BR8ARcAQcgXog4D3MeqDsYTgCjoAj4Ag0PAIuMBs+Cz0BjoAj4Ag4AvVAwAVmPVD2MBwBR8ARcAQaHgEXmA2fhZ4AR8ARcAQcgXog4AKzHih7GI6AI+AIOAINj4ALzIbPQk+AI+AIOAKOQD0QcIFZD5Q9DEfAEXAEHIGGR8AFZsNnoSfAEXAEHAFHoB4IuMCsB8oehiPgCDgCjkDDI+ACs+Gz0BPgCDgCjoAjUA8EXGDWA2UPwxFwBBwBR6DhEXCB2fBZ6AlwBBwBR8ARqAcCLjDrgbKH4Qg4Ao6AI9DwCLjAbPgs9AQ4Ao6AI+AI1AMBF5j1QNnDcAQcAUfAEWh4BFxgNnwWegIcAUfAEXAE6oGAC8x6oOxhOAKOgCPgCDQ8Ai4wGz4LPQGOgCPgCDgC9UDABWY9UPYwHAFHwBFwBBoeAReYDZ+FngBHwBFwBByBeiDgArMeKHsYjoAj4Ag4Ag2PgAvMhs9CT4Aj4Ag4Ao5APRBwgVkPlD0MR8ARcAQcgYZHwAVmw2ehJ8ARcAQcAUegHgi4wKwHyh6GI+AIOAKOQMMj4AKz4bPQE+AIOAKOgCNQDwRcYNYDZQ/DEXAEHAFHoOERcIHZ8FnoCXAEHAFHwBGoBwIuMOuBsofhCDgCjoAj0PAIuMBs+Cz0BDgCjoAj4AjUAwEXmPVA2cNwBBwBR8ARaHgEXGA2fBZ6AhwBR8ARcATqgYALzHqg7GE4Ao6AI+AINDwCLjAbPgs9AY6AI+AIOAL1QMAFZj1Q9jAcAUfAEXAEGh4BF5gNn4WeAEfAEXAEHIF6IOACsx4oexiOgCPgCDgCDY+AC8yGz0JPgCPgCDgCjkA9EHCBWQ+UPQxHwBFwBByBhkfABWbDZ6EnwBFwBBwBR6AeCLjArAfKHoYj4Ag4Ao5AwyPgArPhs9AT4Ag4Ao6AI1APBFxg1gNlD8MRcAQcAUeg4RFwgdnwWegJcAQcAUfAEagHAi4w64Gyh+EIOAKOgCPQ8Ai4wGz4LPQEOAKOgCPgCNQDAReY9UDZw3AEHAFHwBFoeATaW1pa6pyIsWmG5zJ+mgA2uPeDXX4OdvgNnn2zPvpefqZXBA4ufi59ppd77tsRcAQcAUdgliDgAnOWZLQn0xFwBBwBR2B6CLjAnB5+7tsRcAQcAUdgliDgAnOWZLQn0xFwBBwBR2B6CLjAnB5+7tsRcAQcAUdgliDQLpJfdXSoy9Cpxjfvr1wOH+z0VxtPi3+18a2WbrX0LPxav6uNZ63DrRe9fPqqxTvvr1x8q6VXzn+14Zj/asOrlm619Cz8/LvacMxfteFVS7daehb+ZN/5eFQbXt5fuXCrpVfO/3TNq43nVMPJ0682vcFfta6nGjv35wg4Ao6AI+AINAUC6GHmVV4C5+2nq69WRufi0RLpx6fov+po58Kt2t+h5nCq6Ziqv0Ml/ZXKx3TTV4m+4ZALZ9aV31z6DZaK76n6q0h4kg6mGo9K/rz8TDIjJunc8M3lQ43qn1GfZKTcuSPgCDgCjoAjMLsQaBeTvJbuqntw5uFgv3MtCSnTBsins1y0D3b6K8WzJH6zPf3lMrJRzA+x/Gv08tfo8Z90sT3Eys+k45/zMOn8y/mftHZy+JWRLpMO1T04Ao6AI+AIOAJNjYALzKbOXk+cI+AIOAKOQK0QcIFZKySdjiPgCDgCjkBTI+ACs6mz1xPnCDgCjoAjUCsEXGDWCkmn4wg4Ao6AI9DUCLRLyarLmU5vflVSleFVHc8y9Kv2X2V8ZsrZtOPp6Z+prAl0y+BbKdCq87UM/ar9V4pIBftph+PxnxjhMvhM7Emq59Nl6E87XytFsEb2047ndNM/sX/vYdYon52MI+AIOAKOQHMj4AKzufPXU+cIOAKOgCNQIwRcYNYISCfjCDgCjoAj0NwIuMBs7vz11DkCjoAj4AjUCAEXmDUC0sk4Ao6AI+AINDcCLjCbO389dY6AI+AIOAI1QsAFZo2AdDKOgCPgCDgCzY2AC8zmzl9PnSPgCDgCjkCNEHCBWSMgnYwj4Ag4Ao5AcyPgArO589dT5wg4Ao6AI1AjBFxg1ghIJ+MIOAKOgCPQ3Ai4wGzu/PXUOQKOgCPgCNQIAReYNQLSyTgCjoAj4Ag0NwIuMJs7fz11joAj4Ag4AjVCwAVmjYB0Mo6AI+AIOALNjYALzObOX0+dI+AIOAKOQI0QcIFZIyCdjCPgCDgCjkBzI+ACs7nz11PnCDgCjoAjUCMEXGDWCEgn4wg4Ao6AI9DcCLjAbO789dQ5Ao6AI+AI1AgBF5g1AtLJOAKOgCPgCDQ3Ai4wmzt/PXWOgCPgCDgCNULABWaNgHQyjoAj4Ag4As2NgAvM5s5fT50j4Ag4Ao5AjRBwgVkjIJ2MI+AIOAKOQHMj4AKzufPXU+cIOAKOgCNQIwRcYNYISCfjCDgCjoAj0NwIuMBs7vz11DkCjoAj4AjUCAEXmDUC0sk4Ao6AI+AINDcCLjCbO389dY6AI+AIOAI1QsAFZo2AdDKOgCPgCDgCzY1Ae2trS3On0FPnCDgCjoAj4AjUAAHvYdYARCfhCDgCjoAj0PwIuMBs/jz2FDoCjoAj4AjUAAEXmDUA0Uk4Ao6AI+AIND8CLjCbP489hY6AI+AIOAI1QMAFZg1AdBKOgCPgCDgCzY+AC8zmz2NPoSPgCDgCjkANEHCBWQMQnYQj4Ag4Ao5A8yPgArP589hT6Ag4Ao6AI1ADBFxg1gBEJ+EIOAKOgCPQ/Ai4wGz+PPYUOgKOgCPgCNQAAReYNQDRSTgCjoAj4Ag0PwIuMJs/jz2FjoAj4Ag4AjVAwAVmDUB0Eo6AI+AIOALNj4ALzObPY0+hI+AIOAKOQA0QcIFZAxCdhCPgCDgCjkDzI+ACs/nz2FPoCDgCjoAjUAMEXGDWAEQn4Qg4Ao6AI9D8CLjAbP489hQ6Ao6AI+AI1AABF5g1ANFJOAKOgCPgCDQ/Ai4wmz+PPYWOgCPgCDgCNUDABWYNQHQSjoAj4Ag4As2PgAvM5s9jT6Ej4Ag4Ao5ADRBwgVkDEJ2EI+AIOAKOQPMj4AKz+fPYU+gIOAKOgCNQAwRcYNYARCfhCDgCjoAj0PwIuMBs/jz2FDoCjoAj4AjUAAEXmDUA0Uk4Ao6AI+AIND8C/w98E6AQ4Dx74gAAAABJRU5ErkJggg==;" parent="5O-vmS7WsDglhWfCH8Vm-27" vertex="1">
          <mxGeometry width="125" height="125" as="geometry" />
        </mxCell>
        <mxCell id="5O-vmS7WsDglhWfCH8Vm-25" value="1" style="whiteSpace=wrap;html=1;perimeterSpacing=6;rounded=0;movable=1;resizable=1;rotatable=1;deletable=1;editable=1;locked=0;connectable=1;direction=south;" parent="5O-vmS7WsDglhWfCH8Vm-27" vertex="1">
          <mxGeometry x="21.00271428571432" y="82.99728571428574" width="28.836000000000013" height="28.857142857142883" as="geometry" />
        </mxCell>
        <mxCell id="5O-vmS7WsDglhWfCH8Vm-26" value="2" style="whiteSpace=wrap;html=1;perimeterSpacing=6;rounded=0;movable=1;resizable=1;rotatable=1;deletable=1;editable=1;locked=0;connectable=1;direction=south;" parent="5O-vmS7WsDglhWfCH8Vm-27" vertex="1">
          <mxGeometry x="74.00271428571432" y="82.99728571428574" width="28.836000000000013" height="28.857142857142883" as="geometry" />
        </mxCell>
        <mxCell id="5O-vmS7WsDglhWfCH8Vm-28" value="eero Pro 6E" style="text;strokeColor=none;align=center;fillColor=none;html=1;verticalAlign=middle;whiteSpace=wrap;rounded=0;" parent="5O-vmS7WsDglhWfCH8Vm-60" vertex="1">
          <mxGeometry x="25" width="75" height="25" as="geometry" />
        </mxCell>
        <mxCell id="5O-vmS7WsDglhWfCH8Vm-62" style="orthogonalLoop=1;jettySize=auto;html=1;elbow=vertical;endArrow=none;endFill=0;strokeColor=#66B2FF;opacity=50;strokeWidth=5;curved=1;" parent="1" edge="1">
          <mxGeometry relative="1" as="geometry">
            <mxPoint x="-999" y="326" as="sourcePoint" />
            <mxPoint x="-781" y="433" as="targetPoint" />
            <Array as="points">
              <mxPoint x="-976" y="322" />
              <mxPoint x="-779" y="403" />
            </Array>
          </mxGeometry>
        </mxCell>
        <mxCell id="5O-vmS7WsDglhWfCH8Vm-77" value="" style="group;movable=0;resizable=0;rotatable=0;deletable=0;editable=0;locked=1;connectable=0;" parent="1" vertex="1" connectable="0">
          <mxGeometry x="-625" y="75.5" width="232" height="148" as="geometry" />
        </mxCell>
        <mxCell id="5O-vmS7WsDglhWfCH8Vm-12" value="Wall Plate 1" style="text;strokeColor=none;align=center;fillColor=none;html=1;verticalAlign=middle;whiteSpace=wrap;rounded=0;container=0;" parent="5O-vmS7WsDglhWfCH8Vm-77" vertex="1">
          <mxGeometry x="79" y="1" width="75" height="25" as="geometry" />
        </mxCell>
        <mxCell id="SKl03I9PG79rLvIPN3ia-183" value="" style="whiteSpace=wrap;html=1;fillColor=#4D4D4D;strokeColor=#000000;movable=1;resizable=1;rotatable=1;deletable=1;editable=1;locked=0;connectable=1;direction=south;container=0;" parent="5O-vmS7WsDglhWfCH8Vm-77" vertex="1">
          <mxGeometry x="75" y="26" width="83" height="122" as="geometry" />
        </mxCell>
        <mxCell id="SKl03I9PG79rLvIPN3ia-165" value="1" style="whiteSpace=wrap;html=1;perimeterSpacing=6;rounded=0;movable=1;resizable=1;rotatable=1;deletable=1;editable=1;locked=0;connectable=1;direction=south;container=0;" parent="5O-vmS7WsDglhWfCH8Vm-77" vertex="1">
          <mxGeometry x="79.82271428571426" y="30.177285714285745" width="28.836000000000013" height="28.857142857142883" as="geometry" />
        </mxCell>
        <mxCell id="SKl03I9PG79rLvIPN3ia-166" value="2" style="whiteSpace=wrap;html=1;perimeterSpacing=6;rounded=0;movable=1;resizable=1;rotatable=1;deletable=1;editable=1;locked=0;connectable=1;direction=south;container=0;" parent="5O-vmS7WsDglhWfCH8Vm-77" vertex="1">
          <mxGeometry x="123.10842857142848" y="30.177285714285745" width="28.836000000000013" height="28.857142857142883" as="geometry" />
        </mxCell>
        <mxCell id="SKl03I9PG79rLvIPN3ia-177" value="3" style="whiteSpace=wrap;html=1;perimeterSpacing=6;rounded=0;movable=1;resizable=1;rotatable=1;deletable=1;editable=1;locked=0;connectable=1;direction=south;container=0;" parent="5O-vmS7WsDglhWfCH8Vm-77" vertex="1">
          <mxGeometry x="79.82271428571426" y="73.43128571428576" width="28.836000000000013" height="28.857142857142883" as="geometry" />
        </mxCell>
        <mxCell id="SKl03I9PG79rLvIPN3ia-178" value="4" style="whiteSpace=wrap;html=1;perimeterSpacing=6;rounded=0;movable=1;resizable=1;rotatable=1;deletable=1;editable=1;locked=0;connectable=1;direction=south;container=0;" parent="5O-vmS7WsDglhWfCH8Vm-77" vertex="1">
          <mxGeometry x="123.10842857142848" y="73.43128571428576" width="28.836000000000013" height="28.857142857142883" as="geometry" />
        </mxCell>
        <mxCell id="5O-vmS7WsDglhWfCH8Vm-9" value="5" style="whiteSpace=wrap;html=1;perimeterSpacing=6;rounded=0;movable=1;resizable=1;rotatable=1;deletable=1;editable=1;locked=0;connectable=1;direction=south;container=0;" parent="5O-vmS7WsDglhWfCH8Vm-77" vertex="1">
          <mxGeometry x="79.82271428571426" y="115.00128571428576" width="28.836000000000013" height="28.857142857142883" as="geometry" />
        </mxCell>
        <mxCell id="5O-vmS7WsDglhWfCH8Vm-10" value="6" style="whiteSpace=wrap;html=1;perimeterSpacing=6;rounded=0;movable=1;resizable=1;rotatable=1;deletable=1;editable=1;locked=0;connectable=1;direction=south;container=0;" parent="5O-vmS7WsDglhWfCH8Vm-77" vertex="1">
          <mxGeometry x="123.10842857142848" y="115.00128571428576" width="28.836000000000013" height="28.857142857142883" as="geometry" />
        </mxCell>
        <mxCell id="5O-vmS7WsDglhWfCH8Vm-70" value="&lt;font style=&quot;font-size: 9px;&quot;&gt;Phone&lt;/font&gt;" style="strokeWidth=1;shadow=0;dashed=0;align=center;html=1;shape=mxgraph.mockup.text.callout;linkText=;textSize=17;textColor=#666666;callDir=NW;callStyle=line;fontSize=17;fontColor=#666666;align=left;verticalAlign=top;strokeColor=#666666;" parent="5O-vmS7WsDglhWfCH8Vm-77" vertex="1">
          <mxGeometry width="87" height="38" as="geometry" />
        </mxCell>
        <mxCell id="5O-vmS7WsDglhWfCH8Vm-71" value="&lt;font style=&quot;font-size: 9px;&quot;&gt;?&lt;/font&gt;" style="strokeWidth=1;shadow=0;dashed=0;align=center;html=1;shape=mxgraph.mockup.text.callout;linkText=;textSize=17;textColor=#666666;callDir=NW;callStyle=line;fontSize=17;fontColor=#666666;align=left;verticalAlign=top;strokeColor=#666666;" parent="5O-vmS7WsDglhWfCH8Vm-77" vertex="1">
          <mxGeometry y="43" width="87" height="38" as="geometry" />
        </mxCell>
        <mxCell id="5O-vmS7WsDglhWfCH8Vm-72" value="&lt;font style=&quot;font-size: 9px;&quot;&gt;?&lt;/font&gt;" style="strokeWidth=1;shadow=0;dashed=0;align=center;html=1;shape=mxgraph.mockup.text.callout;linkText=;textSize=17;textColor=#666666;callDir=NW;callStyle=line;fontSize=17;fontColor=#666666;align=left;verticalAlign=top;strokeColor=#666666;" parent="5O-vmS7WsDglhWfCH8Vm-77" vertex="1">
          <mxGeometry y="85" width="87" height="38" as="geometry" />
        </mxCell>
        <mxCell id="5O-vmS7WsDglhWfCH8Vm-74" value="&lt;font style=&quot;font-size: 9px;&quot;&gt;?&lt;/font&gt;" style="strokeWidth=1;shadow=0;dashed=0;align=center;html=1;shape=mxgraph.mockup.text.callout;linkText=;textSize=17;textColor=#666666;callDir=NE;callStyle=line;fontSize=17;fontColor=#666666;align=right;verticalAlign=top;strokeColor=#666666;" parent="5O-vmS7WsDglhWfCH8Vm-77" vertex="1">
          <mxGeometry x="145" width="87" height="38" as="geometry" />
        </mxCell>
        <mxCell id="5O-vmS7WsDglhWfCH8Vm-75" value="&lt;font style=&quot;font-size: 9px;&quot;&gt;?&lt;/font&gt;" style="strokeWidth=1;shadow=0;dashed=0;align=center;html=1;shape=mxgraph.mockup.text.callout;linkText=;textSize=17;textColor=#666666;callDir=NE;callStyle=line;fontSize=17;fontColor=#666666;align=right;verticalAlign=top;strokeColor=#666666;" parent="5O-vmS7WsDglhWfCH8Vm-77" vertex="1">
          <mxGeometry x="145" y="43" width="87" height="38" as="geometry" />
        </mxCell>
        <mxCell id="5O-vmS7WsDglhWfCH8Vm-76" value="&lt;font style=&quot;font-size: 9px;&quot;&gt;?&lt;/font&gt;" style="strokeWidth=1;shadow=0;dashed=0;align=center;html=1;shape=mxgraph.mockup.text.callout;linkText=;textSize=17;textColor=#666666;callDir=NE;callStyle=line;fontSize=17;fontColor=#666666;align=right;verticalAlign=top;strokeColor=#666666;" parent="5O-vmS7WsDglhWfCH8Vm-77" vertex="1">
          <mxGeometry x="145" y="85" width="87" height="38" as="geometry" />
        </mxCell>
        <mxCell id="5O-vmS7WsDglhWfCH8Vm-78" value="" style="group;movable=0;resizable=0;rotatable=0;deletable=0;editable=0;locked=1;connectable=0;" parent="1" vertex="1" connectable="0">
          <mxGeometry x="-350" y="75" width="232" height="148" as="geometry" />
        </mxCell>
        <mxCell id="5O-vmS7WsDglhWfCH8Vm-79" value="Wall Plate 2" style="text;strokeColor=none;align=center;fillColor=none;html=1;verticalAlign=middle;whiteSpace=wrap;rounded=0;container=0;" parent="5O-vmS7WsDglhWfCH8Vm-78" vertex="1">
          <mxGeometry x="79" y="1" width="75" height="25" as="geometry" />
        </mxCell>
        <mxCell id="5O-vmS7WsDglhWfCH8Vm-80" value="" style="whiteSpace=wrap;html=1;fillColor=#4D4D4D;strokeColor=#000000;movable=1;resizable=1;rotatable=1;deletable=1;editable=1;locked=0;connectable=1;direction=south;container=0;" parent="5O-vmS7WsDglhWfCH8Vm-78" vertex="1">
          <mxGeometry x="75" y="26" width="83" height="122" as="geometry" />
        </mxCell>
        <mxCell id="5O-vmS7WsDglhWfCH8Vm-81" value="1" style="whiteSpace=wrap;html=1;perimeterSpacing=6;rounded=0;movable=1;resizable=1;rotatable=1;deletable=1;editable=1;locked=0;connectable=1;direction=south;container=0;" parent="5O-vmS7WsDglhWfCH8Vm-78" vertex="1">
          <mxGeometry x="79.82271428571426" y="30.177285714285745" width="28.836000000000013" height="28.857142857142883" as="geometry" />
        </mxCell>
        <mxCell id="5O-vmS7WsDglhWfCH8Vm-82" value="2" style="whiteSpace=wrap;html=1;perimeterSpacing=6;rounded=0;movable=1;resizable=1;rotatable=1;deletable=1;editable=1;locked=0;connectable=1;direction=south;container=0;" parent="5O-vmS7WsDglhWfCH8Vm-78" vertex="1">
          <mxGeometry x="123.10842857142848" y="30.177285714285745" width="28.836000000000013" height="28.857142857142883" as="geometry" />
        </mxCell>
        <mxCell id="5O-vmS7WsDglhWfCH8Vm-83" value="3" style="whiteSpace=wrap;html=1;perimeterSpacing=6;rounded=0;movable=1;resizable=1;rotatable=1;deletable=1;editable=1;locked=0;connectable=1;direction=south;container=0;" parent="5O-vmS7WsDglhWfCH8Vm-78" vertex="1">
          <mxGeometry x="79.82271428571426" y="73.43128571428576" width="28.836000000000013" height="28.857142857142883" as="geometry" />
        </mxCell>
        <mxCell id="5O-vmS7WsDglhWfCH8Vm-84" value="4" style="whiteSpace=wrap;html=1;perimeterSpacing=6;rounded=0;movable=1;resizable=1;rotatable=1;deletable=1;editable=1;locked=0;connectable=1;direction=south;container=0;" parent="5O-vmS7WsDglhWfCH8Vm-78" vertex="1">
          <mxGeometry x="123.10842857142848" y="73.43128571428576" width="28.836000000000013" height="28.857142857142883" as="geometry" />
        </mxCell>
        <mxCell id="5O-vmS7WsDglhWfCH8Vm-85" value="5" style="whiteSpace=wrap;html=1;perimeterSpacing=6;rounded=0;movable=1;resizable=1;rotatable=1;deletable=1;editable=1;locked=0;connectable=1;direction=south;container=0;" parent="5O-vmS7WsDglhWfCH8Vm-78" vertex="1">
          <mxGeometry x="79.82271428571426" y="115.00128571428576" width="28.836000000000013" height="28.857142857142883" as="geometry" />
        </mxCell>
        <mxCell id="5O-vmS7WsDglhWfCH8Vm-86" value="6" style="whiteSpace=wrap;html=1;perimeterSpacing=6;rounded=0;movable=1;resizable=1;rotatable=1;deletable=1;editable=1;locked=0;connectable=1;direction=south;container=0;" parent="5O-vmS7WsDglhWfCH8Vm-78" vertex="1">
          <mxGeometry x="123.10842857142848" y="115.00128571428576" width="28.836000000000013" height="28.857142857142883" as="geometry" />
        </mxCell>
        <mxCell id="5O-vmS7WsDglhWfCH8Vm-87" value="&lt;font style=&quot;font-size: 9px;&quot;&gt;?&lt;/font&gt;" style="strokeWidth=1;shadow=0;dashed=0;align=center;html=1;shape=mxgraph.mockup.text.callout;linkText=;textSize=17;textColor=#666666;callDir=NW;callStyle=line;fontSize=17;fontColor=#666666;align=left;verticalAlign=top;strokeColor=#666666;" parent="5O-vmS7WsDglhWfCH8Vm-78" vertex="1">
          <mxGeometry width="87" height="38" as="geometry" />
        </mxCell>
        <mxCell id="5O-vmS7WsDglhWfCH8Vm-88" value="&lt;font style=&quot;font-size: 9px;&quot;&gt;?&lt;/font&gt;" style="strokeWidth=1;shadow=0;dashed=0;align=center;html=1;shape=mxgraph.mockup.text.callout;linkText=;textSize=17;textColor=#666666;callDir=NW;callStyle=line;fontSize=17;fontColor=#666666;align=left;verticalAlign=top;strokeColor=#666666;" parent="5O-vmS7WsDglhWfCH8Vm-78" vertex="1">
          <mxGeometry y="43" width="87" height="38" as="geometry" />
        </mxCell>
        <mxCell id="5O-vmS7WsDglhWfCH8Vm-89" value="&lt;font style=&quot;font-size: 9px;&quot;&gt;?&lt;/font&gt;" style="strokeWidth=1;shadow=0;dashed=0;align=center;html=1;shape=mxgraph.mockup.text.callout;linkText=;textSize=17;textColor=#666666;callDir=NW;callStyle=line;fontSize=17;fontColor=#666666;align=left;verticalAlign=top;strokeColor=#666666;" parent="5O-vmS7WsDglhWfCH8Vm-78" vertex="1">
          <mxGeometry y="85" width="87" height="38" as="geometry" />
        </mxCell>
        <mxCell id="5O-vmS7WsDglhWfCH8Vm-90" value="&lt;font style=&quot;font-size: 9px;&quot;&gt;?&lt;/font&gt;" style="strokeWidth=1;shadow=0;dashed=0;align=center;html=1;shape=mxgraph.mockup.text.callout;linkText=;textSize=17;textColor=#666666;callDir=NE;callStyle=line;fontSize=17;fontColor=#666666;align=right;verticalAlign=top;strokeColor=#666666;" parent="5O-vmS7WsDglhWfCH8Vm-78" vertex="1">
          <mxGeometry x="145" width="87" height="38" as="geometry" />
        </mxCell>
        <mxCell id="5O-vmS7WsDglhWfCH8Vm-91" value="&lt;font style=&quot;font-size: 8px;&quot;&gt;Alcove Cmptr Desk&lt;br&gt;&lt;/font&gt;" style="strokeWidth=1;shadow=0;dashed=0;align=center;html=1;shape=mxgraph.mockup.text.callout;linkText=;textSize=17;textColor=#666666;callDir=NE;callStyle=line;fontSize=17;fontColor=#666666;align=right;verticalAlign=top;strokeColor=#666666;" parent="5O-vmS7WsDglhWfCH8Vm-78" vertex="1">
          <mxGeometry x="145" y="43" width="87" height="38" as="geometry" />
        </mxCell>
        <mxCell id="5O-vmS7WsDglhWfCH8Vm-92" value="&lt;font style=&quot;font-size: 9px;&quot;&gt;?&lt;/font&gt;" style="strokeWidth=1;shadow=0;dashed=0;align=center;html=1;shape=mxgraph.mockup.text.callout;linkText=;textSize=17;textColor=#666666;callDir=NE;callStyle=line;fontSize=17;fontColor=#666666;align=right;verticalAlign=top;strokeColor=#666666;" parent="5O-vmS7WsDglhWfCH8Vm-78" vertex="1">
          <mxGeometry x="145" y="85" width="87" height="38" as="geometry" />
        </mxCell>
        <mxCell id="5O-vmS7WsDglhWfCH8Vm-93" value="&lt;font color=&quot;#ffffff&quot;&gt;Lutron Connect&lt;/font&gt;" style="whiteSpace=wrap;html=1;aspect=fixed;fillColor=#A9C4EB;rounded=1;" parent="1" vertex="1">
          <mxGeometry x="-825" y="300" width="80" height="80" as="geometry" />
        </mxCell>
        <mxCell id="5O-vmS7WsDglhWfCH8Vm-94" value="&lt;font color=&quot;#ffffff&quot;&gt;Lutron Main Repeater&lt;/font&gt;" style="whiteSpace=wrap;html=1;aspect=fixed;fillColor=#A9C4EB;rounded=1;" parent="1" vertex="1">
          <mxGeometry x="-721.88" y="300" width="80" height="80" as="geometry" />
        </mxCell>
        <mxCell id="5O-vmS7WsDglhWfCH8Vm-95" style="orthogonalLoop=1;jettySize=auto;html=1;elbow=vertical;endArrow=none;endFill=0;strokeColor=#66B2FF;opacity=50;strokeWidth=5;curved=1;" parent="1" edge="1">
          <mxGeometry relative="1" as="geometry">
            <mxPoint x="-679" y="383" as="sourcePoint" />
            <mxPoint x="-693" y="434" as="targetPoint" />
            <Array as="points">
              <mxPoint x="-679" y="398" />
              <mxPoint x="-694" y="422" />
            </Array>
          </mxGeometry>
        </mxCell>
        <mxCell id="5O-vmS7WsDglhWfCH8Vm-96" style="orthogonalLoop=1;jettySize=auto;html=1;elbow=vertical;endArrow=none;endFill=0;strokeColor=#66B2FF;opacity=50;strokeWidth=5;curved=1;" parent="1" edge="1">
          <mxGeometry relative="1" as="geometry">
            <mxPoint x="-781" y="384" as="sourcePoint" />
            <mxPoint x="-739" y="434" as="targetPoint" />
            <Array as="points">
              <mxPoint x="-781" y="401" />
              <mxPoint x="-738" y="422" />
            </Array>
          </mxGeometry>
        </mxCell>
        <mxCell id="SKl03I9PG79rLvIPN3ia-187" value="&lt;font style=&quot;font-size: 11px;&quot;&gt;1Gb Switch&lt;/font&gt;" style="text;strokeColor=none;align=center;fillColor=none;html=1;verticalAlign=middle;whiteSpace=wrap;rounded=0;direction=south;rotation=-90;movable=1;resizable=1;rotatable=1;deletable=1;editable=1;locked=0;connectable=1;container=0;" parent="1" vertex="1">
          <mxGeometry x="-996.25" y="452.25" width="112.5" height="12.5" as="geometry" />
        </mxCell>
        <mxCell id="5O-vmS7WsDglhWfCH8Vm-103" style="orthogonalLoop=1;jettySize=auto;html=1;elbow=vertical;endArrow=none;endFill=0;strokeColor=#66B2FF;opacity=50;strokeWidth=5;curved=1;" parent="1" edge="1">
          <mxGeometry relative="1" as="geometry">
            <mxPoint x="-189" y="164" as="sourcePoint" />
            <mxPoint x="-943" y="228" as="targetPoint" />
            <Array as="points">
              <mxPoint x="-125" y="164" />
              <mxPoint x="-125" y="225" />
              <mxPoint x="-250" y="250" />
              <mxPoint x="-600" y="250" />
              <mxPoint x="-950" y="250" />
            </Array>
          </mxGeometry>
        </mxCell>
        <mxCell id="5O-vmS7WsDglhWfCH8Vm-104" value="" style="group;movable=0;resizable=0;rotatable=0;deletable=0;editable=0;locked=1;connectable=0;" parent="1" vertex="1" connectable="0">
          <mxGeometry x="-928.75" y="438" width="687.75" height="41" as="geometry" />
        </mxCell>
        <mxCell id="SKl03I9PG79rLvIPN3ia-182" value="" style="whiteSpace=wrap;html=1;fillColor=#f8cecc;strokeColor=#000000;movable=1;resizable=1;rotatable=1;deletable=1;editable=1;locked=0;connectable=1;" parent="5O-vmS7WsDglhWfCH8Vm-104" vertex="1">
          <mxGeometry width="687.75" height="41" as="geometry" />
        </mxCell>
        <mxCell id="SKl03I9PG79rLvIPN3ia-131" value="5" style="whiteSpace=wrap;html=1;perimeterSpacing=6;rounded=0;container=0;movable=1;resizable=1;rotatable=1;deletable=1;editable=1;locked=0;connectable=1;" parent="5O-vmS7WsDglhWfCH8Vm-104" vertex="1">
          <mxGeometry x="178.1428571428571" y="6" width="28.857142857142883" height="28.836000000000013" as="geometry" />
        </mxCell>
        <mxCell id="SKl03I9PG79rLvIPN3ia-132" value="6" style="whiteSpace=wrap;html=1;perimeterSpacing=6;rounded=0;container=0;movable=1;resizable=1;rotatable=1;deletable=1;editable=1;locked=0;connectable=1;" parent="5O-vmS7WsDglhWfCH8Vm-104" vertex="1">
          <mxGeometry x="221.42857142857156" y="6" width="28.857142857142883" height="28.836000000000013" as="geometry" />
        </mxCell>
        <mxCell id="SKl03I9PG79rLvIPN3ia-133" value="7" style="whiteSpace=wrap;html=1;perimeterSpacing=6;rounded=0;container=0;movable=1;resizable=1;rotatable=1;deletable=1;editable=1;locked=0;connectable=1;" parent="5O-vmS7WsDglhWfCH8Vm-104" vertex="1">
          <mxGeometry x="264.71428571428555" y="6" width="28.857142857142883" height="28.836000000000013" as="geometry" />
        </mxCell>
        <mxCell id="SKl03I9PG79rLvIPN3ia-134" value="8" style="whiteSpace=wrap;html=1;perimeterSpacing=6;rounded=0;container=0;movable=1;resizable=1;rotatable=1;deletable=1;editable=1;locked=0;connectable=1;" parent="5O-vmS7WsDglhWfCH8Vm-104" vertex="1">
          <mxGeometry x="308.0000000000002" y="6" width="28.857142857142883" height="28.836000000000013" as="geometry" />
        </mxCell>
        <mxCell id="SKl03I9PG79rLvIPN3ia-135" value="9" style="whiteSpace=wrap;html=1;perimeterSpacing=6;rounded=0;container=0;movable=1;resizable=1;rotatable=1;deletable=1;editable=1;locked=0;connectable=1;" parent="5O-vmS7WsDglhWfCH8Vm-104" vertex="1">
          <mxGeometry x="351.2857142857141" y="6" width="28.857142857142883" height="28.836000000000013" as="geometry" />
        </mxCell>
        <mxCell id="SKl03I9PG79rLvIPN3ia-136" value="10" style="whiteSpace=wrap;html=1;perimeterSpacing=6;rounded=0;container=0;movable=1;resizable=1;rotatable=1;deletable=1;editable=1;locked=0;connectable=1;" parent="5O-vmS7WsDglhWfCH8Vm-104" vertex="1">
          <mxGeometry x="394.57142857142844" y="6" width="28.857142857142883" height="28.836000000000013" as="geometry" />
        </mxCell>
        <mxCell id="SKl03I9PG79rLvIPN3ia-137" value="11" style="whiteSpace=wrap;html=1;perimeterSpacing=6;rounded=0;container=0;movable=1;resizable=1;rotatable=1;deletable=1;editable=1;locked=0;connectable=1;" parent="5O-vmS7WsDglhWfCH8Vm-104" vertex="1">
          <mxGeometry x="437.8571428571431" y="6" width="28.857142857142883" height="28.836000000000013" as="geometry" />
        </mxCell>
        <mxCell id="SKl03I9PG79rLvIPN3ia-138" value="12" style="whiteSpace=wrap;html=1;perimeterSpacing=6;rounded=0;container=0;movable=1;resizable=1;rotatable=1;deletable=1;editable=1;locked=0;connectable=1;" parent="5O-vmS7WsDglhWfCH8Vm-104" vertex="1">
          <mxGeometry x="481.14285714285666" y="6" width="28.857142857142883" height="28.836000000000013" as="geometry" />
        </mxCell>
        <mxCell id="SKl03I9PG79rLvIPN3ia-139" value="1" style="whiteSpace=wrap;html=1;perimeterSpacing=6;rounded=0;container=0;movable=1;resizable=1;rotatable=1;deletable=1;editable=1;locked=0;connectable=1;" parent="5O-vmS7WsDglhWfCH8Vm-104" vertex="1">
          <mxGeometry x="5" y="6" width="28.857142857142883" height="28.836000000000013" as="geometry" />
        </mxCell>
        <mxCell id="SKl03I9PG79rLvIPN3ia-140" value="2" style="whiteSpace=wrap;html=1;perimeterSpacing=6;rounded=0;container=0;movable=1;resizable=1;rotatable=1;deletable=1;editable=1;locked=0;connectable=1;" parent="5O-vmS7WsDglhWfCH8Vm-104" vertex="1">
          <mxGeometry x="48.28571428571422" y="6" width="28.857142857142883" height="28.836000000000013" as="geometry" />
        </mxCell>
        <mxCell id="SKl03I9PG79rLvIPN3ia-141" value="3" style="whiteSpace=wrap;html=1;perimeterSpacing=6;rounded=0;container=0;movable=1;resizable=1;rotatable=1;deletable=1;editable=1;locked=0;connectable=1;" parent="5O-vmS7WsDglhWfCH8Vm-104" vertex="1">
          <mxGeometry x="91.57142857142856" y="6" width="28.857142857142883" height="28.836000000000013" as="geometry" />
        </mxCell>
        <mxCell id="SKl03I9PG79rLvIPN3ia-142" value="4" style="whiteSpace=wrap;html=1;perimeterSpacing=6;rounded=0;container=0;movable=1;resizable=1;rotatable=1;deletable=1;editable=1;locked=0;connectable=1;" parent="5O-vmS7WsDglhWfCH8Vm-104" vertex="1">
          <mxGeometry x="134.85714285714278" y="6" width="28.857142857142883" height="28.836000000000013" as="geometry" />
        </mxCell>
        <mxCell id="5O-vmS7WsDglhWfCH8Vm-98" value="13" style="whiteSpace=wrap;html=1;perimeterSpacing=6;rounded=0;container=0;movable=1;resizable=1;rotatable=1;deletable=1;editable=1;locked=0;connectable=1;" parent="5O-vmS7WsDglhWfCH8Vm-104" vertex="1">
          <mxGeometry x="524.4257142857141" y="6" width="28.857142857142883" height="28.836000000000013" as="geometry" />
        </mxCell>
        <mxCell id="5O-vmS7WsDglhWfCH8Vm-99" value="14" style="whiteSpace=wrap;html=1;perimeterSpacing=6;rounded=0;container=0;movable=1;resizable=1;rotatable=1;deletable=1;editable=1;locked=0;connectable=1;" parent="5O-vmS7WsDglhWfCH8Vm-104" vertex="1">
          <mxGeometry x="567.7114285714284" y="6" width="28.857142857142883" height="28.836000000000013" as="geometry" />
        </mxCell>
        <mxCell id="5O-vmS7WsDglhWfCH8Vm-100" value="15" style="whiteSpace=wrap;html=1;perimeterSpacing=6;rounded=0;container=0;movable=1;resizable=1;rotatable=1;deletable=1;editable=1;locked=0;connectable=1;" parent="5O-vmS7WsDglhWfCH8Vm-104" vertex="1">
          <mxGeometry x="610.9971428571431" y="6" width="28.857142857142883" height="28.836000000000013" as="geometry" />
        </mxCell>
        <mxCell id="5O-vmS7WsDglhWfCH8Vm-101" value="16" style="whiteSpace=wrap;html=1;perimeterSpacing=6;rounded=0;container=0;movable=1;resizable=1;rotatable=1;deletable=1;editable=1;locked=0;connectable=1;" parent="5O-vmS7WsDglhWfCH8Vm-104" vertex="1">
          <mxGeometry x="654.2828571428566" y="6" width="28.857142857142883" height="28.836000000000013" as="geometry" />
        </mxCell>
        <mxCell id="5O-vmS7WsDglhWfCH8Vm-105" value="" style="shape=image;verticalLabelPosition=bottom;labelBackgroundColor=default;verticalAlign=top;aspect=fixed;imageAspect=0;image=data:image/png,iVBORw0KGgoAAAANSUhEUgAAAUAAAAFACAYAAADNkKWqAAAAAXNSR0IArs4c6QAAHuRJREFUeF7tndGSHNatA1f//9G6tUolN4/pdk0XdRZ+PjQIEMRwR9b619fX1++v/fNxBX7/ZjL/+vXr4z2VAJS/6c1oVvRVcTE4P73me8vYZv50xSR/umhmmWVrSRnlb5oymhV9VVwMzk+vWQBGDqCLZpY5oqJgKH8DYjQr+qq4GJyfXrMAjBxAF80sc0RFwVD+BsRoVvRVcTE4P71mARg5gC6aWeaIioKh/A2I0azoq+JicH56zQIwcgBdNLPMERUFQ/kbEKNZ0VfFxeD89JoFYOQAumhmmSMqCobyNyBGs6KviovB+ek1C8DIAXTRzDJHVBQM5W9AjGZFXxUXg/PTaxaAkQPooplljqgoGMrfgBjNir4qLgbnp9csACMH0EUzyxxRUTCUvwExmhV9VVwMzk+vWQBGDqCLZpY5oqJgKH8DYjQr+qq4GJyfXrMAjBxAF80sc0RFwVD+BsRoVvRVcTE4P71mARg5gC6aWeaIioKh/A2I0azoq+JicH56jQrAq6aphlksWoFh9Sp6MxiGj/Gy6Y3iFBhGr8s1RrMFoJioEfqlBbjKX4zyi87lG+Mqf8PFaHa1xsxlASimaYSm5iwwBPU/JUVvBsPwoXO5zN9wMZpdrTGeWQCKaRqhqTkLDEF9AXj4A4B6zM7/ap3ZmQWgmKYRmpqzwBDUF4ALQGubj9eZnVkAirEYoReA7PfuGo3FKPcdoBHtaI3xzAJQDNMIvQBcABKrFR4j/fwNb41mC0AxWSP0AnABSKxWeIz08ze8NZotAMVkjdALwAUgsVrhMdLP3/DWaLYAFJM1Qi8AF4DEaoXHSD9/w1uj2QJQTNYIvQBcABKrFR4j/fwNb41mC0AxWSP0AnABSKxWeIz08ze8NZotAMVkjdALwAUgsVrhMdLP3/DWaJYFoGmuEJ0G03dPhovBofyv9kV5XNa46q2apcEx86Q1Zl8MlwXgb3aZVAtADXO5r9e4mEWjC11gWM+YedIaqpflsgBcAFJvJu+rADBkit4KDBsaRjNaswCkisn3ldAGh1Kqlob2Zd5f5lL0VmAsAL++dgHuAjT59PGaKgAMkaK3AmMBuAA8+5fhry6m6cvUVAFwtbeKv8ExmtEa8xOT4bILcBcg9Wby3pjZLI0hU/RWYOwC3AW4C1B8AJjQoDVVANC+bGjQcK74GxyjGa2hetm57AIUAWBMYwZKTXO1L8rDmrnQuOqtmqXBMfOkNWaWhssCcAFIvZm8N2Y2S2PIFL0VGDbMjWa0xszSaLYAXABSbybvjZnN0hgyRW8FxgJw3wHuO0DxAWBCg9ZUAUD7sqFBw7nib3CMZrSG6mXnsgtQBIAxjRkoNU313vCveqM4V+diNDZcDA7V2LyvuCwAF4DYn1eXBhP5+lI/ARgcWmM0rkKDcjHvKy4LwAUg9qdZTgwSFZhFK1ozGhsuBqfgX3FZAC4AsZ+vLg0msgtQ/Wo3ozOtWQBSxeT7SmiDIyl9vGwB+HGJVTAZj12dZcVlF+AuQLzNV5cGE9kFqILW6ExrFoBUMfm+EtrgSEofL1sAflxiFUzGY1dnWXHZBbgLEG/z1aXBRHYBqqA1OtOaBSBVTL6vhDY4ktLHyxaAH5dYBZPx2NVZVlx2Ae4CxNt8dWkwkV2AKmiNzrRmAUgVk+8roQ2OpPTxsgXgxyVWwWQ8dnWWFZddgLsA8TZfXRpMZBegClqjM61ZAFLF5PtKaIMjKX28bAH4cYlVMBmPXZ1lxWUX4NEL0BjTmMassumN4hgupi+DQ7mY9xUXg2P40BozF8NlAbgApN5U1wkFqRbA4FAu5r1ZZsPF4Bg+tKbisgBcAFJvLgCxYrzABFMVGpwNr6i4LAAXgNidZjkpSLUABodyMe+NxoaLwTF8aE3FZQG4AKTe3AWIFeMFJpiq0OBseEXFZQG4AMTuNMtJQaoFMDiUi3lvNDZcDI7hQ2sqLgvABSD15i5ArBgvMMFUhQZnwysqLgvABSB2p1lOClItgMGhXMx7o7HhYnAMH1pTcVkALgCpN3cBYsV4gQmmKjQ4G15RcVkALgCxO81yUpBqAQwO5WLeG40NF4Nj+NCaissCcAFIvbkLECvGC0wwVaHB2fCKissCcAGI3WmWk4JUC2BwKBfz3mhsuBgcw4fWVFwWgAtA6s1dgFgxXmCCqQoNzoZXVFyyAOQS3K0ozGkwKsUKcxYY33oZnEJnM/+rXAq9vjGMZgtAMR0jNDWnwRBUVAnlYsxZYCwA1fjPFpmdWQCKcRqh6UIbDEFFlVAuC0Aus5m/mQvv7G6F0WwBKOZphKbmNBiCiiqhXBaAXGYzfzMX3tndCqPZAlDM0whNzWkwBBVVQrksALnMZv5mLryzuxVGswWgmKcRmprTYAgqqoRyWQBymc38zVx4Z3crjGYLQDFPIzQ1p8EQVFQJ5bIA5DKb+Zu58M7uVhjNFoBinkZoak6DIaioEsplAchlNvM3c+Gd3a0wmi0AxTyN0NScBkNQUSWUywKQy2zmb+bCO7tbYTRbAIp5GqGpOQ2GoKJKKJcFIJfZzN/MhXd2t8JotgAU8zRCU3MaDEFFlVAuC0Aus5m/mQvv7G6F0WwBKOZphKbmNBiCiiqhXBaAXGYzfzMX3tndCqPZAlDM0whNzWkwBBVVQrksALnMZv5mLryzuxVGMxWAdyW42xk1pxkmxTDB9F1T4BQYFReDY+Z/1/13O1sARrOhC20WgGIsAJswXwBGSyZgFoBCNFNCw2kB+BvL/JJmhgsWbAVfC8DIBAvAb6v97/9QvS5fs7sA//e51y8XgJHidKHNBUAxLofGS1wWgNGSCZgFoBDNlNCFXgDuR2Djs9UwBRaATC/9egG4H4GJecwHIPn37+2/FFgARk5YAC4AidUWgEQt/3YB6LVDlQvABSAxzAKQqOXfLgC9dqhyAbgAJIZZABK1/NsFoNcOVS4AF4DEMAtAopZ/uwD02qHKBeACkBhmAUjU8m8XgF47VLkAXAASwywAiVr+7a/fdDM91iqBAtUCvDT+SjMwxv88fUlnw/9qzQLw6GSqZX5pMSvNjGVe0tnwv1qzADw6mWqZX1rMSjNjmZd0Nvyv1iwAj06mWuaXFrPSzFjmJZ0N/6s1C8Cjk6mW+aXFrDQzlnlJZ8P/as0C8OhkqmV+aTErzYxlXtLZ8L9aswA8OplqmV9azEozY5mXdDb8r9YsAI9Oplrmlxaz0sxY5iWdDf+rNQvAo5Oplvmlxaw0M5Z5SWfD/2rNAvDoZKplfmkxK82MZV7S2fC/WrMAPDqZaplfWsxKM2OZl3Q2/K/WLACPTqZa5pcWs9LMWOYlnQ3/qzVnfxlCZZhqaSifq319G7nojepl+6pwrgaA6ctoRnEKj/3xzNfXF/+/z1A24n0hsl0aQeeL8qkMQPuqNKv6qnCMZ67WGM0ol8r/C8Bf7Nc00UH++z01TWUA2tcCsLmArc+KOuMZ2lfl/wXgApB6cz8CR57Bg4kKFoCB0IXI1TXzjUP5VJ+AtK9Ks6qvCidYmQzCaEabq/y/CzD6NKemqQxA+1oA7kdg45kFIFSgELla5l2AcPjiYrazND6rPpy4ak2F0Yx2Vmm8C3AXIPXmvgOMPIMHExUsAAOhC5Ht1WDoUz7VJyDtq9Ks6qvCMZ65WmM0o1wq/+8CjD7NqWkqA9C+FoD7DtB4ZgEIFShErpZ53wHC4e87QC5YWFHsZnUA7ALcBYhXpzCnWTLTV4WDRT5cYDSjdMwsKcafA2h/FW5/E4QapzCnWTLTV4VDNb783mhG+ZhZUow/AXj1f4xuBCgGY0ReTfO9mZn/VZ+ZvozPrmpW8V8AGtesBitQGPrqMmOxot+4Y76btt+b09kUftkFaJy5GqVAYWi6ZNUyG8EKvRaA+xHYeHM1QoFioReAfDBXNSv8sguQ+2UVUoHC0FeX2UhW6LULcBeg8eZqhALFQi8A+WCualb4ZRcg98sqpAKFoa8us5Gs0GsX4C5A483VCAWKhV4A8sFc1azwyy5A7pdVSAUKQ19dZiNZodcuwF2AxpurEQoUC70A5IO5qlnhl12A3C+rkAoUhr66zEayQq9dgLsAjTdXIxQoFnoByAdzVbPCL7sAuV9WIRUoDH11mY1khV67AOUFaIZjzGmMU9Rc5W/6MnqZWdLeDIbhQvsyGKbG8L/K5TJ/9csQjNBmoEa4ouYqf9OX0cvMkvZmMAwX2pfBMDWG/1Uul/kvAMV0jNGMoWlrpi+KUf3YVOj15zug6BfiUp0N/6tcKPfKY/o7QCO0GagRrqi5yt/0ZfQys6S9GQzDhfZlMEyN4X+Vy2X+uwDFdIzRjKFpa6YvilF9Ohd67QI0029qzPyN/xeAYp5GaDNQ2prpi2IsAI1ivMb4pZo/Z8MrKv4LQD4b9b2RGShtrVoAw4X2ZjCoXrsAjWJNjZk/9di+A5SzNEKbgdL2TF8UYxegUYzXGL9U8+dseEXFfxcgn80uwN+/sWp0Oc0C4Kb2p8BGsqTGzJ96bBegHKUR2gyUtmf6ohi7AI1ivMb4pZo/Z8MrKv67APlsdgHuAhSuYSVVALCuutcV/wWgmKn5pDUDpa2ZvijGLkCjGK8xfqnmz9nwior/ApDPZhfgLkDhGlZSBQDrqntd8VcBaGQoPp2MaIbLSzXFXIxeZpaGS4VDNaj6uoxDNTPvF4BGtYdqTGgU9C8vZqHZa/wNn8JnC8BC5cMYxTIb+mZhDJcKh2pQ9XUZh2pm3i8AjWoP1ZjQKOhfXsxCs9f4Gz6FzxaAhcqHMYplNvTNwhguFQ7VoOrrMg7VzLxfABrVHqoxoVHQv7yYhWav8Td8Cp8tAAuVD2MUy2zom4UxXCocqkHV12Ucqpl5vwA0qj1UY0KjoH95MQvNXuNv+BQ+WwAWKh/GKJbZ0DcLY7hUOFSDqq/LOFQz834BaFR7qMaERkH/8mIWmr3G3/ApfLYALFQ+jFEss6FvFsZwqXCoBlVfl3GoZub9AtCo9lCNCY2C/uXFLDR7jb/hU/hsAViofBijWGZD3yyM4VLhUA2qvi7jUM3M+ywAaXPGzBSjfE+Ndpk/5fKtM+VjMKp5Ui7ffVE+BUalV4VjNFsARtMpFiCigpd5AbgALLy5ACxUlhgLwF9IOaoX+pf/w8dm0SifAuMfynCu3Gi2CzAaY7EAEZVdgL9YmO9H4MaZC8BGZ4WyAGShQfVSQ5FFZtEonwJD0j9bZjTbBRiNs1iAiMouwF2AldUQzgIQydU+XgDuAiSOM8tMPUb6+RveGs12AUaTpeY0w4yo7ALcBVhZDeGYnVkAIon94wXgLkDiHrPM1GOkn7/hrdFsARhNlprTDDOisgtwF2BlNYRjdmYBiCT2jxeAuwCJe8wyU4+Rfv6Gt0azBWA0WWpOM8yIyi7AXYCV1RCO2ZksAE1ziL18TINJwpwtM3MpNKv6MjhmmFSzq30Z7qam4r8A/P3bzOeZGmM0usxGrKovg2P4UM2u9mW4m5qK/wJwAYj9SZcZA4jfHvONYfqqFo32drUvM0tTU/FfAC4AsT/pMmOABSD+9WFGY/uhYbFI3QKQqPUP3hbL/A/a+3ipMVqhWdWXwTFDoZpd7ctwNzUV/12AuwCxP+kyY4BdgLsAxZ+0K5/9LtwsDW0I0ZqIPm0re28+aQvNqr4MjhkO1exqX4a7qan47wLcBYj9SZcZA8gPTNNXtWi0t6t9mVmamor/AnABiP1JlxkDLAD3I/B+BDZrw2uKZeZddRXmk7bQrOrL4JjpUM2u9mW4m5qK/y7AXYDYn3SZMcAuwF2AuwDN2vCaYpl5V12F+aQtNKv6MjhmOlSzq30Z7qam4r8LcBcg9iddZgywC3AXYHUBfv8NImNQWkOXxnwCUIxvDgaHcv9+T3u72lepGdWZalxyMb1R/tX7wptGL9PX9y9pWwAGzqEDNcM0NGhfZWhQPpe5mN4o/+p94U2jl+lrARid2nSgZphmAWhfC0CjMv8JwKE0VYU3K18uABeAeGuKBcBNia8ZyjA3C200KGqK+Ru9TF8LwAUg3hljNAwiCqqlEa3h74ANRlVTzL+a5QJwAYj3plgA3NQuQCOZqinmvwAUwVSJZlxDeytM9s2D9lX+2Eh1vszF9Eb5V+8Lbxq9TF+7AEXQGqPRgZphFn0tAI3K7oPGIX2+qvAm3RfrywXgAhBvTLEAuKnj16xZaKNBUVPM3+hl+loALgDxzhijYRBRUC2NaE191WBwippi/tUsF4ALQLwzxQLgpnYBGslUTTH/BaAIpko04xraW2Gy/SHI3b8KaTxW1RTepPuy7wAfuwAKky0AF4AmNAtvZgFY/T9BqNCFyDYAKJfL743OxpyFBoaL6avgX3Ex/E1NoZnpK/t1WLS5ygBXB0P1su+Nzlc1M1yMbgX/iovhb2oKzUxfC8D9PkDsm7NmFt8bY/LyqxaKswCkirn3C8AFIHbOAvDzv0FuAYhtqQoWgAtAbJwF4AKQmuasZ/aHIJ83MzVL+d5cGmfNvB+BS+sgrLOeWQAuAJGTo+/AaE/f702YG5ximSsuhr+pKTQzfe1H4P0IjH1z1sy7APEsq4KzntkFuAuQLsFZMy8A6Siz92c9swBcANItOGvmBSAdZfb+rGcWgAtAugVnzbwApKPM3p/1zAJwAUi34KyZF4B0lNn7s55ZAC4A6RacNfMCkI4ye3/WMz/9f4xuHFD8JwqVYQwX0xvFMRhXZ2n6ulxTzIb65Vsv09eP/4WoxmhmOBTHDJNi2P92zvRGNTMYFX+D81JNMRvqlwWg/AQwxjTDoTiFyRaA3X88Ted/+X3hTbNjpq9dgMJpZjgUxgyTYiwAF4DGM4U3zY6ZvhaAwgFmOBTGDJNiLAAXgMYzhTfNjpm+FoDCAWY4FMYMk2IsABeAxjOFN82Omb4WgMIBZjgUxgyTYiwAF4DGM4U3zY6ZvhaAwgFmOBTGDJNiLAAXgMYzhTfNjpm+FoDCAWY4FMYMk2IsABeAxjOFN82Omb4WgMIBZjgUxgyTYiwAF4DGM4U3zY6ZvhaAwgFmOBTGDJNiLAAXgMYzhTfNjpm+FoDCAWY4FMYMk2IsABeAxjOFN82Omb4WgMIBZjgUxgyTYiwAF4DGM4U3zY6Zvs7+SnwzmJdqMgNEv0GFzsaYmWLYDwCDU/GhvVU+o32Z94bLAtAoHdSYYZolMzgBffWbPUxfFX8zG8OH1hj+L3FZAFLHRO8rYxqcQoJqySr+FR86G8P/JS4LQOqY6H1lTINTSFAtWcW/4kNnY/i/xGUBSB0Tva+MaXAKCaolq/hXfOhsDP+XuCwAqWOi95UxDU4hQbVkFf+KD52N4f8SlwUgdUz0vjKmwSkkqJas4l/xobMx/F/isgCkjoneV8Y0OIUE1ZJV/Cs+dDaG/0tcFoDUMdH7ypgGp5CgWrKKf8WHzsbwf4nLApA6JnpfGdPgFBJUS1bxr/jQ2Rj+L3FZAFLHRO8rYxqcQoJqySr+FR86G8P/JS4LQOqY6H1lTINTSFAtWcW/4kNnY/i/xCX7ZQh0MK+9L0xjzHxVZ6OX4X8V5yUulceMZgvAaDpm0WhrxgAUo3pv9DL8r+K8xKXyjNFsARhNxywabc0YgGJU741ehv9VnJe4VJ4xmi0Ao+mYRaOtGQNQjOq90cvwv4rzEpfKM0azBWA0HbNotDVjAIpRvTd6Gf5XcV7iUnnGaLYAjKZjFo22ZgxAMar3Ri/D/yrOS1wqzxjNFoDRdMyi0daMAShG9d7oZfhfxXmJS+UZo9kCMJqOWTTamjEAxajeG70M/6s4L3GpPGM0WwBG0zGLRlszBqAY1Xujl+F/FeclLpVnjGYLwGg6ZtFoa8YAFKN6b/Qy/K/ivMSl8ozRbAEYTccsGm3NGIBiVO+NXob/VZyXuFSeMZotAKPpmEWjrRkDUIzqvdHL8L+K8xKXyjNGswVgNB2zaLQ1YwCKUb03ehn+V3Fe4lJ5xmimAtCYphKhwDFCU80MhuFO+/rGML0ZHMrH9EUx7PuCv+nNaPYSlwWgcE1hGoMhqKj/AbnprVga05fRzNQU/E1fRrOXuCwAhWsK0xgMQWUBaEQTNS+FxktcFoDCzCacqGkMhqCyADSiiRo6fwGhSozPXuKyABS2KUxjMASVBaARTdS8FBovcVkACjObcKKmMRiCygLQiCZq6PwFhCoxPnuJywJQ2KYwjcEQVBaARjRR81JovMRlASjMbMKJmsZgCCoLQCOaqKHzFxCqxPjsJS4LQGGbwjQGQ1BZABrRRM1LofESlwWgMLMJJ2oagyGoLACNaKKGzl9AqBLjs5e4LACFbQrTGAxBZQFoRBM1L4XGS1wWgMLMJpyoaQyGoLIANKKJGjp/AaFKjM9e4rIAFLYpTGMwBJUFoBFN1LwUGi9xyQKwWmjqTTNMw8XgUC6mL4ph3xf8TW+XNTN8ippilmYupq8F4O/f2DPVcGhjpi+KYd8bc1osUndZM8KjfFvM0szF9LUAXAAmu2PMWTRmFq3o6zJGMUszF9PXAnABmOyaMWfRmFm0oq/LGMUszVxMXwvABWCya8acRWNm0Yq+LmMUszRzMX0tABeAya4ZcxaNmUUr+rqMUczSzMX0tQBcACa7ZsxZNGYWrejrMkYxSzMX09cCcAGY7JoxZ9GYWbSir8sYxSzNXExfC8AFYLJrxpxFY2bRir4uYxSzNHMxfS0AF4DJrhlzFo2ZRSv6uoxRzNLMxfS1AFwAJrtmzFk0Zhat6OsyRjFLMxfT1wJwAZjsmjFn0ZhZtKKvyxjFLM1cTF8LwAVgsmvGnEVjZtGKvi5jFLM0czF9LQB/eAAq0/z6tg37h+JkCxBw+VaK8qF6sWn8/2va13el6c3gUE6qr28+CZAwGu3LvFeiCS4Gh/IxJjN9FTgFhgmmKgDMXKhfLvM3XIxmuwB3AWKvFeFUYFwOALPMeJDiMq0+AAwXo9kCcAGIvVaEU4GxAOQ/mi8AD38HgDc55GI+nSifl0LjJS4maAu/mL4WgGFo0AAw743RquWkfKq+CpwC43IAGF9Sv1zmb7gYzfYj8H4Exl4rwqnAuBwAZpnxIPcd4NcCcAGI96YIpwJjAbjvABeAC8AFIFTAXGc00A0GpPHnOe1r3wHuO8DMNNTQl81MF/olLiZoqF7UK/9+f1lnyslotgtwFyD1WfIBcHkx1aLB/3jeYOBB7gLcd4DGaNVyUkNXfRU4BYa5zKofAY0vqV8u8zdcjGa7AHcBYq8V4VRgXA4As8x4kLsAdwEaoxXLaTDMAlytuTqXMjTpbC57hs6z4rIL8OgFWBmALln1ni5MGUxmNoYP1dr0RTHse8q/4rIAXABaT3+0ji7MAtD9Jy0fHeJ//cvpPBeA0WToYKpFqwwQyYxhrs6lmj8WTH6fZ3BMDZ1n5f9dgLsAjZ8/XkMXpgwms5yGDxXZ9EUx7HvKv+KyAFwAWk9/tI4uzAJwPwIbQy4AF4DGNx+vWQByiauriXfGf41+xWUBuAA0fv54zQKQS1yFBu9sAaj++pQRmtZcXbTLZqYam/dX51L+qE11u+wZOs+Kyy7AXYB0z5L3dGHKYDLLafhQoU1fFMO+p/wrLgvABaD19Efr6MIsAPeHIMaQC8AFoPHNx2sWgFzi6mrine07QKPZ2RpjNLrQBuOsYKIxqpe9AEVrqoTyuTx/ykUJFhVlF2DEJ4Ex5qSmMRgJ+QiE6rUAjAYjfyFy1x1DWgAyvf68NuFEF9pgCCpnS6hedi6VAJTP5flTLpXGBmcBKFQz5qSmMRiCytkSqtcCsBulmU3XHUNaADK9dgEKvUyJWbLLHxqUz0tczPyrmgWgUNqY86UFEJLhEqrXLkAssS4ws9FgHy5cAAqBF4BCNFhilszMBbaln1M+L3HRogWFC0AhsjHnSwsgJMMlVK9dgFhiXWBmo8E+XLgAFAIvAIVosMQsmZkLbEs/p3xe4qJFCwoXgEJkY86XFkBIhkuoXrsAscS6wMxGg324cAEoBF4ACtFgiVkyMxfYln5O+bzERYsWFC4AhcjGnC8tgJAMl1C9dgFiiXWBmY0G+3DhAlAIvAAUosESs2RmLrAt/ZzyeYmLFi0oVAEY9PUcxNUFoH1Vl5bpqzKNCSfKp8Cwel3tzfS1ALQugHXFAsCW/jynfS0A7/5dcDNL4xkTNEVvpq8FoHGAqKEGMMMUbS0AhWhmNsX8KYag/qek4G96M30tAI3Sooaa0wxTtLUAFKKZ2RTzpxiC+gLQivbT66g5zZIZjWlf9gKgvZm+KIZ9b2ZD+RQYl/mb3oxmuwCN0qKmWADR1i5AIZpZtGL+FENQ3wVoRfvpddScZsmMxrSvXYDNd2Bm/maWxjNXezN97QI0DhA11JxmmKKtXYBCNDObYv4UQ1DfBWhF++l11JxmyYzGtK9dgLsAjTeNz6ifTV+7AKnK8j01gBmmaY32tQBcABpvGp9RP5u+FoBUZfmeGsAM07RG+1oALgCNN43PqJ9NXwtAqrJ8Tw1ghmlao30tABeAxpvGZ9TPpq8FIFVZvqcGMMM0rdG+FoALQONN4zPqZ9PX/wGqOYZbPb0k8QAAAABJRU5ErkJggg==;" parent="1" vertex="1">
          <mxGeometry x="-1050" y="602.5" width="172.5" height="172.5" as="geometry" />
        </mxCell>
        <mxCell id="5O-vmS7WsDglhWfCH8Vm-59" style="orthogonalLoop=1;jettySize=auto;html=1;elbow=vertical;endArrow=none;endFill=0;strokeColor=#66B2FF;opacity=50;strokeWidth=5;curved=1;" parent="1" edge="1">
          <mxGeometry relative="1" as="geometry">
            <mxPoint x="-859.0699999999999" y="225" as="sourcePoint" />
            <mxPoint x="-911" y="432" as="targetPoint" />
            <Array as="points">
              <mxPoint x="-862" y="276" />
              <mxPoint x="-912" y="398" />
            </Array>
          </mxGeometry>
        </mxCell>
        <mxCell id="5O-vmS7WsDglhWfCH8Vm-61" style="orthogonalLoop=1;jettySize=auto;html=1;elbow=vertical;endArrow=none;endFill=0;strokeColor=#66B2FF;opacity=50;strokeWidth=5;curved=1;" parent="1" edge="1">
          <mxGeometry relative="1" as="geometry">
            <mxPoint x="-985" y="227" as="sourcePoint" />
            <mxPoint x="-763" y="227" as="targetPoint" />
            <Array as="points">
              <mxPoint x="-997" y="280" />
              <mxPoint x="-760" y="292" />
            </Array>
          </mxGeometry>
        </mxCell>
        <mxCell id="p_5jxnpZz28lTwDefBH6-1" value="" style="group;movable=0;resizable=0;rotatable=0;deletable=0;editable=0;locked=1;connectable=0;" vertex="1" connectable="0" parent="1">
          <mxGeometry x="-1071.25" y="150" width="234" height="112.5" as="geometry" />
        </mxCell>
        <mxCell id="5O-vmS7WsDglhWfCH8Vm-30" value="" style="group;movable=1;resizable=1;rotatable=1;deletable=1;editable=1;locked=0;connectable=1;" parent="p_5jxnpZz28lTwDefBH6-1" vertex="1" connectable="0">
          <mxGeometry x="21.25" y="33" width="212.75" height="42" as="geometry" />
        </mxCell>
        <mxCell id="5O-vmS7WsDglhWfCH8Vm-31" value="" style="whiteSpace=wrap;html=1;fillColor=#f8cecc;strokeColor=#000000;movable=1;resizable=1;rotatable=1;deletable=1;editable=1;locked=0;connectable=1;" parent="5O-vmS7WsDglhWfCH8Vm-30" vertex="1">
          <mxGeometry width="212" height="40" as="geometry" />
        </mxCell>
        <mxCell id="5O-vmS7WsDglhWfCH8Vm-32" value="5" style="whiteSpace=wrap;html=1;perimeterSpacing=6;rounded=0;container=0;movable=1;resizable=1;rotatable=1;deletable=1;editable=1;locked=0;connectable=1;" parent="5O-vmS7WsDglhWfCH8Vm-30" vertex="1">
          <mxGeometry x="178.1428571428571" y="6" width="28.857142857142883" height="28.836000000000013" as="geometry" />
        </mxCell>
        <mxCell id="5O-vmS7WsDglhWfCH8Vm-40" value="1" style="whiteSpace=wrap;html=1;perimeterSpacing=6;rounded=0;container=0;movable=1;resizable=1;rotatable=1;deletable=1;editable=1;locked=0;connectable=1;" parent="5O-vmS7WsDglhWfCH8Vm-30" vertex="1">
          <mxGeometry x="5" y="6" width="28.857142857142883" height="28.836000000000013" as="geometry" />
        </mxCell>
        <mxCell id="5O-vmS7WsDglhWfCH8Vm-41" value="2" style="whiteSpace=wrap;html=1;perimeterSpacing=6;rounded=0;container=0;movable=1;resizable=1;rotatable=1;deletable=1;editable=1;locked=0;connectable=1;" parent="5O-vmS7WsDglhWfCH8Vm-30" vertex="1">
          <mxGeometry x="48.28571428571422" y="6" width="28.857142857142883" height="28.836000000000013" as="geometry" />
        </mxCell>
        <mxCell id="5O-vmS7WsDglhWfCH8Vm-42" value="3" style="whiteSpace=wrap;html=1;perimeterSpacing=6;rounded=0;container=0;movable=1;resizable=1;rotatable=1;deletable=1;editable=1;locked=0;connectable=1;" parent="5O-vmS7WsDglhWfCH8Vm-30" vertex="1">
          <mxGeometry x="91.57142857142856" y="6" width="28.857142857142883" height="28.836000000000013" as="geometry" />
        </mxCell>
        <mxCell id="5O-vmS7WsDglhWfCH8Vm-43" value="4" style="whiteSpace=wrap;html=1;perimeterSpacing=6;rounded=0;container=0;movable=1;resizable=1;rotatable=1;deletable=1;editable=1;locked=0;connectable=1;" parent="5O-vmS7WsDglhWfCH8Vm-30" vertex="1">
          <mxGeometry x="134.85714285714278" y="6" width="28.857142857142883" height="28.836000000000013" as="geometry" />
        </mxCell>
        <mxCell id="5O-vmS7WsDglhWfCH8Vm-56" value="2.5Gb&amp;nbsp;Switch" style="text;strokeColor=none;align=center;fillColor=none;html=1;verticalAlign=middle;whiteSpace=wrap;rounded=0;direction=south;rotation=-90;movable=1;resizable=1;rotatable=1;deletable=1;editable=1;locked=0;connectable=1;" parent="p_5jxnpZz28lTwDefBH6-1" vertex="1">
          <mxGeometry x="-50" y="50" width="112.5" height="12.5" as="geometry" />
        </mxCell>
      </root>
    </mxGraphModel>
  </diagram>
</mxfile>
